M48
; DRILL file {KiCad (5.1.10)-1} date 10/19/21 19:54:49
; FORMAT={-:-/ absolute / metric / decimal}
; #@! TF.CreationDate,2021-10-19T19:54:49+02:00
; #@! TF.GenerationSoftware,Kicad,Pcbnew,(5.1.10)-1
; #@! TF.FileFunction,Plated,1,2,PTH
FMAT,2
METRIC
T1C0.400
T2C0.500
T3C0.800
T4C0.900
T5C0.950
T6C1.000
T7C1.100
T8C1.200
T9C2.300
T10C3.200
%
G90
G05
T1
X48.317Y-40.785
X54.776Y-42.662
X60.498Y-63.5
X60.998Y-60.196
X63.341Y-78.401
X70.676Y-54.875
X78.189Y-62.762
X80.938Y-69.742
X83.053Y-83.536
X84.852Y-90.14
X88.025Y-83.482
X91.986Y-75.886
X92.492Y-30.92
X92.97Y-60.169
X93.163Y-48.076
X94.706Y-59.029
X98.939Y-59.07
X99.875Y-49.627
X99.961Y-51.092
X100.611Y-39.125
X100.972Y-84.207
X101.876Y-40.436
X102.14Y-36.448
X103.029Y-72.23
X103.727Y-73.516
X118.259Y-59.835
T2
X21.17Y-23.57
X21.17Y-116.43
X21.873Y-21.873
X21.873Y-25.267
X21.873Y-114.733
X21.873Y-118.127
X23.57Y-21.17
X23.57Y-25.97
X23.57Y-114.03
X23.57Y-118.83
X25.267Y-21.873
X25.267Y-25.267
X25.267Y-114.733
X25.267Y-118.127
X25.97Y-23.57
X25.97Y-116.43
X174.03Y-23.57
X174.03Y-116.43
X174.733Y-21.873
X174.733Y-25.267
X174.733Y-114.733
X174.733Y-118.127
X176.43Y-21.17
X176.43Y-25.97
X176.43Y-114.03
X176.43Y-118.83
X178.127Y-21.873
X178.127Y-25.267
X178.127Y-114.733
X178.127Y-118.127
X178.83Y-23.57
X178.83Y-116.43
T3
X25.4Y-34.29
X25.4Y-36.83
X25.4Y-39.37
X25.4Y-41.91
X25.4Y-44.45
X25.4Y-46.99
X25.4Y-49.53
X25.4Y-52.07
X25.4Y-54.61
X25.4Y-57.15
X25.4Y-59.69
X25.4Y-62.23
X25.4Y-64.77
X25.4Y-67.31
X25.4Y-69.85
X25.4Y-72.39
X25.4Y-74.93
X25.4Y-77.47
X25.4Y-80.01
X25.4Y-82.55
X25.4Y-88.9
X25.4Y-91.44
X25.4Y-93.98
X25.4Y-96.52
X25.4Y-99.06
X25.4Y-101.6
X25.4Y-104.14
X30.48Y-30.48
X33.02Y-88.9
X33.02Y-91.44
X33.02Y-93.98
X33.02Y-96.52
X33.02Y-99.06
X33.02Y-101.6
X33.02Y-104.14
X35.48Y-30.48
X38.1Y-88.9
X38.1Y-94.935
X38.1Y-110.175
X40.64Y-34.29
X40.64Y-36.83
X40.64Y-39.37
X40.64Y-41.91
X40.64Y-44.45
X40.64Y-46.99
X40.64Y-49.53
X40.64Y-52.07
X40.64Y-54.61
X40.64Y-57.15
X40.64Y-59.69
X40.64Y-62.23
X40.64Y-64.77
X40.64Y-67.31
X40.64Y-69.85
X40.64Y-72.39
X40.64Y-74.93
X40.64Y-77.47
X40.64Y-80.01
X40.64Y-82.55
X40.64Y-94.935
X40.64Y-110.175
X43.18Y-94.935
X43.18Y-110.175
X45.72Y-94.935
X45.72Y-110.175
X48.26Y-88.9
X48.26Y-94.935
X48.26Y-110.175
X50.8Y-88.9
X50.8Y-94.935
X50.8Y-110.175
X53.34Y-94.935
X53.34Y-110.175
X55.88Y-94.935
X55.88Y-110.175
X58.42Y-94.935
X58.42Y-110.175
X60.96Y-88.9
X60.96Y-94.935
X60.96Y-110.175
X63.5Y-94.935
X63.5Y-110.175
X63.58Y-88.9
X66.04Y-94.935
X66.04Y-110.175
X68.58Y-88.9
X68.58Y-94.935
X68.58Y-110.175
X71.12Y-94.935
X71.12Y-110.175
X73.66Y-31.75
X73.66Y-36.75
X73.66Y-94.935
X73.66Y-110.175
X74.77Y-40.64
X74.77Y-43.18
X74.77Y-45.72
X74.77Y-48.26
X74.77Y-50.8
X74.77Y-53.34
X74.77Y-55.88
X74.77Y-58.42
X74.77Y-60.96
X74.77Y-63.5
X74.77Y-66.04
X74.77Y-68.58
X74.77Y-71.12
X74.77Y-73.66
X74.93Y-80.01
X74.93Y-87.63
X76.2Y-94.935
X76.2Y-110.175
X77.47Y-80.01
X77.47Y-87.63
X78.74Y-94.935
X78.74Y-110.175
X80.01Y-80.01
X80.01Y-87.63
X80.09Y-114.3
X81.28Y-94.935
X81.28Y-110.175
X82.55Y-80.01
X82.55Y-87.63
X83.82Y-94.935
X83.82Y-110.175
X83.9Y-36.195
X85.09Y-80.01
X85.09Y-87.63
X85.09Y-114.3
X86.36Y-94.935
X86.36Y-110.175
X87.63Y-80.01
X87.63Y-87.63
X88.9Y-36.195
X90.01Y-40.64
X90.01Y-43.18
X90.01Y-45.72
X90.01Y-48.26
X90.01Y-50.8
X90.01Y-53.34
X90.01Y-55.88
X90.01Y-58.42
X90.01Y-60.96
X90.01Y-63.5
X90.01Y-66.04
X90.01Y-68.58
X90.01Y-71.12
X90.01Y-73.66
X90.17Y-80.01
X90.17Y-87.63
X91.44Y-94.935
X91.44Y-110.175
X92.075Y-36.195
X93.98Y-94.935
X93.98Y-110.175
X95.25Y-81.36
X95.25Y-86.36
X96.52Y-40.64
X96.52Y-43.18
X96.52Y-45.72
X96.52Y-48.26
X96.52Y-50.8
X96.52Y-53.34
X96.52Y-55.88
X96.52Y-58.42
X96.52Y-60.96
X96.52Y-63.5
X96.52Y-66.04
X96.52Y-68.58
X96.52Y-71.12
X96.52Y-73.66
X96.52Y-94.935
X96.52Y-110.175
X97.075Y-36.195
X99.06Y-80.01
X99.06Y-87.63
X99.06Y-94.935
X99.06Y-110.175
X100.33Y-36.195
X101.6Y-80.01
X101.6Y-87.63
X101.6Y-94.935
X101.6Y-110.175
X104.14Y-80.01
X104.14Y-87.63
X104.14Y-94.935
X104.14Y-110.175
X106.68Y-80.01
X106.68Y-87.63
X106.68Y-94.935
X106.68Y-110.175
X109.22Y-80.01
X109.22Y-87.63
X109.22Y-94.935
X109.22Y-110.175
X110.49Y-36.195
X111.76Y-40.64
X111.76Y-43.18
X111.76Y-45.72
X111.76Y-48.26
X111.76Y-50.8
X111.76Y-53.34
X111.76Y-55.88
X111.76Y-58.42
X111.76Y-60.96
X111.76Y-63.5
X111.76Y-66.04
X111.76Y-68.58
X111.76Y-71.12
X111.76Y-73.66
X111.76Y-80.01
X111.76Y-87.63
X111.76Y-94.935
X111.76Y-110.175
X114.3Y-31.75
X114.3Y-36.75
X114.3Y-80.01
X114.3Y-87.63
X114.3Y-94.935
X114.3Y-110.175
X116.84Y-43.26
X116.84Y-48.26
X116.84Y-52.15
X116.84Y-57.15
X116.84Y-61.04
X116.84Y-66.04
X116.84Y-69.85
X116.84Y-74.85
X116.84Y-80.01
X116.84Y-87.63
X116.84Y-94.935
X116.84Y-110.175
X119.38Y-94.935
X119.38Y-110.175
X120.65Y-29.39
X120.65Y-34.29
X120.65Y-41.91
X120.65Y-49.53
X120.65Y-54.61
X120.65Y-62.23
X120.65Y-67.31
X120.65Y-74.93
X121.92Y-81.36
X121.92Y-86.36
X121.92Y-94.935
X121.92Y-110.175
X123.19Y-41.91
X123.19Y-49.53
X123.19Y-54.61
X123.19Y-62.23
X123.19Y-67.31
X123.19Y-74.93
X124.46Y-94.935
X124.46Y-110.175
X124.46Y-115.57
X125.73Y-41.91
X125.73Y-49.53
X125.73Y-54.61
X125.73Y-62.23
X125.73Y-67.31
X125.73Y-74.93
X125.73Y-80.01
X125.73Y-87.63
X127.0Y-26.67
X127.0Y-36.83
X127.0Y-94.935
X127.0Y-110.175
X128.27Y-41.91
X128.27Y-49.53
X128.27Y-54.61
X128.27Y-62.23
X128.27Y-67.31
X128.27Y-74.93
X128.27Y-80.01
X128.27Y-87.63
X129.54Y-94.935
X129.54Y-110.175
X130.81Y-41.91
X130.81Y-49.53
X130.81Y-54.61
X130.81Y-62.23
X130.81Y-67.31
X130.81Y-74.93
X130.81Y-80.01
X130.81Y-87.63
X132.08Y-94.935
X132.08Y-110.175
X133.35Y-33.02
X133.35Y-38.02
X133.35Y-41.91
X133.35Y-49.53
X133.35Y-54.61
X133.35Y-62.23
X133.35Y-67.31
X133.35Y-74.93
X133.35Y-80.01
X133.35Y-87.63
X134.62Y-94.935
X134.62Y-110.175
X134.62Y-115.57
X135.89Y-41.91
X135.89Y-49.53
X135.89Y-54.61
X135.89Y-62.23
X135.89Y-67.31
X135.89Y-74.93
X135.89Y-80.01
X135.89Y-87.63
X137.16Y-94.935
X137.16Y-110.175
X138.43Y-33.02
X138.43Y-38.02
X138.43Y-80.01
X138.43Y-87.63
X139.7Y-94.935
X139.7Y-110.175
X139.7Y-115.57
X140.97Y-80.01
X140.97Y-87.63
X142.24Y-59.69
X142.24Y-63.5
X143.51Y-96.6
X143.51Y-101.6
X144.78Y-24.13
X144.78Y-34.29
X144.78Y-37.37
X144.78Y-39.37
X146.05Y-74.93
X146.05Y-76.93
X148.59Y-24.13
X148.59Y-34.29
X148.59Y-67.85
X148.59Y-69.85
X149.098Y-82.296
X149.098Y-84.836
X149.098Y-87.376
X149.098Y-89.916
X149.098Y-92.456
X149.098Y-94.996
X149.098Y-97.536
X149.098Y-100.076
X149.86Y-115.57
X152.4Y-37.37
X152.4Y-39.37
X152.4Y-48.34
X152.4Y-53.34
X152.4Y-59.69
X152.4Y-63.5
X153.67Y-25.4
X153.67Y-33.02
X154.94Y-74.93
X154.94Y-76.93
X156.21Y-25.4
X156.21Y-33.02
X156.718Y-82.296
X156.718Y-84.836
X156.718Y-87.376
X156.718Y-89.916
X156.718Y-92.456
X156.718Y-94.996
X156.718Y-97.536
X156.718Y-100.076
X157.48Y-59.595
X157.48Y-61.595
X157.48Y-67.85
X157.48Y-69.85
X158.75Y-25.4
X158.75Y-33.02
X160.02Y-36.91
X160.02Y-41.91
X161.29Y-25.4
X161.29Y-33.02
T4
X157.48Y-113.03
X157.48Y-115.57
X166.37Y-113.03
X166.37Y-115.57
X167.64Y-25.4
X167.64Y-27.94
T5
X163.83Y-63.5
X163.83Y-66.0
X165.83Y-63.5
X165.83Y-66.0
T6
X38.1Y-114.3
X38.1Y-116.84
X40.64Y-114.3
X40.64Y-116.84
X43.18Y-114.3
X43.18Y-116.84
X45.72Y-114.3
X45.72Y-116.84
X48.26Y-114.3
X48.26Y-116.84
X50.8Y-44.45
X50.8Y-46.99
X50.8Y-49.53
X50.8Y-52.07
X50.8Y-54.61
X50.8Y-57.15
X50.8Y-59.69
X50.8Y-62.23
X50.8Y-64.77
X50.8Y-67.31
X50.8Y-69.85
X50.8Y-72.39
X50.8Y-74.93
X50.8Y-77.47
X50.8Y-114.3
X50.8Y-116.84
X53.34Y-114.3
X53.34Y-116.84
X55.88Y-114.3
X55.88Y-116.84
X58.42Y-114.3
X58.42Y-116.84
X60.96Y-114.3
X60.96Y-116.84
X63.5Y-114.3
X63.5Y-116.84
X66.04Y-44.45
X66.04Y-46.99
X66.04Y-49.53
X66.04Y-52.07
X66.04Y-54.61
X66.04Y-57.15
X66.04Y-59.69
X66.04Y-62.23
X66.04Y-64.77
X66.04Y-67.31
X66.04Y-69.85
X66.04Y-72.39
X66.04Y-74.93
X66.04Y-77.47
X66.04Y-114.3
X66.04Y-116.84
X74.93Y-24.13
X74.93Y-26.67
X77.47Y-24.13
X77.47Y-26.67
X80.01Y-24.13
X80.01Y-26.67
X82.55Y-24.13
X82.55Y-26.67
X85.09Y-24.13
X85.09Y-26.67
X87.63Y-24.13
X87.63Y-26.67
X90.17Y-24.13
X90.17Y-26.67
X91.44Y-114.3
X91.44Y-116.84
X92.71Y-24.13
X92.71Y-26.67
X93.98Y-114.3
X93.98Y-116.84
X95.25Y-24.13
X95.25Y-26.67
X96.52Y-114.3
X96.52Y-116.84
X97.79Y-24.13
X97.79Y-26.67
X99.06Y-114.3
X99.06Y-116.84
X100.33Y-24.13
X100.33Y-26.67
X101.6Y-114.3
X101.6Y-116.84
X102.87Y-24.13
X102.87Y-26.67
X104.14Y-114.3
X104.14Y-116.84
X105.41Y-24.13
X105.41Y-26.67
X106.68Y-114.3
X106.68Y-116.84
X107.95Y-24.13
X107.95Y-26.67
X109.22Y-114.3
X109.22Y-116.84
X110.49Y-24.13
X110.49Y-26.67
X111.76Y-114.3
X111.76Y-116.84
X113.03Y-24.13
X113.03Y-26.67
X114.3Y-114.3
X114.3Y-116.84
X116.84Y-114.3
X116.84Y-116.84
X119.38Y-114.3
X119.38Y-116.84
X142.24Y-50.292
X142.24Y-52.832
X142.24Y-55.372
X146.05Y-106.68
X148.59Y-106.68
X151.13Y-106.68
X157.48Y-106.68
X160.02Y-106.68
X162.56Y-91.44
X162.56Y-93.98
X162.56Y-96.52
X162.56Y-99.06
X162.56Y-106.68
X168.91Y-85.09
X168.91Y-87.86
X168.91Y-90.63
X168.91Y-93.4
X168.91Y-96.17
X171.75Y-86.475
X171.75Y-89.245
X171.75Y-92.015
X171.75Y-94.785
T7
X133.2Y-24.71
X133.2Y-29.21
X139.7Y-24.71
X139.7Y-29.21
X158.75Y-46.99
X158.75Y-49.53
X158.75Y-52.07
T8
X143.51Y-44.45
X153.67Y-44.45
T9
X168.69Y-58.75
X168.69Y-70.75
T10
X23.57Y-23.57
X23.57Y-116.43
X170.33Y-78.13
X170.33Y-103.13
X176.43Y-23.57
X176.43Y-116.43
T6
X165.735Y-39.1G85X165.735Y-37.1
G05
X169.735Y-33.4G85X167.735Y-33.4
G05
X171.735Y-39.1G85X171.735Y-37.1
G05
T0
M30
