%FSLAX45Y45*%
G04 Gerber Fmt 4.5, Leading zero omitted, Abs format (unit mm)*
G04 Created by KiCad (PCBNEW (5.1.10)-1) date 2021-10-19 19:54:51*
%MOMM*%
%LPD*%
G01*
G04 APERTURE LIST*
%TA.AperFunction,Profile*%
%ADD10C,0.001000*%
%TD*%
%ADD11C,0.200000*%
%ADD12C,0.300000*%
G04 APERTURE END LIST*
D10*
X2356000Y-1999000D02*
X17642000Y-1999000D01*
X2000000Y-11643000D02*
X1999000Y-2356000D01*
X17643000Y-11999000D02*
X2357000Y-12000000D01*
X17999000Y-2356000D02*
X18000000Y-11642000D01*
X18000000Y-11642000D02*
G75*
G02*
X17643000Y-11999000I-357000J0D01*
G01*
X2357000Y-12000000D02*
G75*
G02*
X2000000Y-11643000I0J357000D01*
G01*
X1999000Y-2356000D02*
G75*
G02*
X2356000Y-1999000I357000J0D01*
G01*
X17642000Y-1999000D02*
G75*
G02*
X17999000Y-2356000I0J-357000D01*
G01*
D11*
X4811730Y-4058460D02*
X4851730Y-4098460D01*
X4851730Y-4058460D02*
X4811730Y-4098460D01*
X5457570Y-4246190D02*
X5497570Y-4286190D01*
X5497570Y-4246190D02*
X5457570Y-4286190D01*
X6029780Y-6330000D02*
X6069780Y-6370000D01*
X6069780Y-6330000D02*
X6029780Y-6370000D01*
X6079790Y-5999600D02*
X6119790Y-6039600D01*
X6119790Y-5999600D02*
X6079790Y-6039600D01*
X6314090Y-7820060D02*
X6354090Y-7860060D01*
X6354090Y-7820060D02*
X6314090Y-7860060D01*
X7047640Y-5467480D02*
X7087640Y-5507480D01*
X7087640Y-5467480D02*
X7047640Y-5507480D01*
X7798860Y-6256250D02*
X7838860Y-6296250D01*
X7838860Y-6256250D02*
X7798860Y-6296250D01*
X8073770Y-6954240D02*
X8113770Y-6994240D01*
X8113770Y-6954240D02*
X8073770Y-6994240D01*
X8285330Y-8333580D02*
X8325330Y-8373580D01*
X8325330Y-8333580D02*
X8285330Y-8373580D01*
X8465250Y-8993980D02*
X8505250Y-9033980D01*
X8505250Y-8993980D02*
X8465250Y-9033980D01*
X8782490Y-8328170D02*
X8822490Y-8368170D01*
X8822490Y-8328170D02*
X8782490Y-8368170D01*
X9178650Y-7568600D02*
X9218650Y-7608600D01*
X9218650Y-7568600D02*
X9178650Y-7608600D01*
X9229150Y-3072020D02*
X9269150Y-3112020D01*
X9269150Y-3072020D02*
X9229150Y-3112020D01*
X9276990Y-5996940D02*
X9316990Y-6036940D01*
X9316990Y-5996940D02*
X9276990Y-6036940D01*
X9296320Y-4787630D02*
X9336320Y-4827630D01*
X9336320Y-4787630D02*
X9296320Y-4827630D01*
X9450590Y-5882950D02*
X9490590Y-5922950D01*
X9490590Y-5882950D02*
X9450590Y-5922950D01*
X9873900Y-5887040D02*
X9913900Y-5927040D01*
X9913900Y-5887040D02*
X9873900Y-5927040D01*
X9967500Y-4942710D02*
X10007500Y-4982710D01*
X10007500Y-4942710D02*
X9967500Y-4982710D01*
X9976090Y-5089190D02*
X10016090Y-5129190D01*
X10016090Y-5089190D02*
X9976090Y-5129190D01*
X10041050Y-3892530D02*
X10081050Y-3932530D01*
X10081050Y-3892530D02*
X10041050Y-3932530D01*
X10077240Y-8400700D02*
X10117240Y-8440700D01*
X10117240Y-8400700D02*
X10077240Y-8440700D01*
X10167550Y-4023560D02*
X10207550Y-4063560D01*
X10207550Y-4023560D02*
X10167550Y-4063560D01*
X10194000Y-3624770D02*
X10234000Y-3664770D01*
X10234000Y-3624770D02*
X10194000Y-3664770D01*
X10282860Y-7202980D02*
X10322860Y-7242980D01*
X10322860Y-7202980D02*
X10282860Y-7242980D01*
X10352740Y-7331570D02*
X10392740Y-7371570D01*
X10392740Y-7331570D02*
X10352740Y-7371570D01*
X11805950Y-5963470D02*
X11845950Y-6003470D01*
X11845950Y-5963470D02*
X11805950Y-6003470D01*
X2142000Y-2357000D02*
G75*
G03*
X2142000Y-2357000I-25000J0D01*
G01*
X2142000Y-11643000D02*
G75*
G03*
X2142000Y-11643000I-25000J0D01*
G01*
X2212294Y-2187294D02*
G75*
G03*
X2212294Y-2187294I-25000J0D01*
G01*
X2212294Y-2526706D02*
G75*
G03*
X2212294Y-2526706I-25000J0D01*
G01*
X2212294Y-11473294D02*
G75*
G03*
X2212294Y-11473294I-25000J0D01*
G01*
X2212294Y-11812706D02*
G75*
G03*
X2212294Y-11812706I-25000J0D01*
G01*
X2382000Y-2117000D02*
G75*
G03*
X2382000Y-2117000I-25000J0D01*
G01*
X2382000Y-2597000D02*
G75*
G03*
X2382000Y-2597000I-25000J0D01*
G01*
X2382000Y-11403000D02*
G75*
G03*
X2382000Y-11403000I-25000J0D01*
G01*
X2382000Y-11883000D02*
G75*
G03*
X2382000Y-11883000I-25000J0D01*
G01*
X2551706Y-2187294D02*
G75*
G03*
X2551706Y-2187294I-25000J0D01*
G01*
X2551706Y-2526706D02*
G75*
G03*
X2551706Y-2526706I-25000J0D01*
G01*
X2551706Y-11473294D02*
G75*
G03*
X2551706Y-11473294I-25000J0D01*
G01*
X2551706Y-11812706D02*
G75*
G03*
X2551706Y-11812706I-25000J0D01*
G01*
X2622000Y-2357000D02*
G75*
G03*
X2622000Y-2357000I-25000J0D01*
G01*
X2622000Y-11643000D02*
G75*
G03*
X2622000Y-11643000I-25000J0D01*
G01*
X17428000Y-2357000D02*
G75*
G03*
X17428000Y-2357000I-25000J0D01*
G01*
X17428000Y-11643000D02*
G75*
G03*
X17428000Y-11643000I-25000J0D01*
G01*
X17498294Y-2187294D02*
G75*
G03*
X17498294Y-2187294I-25000J0D01*
G01*
X17498294Y-2526706D02*
G75*
G03*
X17498294Y-2526706I-25000J0D01*
G01*
X17498294Y-11473294D02*
G75*
G03*
X17498294Y-11473294I-25000J0D01*
G01*
X17498294Y-11812706D02*
G75*
G03*
X17498294Y-11812706I-25000J0D01*
G01*
X17668000Y-2117000D02*
G75*
G03*
X17668000Y-2117000I-25000J0D01*
G01*
X17668000Y-2597000D02*
G75*
G03*
X17668000Y-2597000I-25000J0D01*
G01*
X17668000Y-11403000D02*
G75*
G03*
X17668000Y-11403000I-25000J0D01*
G01*
X17668000Y-11883000D02*
G75*
G03*
X17668000Y-11883000I-25000J0D01*
G01*
X17837706Y-2187294D02*
G75*
G03*
X17837706Y-2187294I-25000J0D01*
G01*
X17837706Y-2526706D02*
G75*
G03*
X17837706Y-2526706I-25000J0D01*
G01*
X17837706Y-11473294D02*
G75*
G03*
X17837706Y-11473294I-25000J0D01*
G01*
X17837706Y-11812706D02*
G75*
G03*
X17837706Y-11812706I-25000J0D01*
G01*
X17908000Y-2357000D02*
G75*
G03*
X17908000Y-2357000I-25000J0D01*
G01*
X17908000Y-11643000D02*
G75*
G03*
X17908000Y-11643000I-25000J0D01*
G01*
X2540000Y-3389000D02*
X2540000Y-3469000D01*
X2500000Y-3429000D02*
X2580000Y-3429000D01*
X2540000Y-3643000D02*
X2540000Y-3723000D01*
X2500000Y-3683000D02*
X2580000Y-3683000D01*
X2540000Y-3897000D02*
X2540000Y-3977000D01*
X2500000Y-3937000D02*
X2580000Y-3937000D01*
X2540000Y-4151000D02*
X2540000Y-4231000D01*
X2500000Y-4191000D02*
X2580000Y-4191000D01*
X2540000Y-4405000D02*
X2540000Y-4485000D01*
X2500000Y-4445000D02*
X2580000Y-4445000D01*
X2540000Y-4659000D02*
X2540000Y-4739000D01*
X2500000Y-4699000D02*
X2580000Y-4699000D01*
X2540000Y-4913000D02*
X2540000Y-4993000D01*
X2500000Y-4953000D02*
X2580000Y-4953000D01*
X2540000Y-5167000D02*
X2540000Y-5247000D01*
X2500000Y-5207000D02*
X2580000Y-5207000D01*
X2540000Y-5421000D02*
X2540000Y-5501000D01*
X2500000Y-5461000D02*
X2580000Y-5461000D01*
X2540000Y-5675000D02*
X2540000Y-5755000D01*
X2500000Y-5715000D02*
X2580000Y-5715000D01*
X2540000Y-5929000D02*
X2540000Y-6009000D01*
X2500000Y-5969000D02*
X2580000Y-5969000D01*
X2540000Y-6183000D02*
X2540000Y-6263000D01*
X2500000Y-6223000D02*
X2580000Y-6223000D01*
X2540000Y-6437000D02*
X2540000Y-6517000D01*
X2500000Y-6477000D02*
X2580000Y-6477000D01*
X2540000Y-6691000D02*
X2540000Y-6771000D01*
X2500000Y-6731000D02*
X2580000Y-6731000D01*
X2540000Y-6945000D02*
X2540000Y-7025000D01*
X2500000Y-6985000D02*
X2580000Y-6985000D01*
X2540000Y-7199000D02*
X2540000Y-7279000D01*
X2500000Y-7239000D02*
X2580000Y-7239000D01*
X2540000Y-7453000D02*
X2540000Y-7533000D01*
X2500000Y-7493000D02*
X2580000Y-7493000D01*
X2540000Y-7707000D02*
X2540000Y-7787000D01*
X2500000Y-7747000D02*
X2580000Y-7747000D01*
X2540000Y-7961000D02*
X2540000Y-8041000D01*
X2500000Y-8001000D02*
X2580000Y-8001000D01*
X2540000Y-8215000D02*
X2540000Y-8295000D01*
X2500000Y-8255000D02*
X2580000Y-8255000D01*
X2540000Y-8850000D02*
X2540000Y-8930000D01*
X2500000Y-8890000D02*
X2580000Y-8890000D01*
X2540000Y-9104000D02*
X2540000Y-9184000D01*
X2500000Y-9144000D02*
X2580000Y-9144000D01*
X2540000Y-9358000D02*
X2540000Y-9438000D01*
X2500000Y-9398000D02*
X2580000Y-9398000D01*
X2540000Y-9612000D02*
X2540000Y-9692000D01*
X2500000Y-9652000D02*
X2580000Y-9652000D01*
X2540000Y-9866000D02*
X2540000Y-9946000D01*
X2500000Y-9906000D02*
X2580000Y-9906000D01*
X2540000Y-10120000D02*
X2540000Y-10200000D01*
X2500000Y-10160000D02*
X2580000Y-10160000D01*
X2540000Y-10374000D02*
X2540000Y-10454000D01*
X2500000Y-10414000D02*
X2580000Y-10414000D01*
X3048000Y-3008000D02*
X3048000Y-3088000D01*
X3008000Y-3048000D02*
X3088000Y-3048000D01*
X3302000Y-8850000D02*
X3302000Y-8930000D01*
X3262000Y-8890000D02*
X3342000Y-8890000D01*
X3302000Y-9104000D02*
X3302000Y-9184000D01*
X3262000Y-9144000D02*
X3342000Y-9144000D01*
X3302000Y-9358000D02*
X3302000Y-9438000D01*
X3262000Y-9398000D02*
X3342000Y-9398000D01*
X3302000Y-9612000D02*
X3302000Y-9692000D01*
X3262000Y-9652000D02*
X3342000Y-9652000D01*
X3302000Y-9866000D02*
X3302000Y-9946000D01*
X3262000Y-9906000D02*
X3342000Y-9906000D01*
X3302000Y-10120000D02*
X3302000Y-10200000D01*
X3262000Y-10160000D02*
X3342000Y-10160000D01*
X3302000Y-10374000D02*
X3302000Y-10454000D01*
X3262000Y-10414000D02*
X3342000Y-10414000D01*
X3548000Y-3008000D02*
X3548000Y-3088000D01*
X3508000Y-3048000D02*
X3588000Y-3048000D01*
X3810000Y-8850000D02*
X3810000Y-8930000D01*
X3770000Y-8890000D02*
X3850000Y-8890000D01*
X3810000Y-9453500D02*
X3810000Y-9533500D01*
X3770000Y-9493500D02*
X3850000Y-9493500D01*
X3810000Y-10977500D02*
X3810000Y-11057500D01*
X3770000Y-11017500D02*
X3850000Y-11017500D01*
X4064000Y-3389000D02*
X4064000Y-3469000D01*
X4024000Y-3429000D02*
X4104000Y-3429000D01*
X4064000Y-3643000D02*
X4064000Y-3723000D01*
X4024000Y-3683000D02*
X4104000Y-3683000D01*
X4064000Y-3897000D02*
X4064000Y-3977000D01*
X4024000Y-3937000D02*
X4104000Y-3937000D01*
X4064000Y-4151000D02*
X4064000Y-4231000D01*
X4024000Y-4191000D02*
X4104000Y-4191000D01*
X4064000Y-4405000D02*
X4064000Y-4485000D01*
X4024000Y-4445000D02*
X4104000Y-4445000D01*
X4064000Y-4659000D02*
X4064000Y-4739000D01*
X4024000Y-4699000D02*
X4104000Y-4699000D01*
X4064000Y-4913000D02*
X4064000Y-4993000D01*
X4024000Y-4953000D02*
X4104000Y-4953000D01*
X4064000Y-5167000D02*
X4064000Y-5247000D01*
X4024000Y-5207000D02*
X4104000Y-5207000D01*
X4064000Y-5421000D02*
X4064000Y-5501000D01*
X4024000Y-5461000D02*
X4104000Y-5461000D01*
X4064000Y-5675000D02*
X4064000Y-5755000D01*
X4024000Y-5715000D02*
X4104000Y-5715000D01*
X4064000Y-5929000D02*
X4064000Y-6009000D01*
X4024000Y-5969000D02*
X4104000Y-5969000D01*
X4064000Y-6183000D02*
X4064000Y-6263000D01*
X4024000Y-6223000D02*
X4104000Y-6223000D01*
X4064000Y-6437000D02*
X4064000Y-6517000D01*
X4024000Y-6477000D02*
X4104000Y-6477000D01*
X4064000Y-6691000D02*
X4064000Y-6771000D01*
X4024000Y-6731000D02*
X4104000Y-6731000D01*
X4064000Y-6945000D02*
X4064000Y-7025000D01*
X4024000Y-6985000D02*
X4104000Y-6985000D01*
X4064000Y-7199000D02*
X4064000Y-7279000D01*
X4024000Y-7239000D02*
X4104000Y-7239000D01*
X4064000Y-7453000D02*
X4064000Y-7533000D01*
X4024000Y-7493000D02*
X4104000Y-7493000D01*
X4064000Y-7707000D02*
X4064000Y-7787000D01*
X4024000Y-7747000D02*
X4104000Y-7747000D01*
X4064000Y-7961000D02*
X4064000Y-8041000D01*
X4024000Y-8001000D02*
X4104000Y-8001000D01*
X4064000Y-8215000D02*
X4064000Y-8295000D01*
X4024000Y-8255000D02*
X4104000Y-8255000D01*
X4064000Y-9453500D02*
X4064000Y-9533500D01*
X4024000Y-9493500D02*
X4104000Y-9493500D01*
X4064000Y-10977500D02*
X4064000Y-11057500D01*
X4024000Y-11017500D02*
X4104000Y-11017500D01*
X4318000Y-9453500D02*
X4318000Y-9533500D01*
X4278000Y-9493500D02*
X4358000Y-9493500D01*
X4318000Y-10977500D02*
X4318000Y-11057500D01*
X4278000Y-11017500D02*
X4358000Y-11017500D01*
X4572000Y-9453500D02*
X4572000Y-9533500D01*
X4532000Y-9493500D02*
X4612000Y-9493500D01*
X4572000Y-10977500D02*
X4572000Y-11057500D01*
X4532000Y-11017500D02*
X4612000Y-11017500D01*
X4826000Y-8850000D02*
X4826000Y-8930000D01*
X4786000Y-8890000D02*
X4866000Y-8890000D01*
X4826000Y-9453500D02*
X4826000Y-9533500D01*
X4786000Y-9493500D02*
X4866000Y-9493500D01*
X4826000Y-10977500D02*
X4826000Y-11057500D01*
X4786000Y-11017500D02*
X4866000Y-11017500D01*
X5080000Y-8850000D02*
X5080000Y-8930000D01*
X5040000Y-8890000D02*
X5120000Y-8890000D01*
X5080000Y-9453500D02*
X5080000Y-9533500D01*
X5040000Y-9493500D02*
X5120000Y-9493500D01*
X5080000Y-10977500D02*
X5080000Y-11057500D01*
X5040000Y-11017500D02*
X5120000Y-11017500D01*
X5334000Y-9453500D02*
X5334000Y-9533500D01*
X5294000Y-9493500D02*
X5374000Y-9493500D01*
X5334000Y-10977500D02*
X5334000Y-11057500D01*
X5294000Y-11017500D02*
X5374000Y-11017500D01*
X5588000Y-9453500D02*
X5588000Y-9533500D01*
X5548000Y-9493500D02*
X5628000Y-9493500D01*
X5588000Y-10977500D02*
X5588000Y-11057500D01*
X5548000Y-11017500D02*
X5628000Y-11017500D01*
X5842000Y-9453500D02*
X5842000Y-9533500D01*
X5802000Y-9493500D02*
X5882000Y-9493500D01*
X5842000Y-10977500D02*
X5842000Y-11057500D01*
X5802000Y-11017500D02*
X5882000Y-11017500D01*
X6096000Y-8850000D02*
X6096000Y-8930000D01*
X6056000Y-8890000D02*
X6136000Y-8890000D01*
X6096000Y-9453500D02*
X6096000Y-9533500D01*
X6056000Y-9493500D02*
X6136000Y-9493500D01*
X6096000Y-10977500D02*
X6096000Y-11057500D01*
X6056000Y-11017500D02*
X6136000Y-11017500D01*
X6350000Y-9453500D02*
X6350000Y-9533500D01*
X6310000Y-9493500D02*
X6390000Y-9493500D01*
X6350000Y-10977500D02*
X6350000Y-11057500D01*
X6310000Y-11017500D02*
X6390000Y-11017500D01*
X6358000Y-8850000D02*
X6358000Y-8930000D01*
X6318000Y-8890000D02*
X6398000Y-8890000D01*
X6604000Y-9453500D02*
X6604000Y-9533500D01*
X6564000Y-9493500D02*
X6644000Y-9493500D01*
X6604000Y-10977500D02*
X6604000Y-11057500D01*
X6564000Y-11017500D02*
X6644000Y-11017500D01*
X6858000Y-8850000D02*
X6858000Y-8930000D01*
X6818000Y-8890000D02*
X6898000Y-8890000D01*
X6858000Y-9453500D02*
X6858000Y-9533500D01*
X6818000Y-9493500D02*
X6898000Y-9493500D01*
X6858000Y-10977500D02*
X6858000Y-11057500D01*
X6818000Y-11017500D02*
X6898000Y-11017500D01*
X7112000Y-9453500D02*
X7112000Y-9533500D01*
X7072000Y-9493500D02*
X7152000Y-9493500D01*
X7112000Y-10977500D02*
X7112000Y-11057500D01*
X7072000Y-11017500D02*
X7152000Y-11017500D01*
X7366000Y-3135000D02*
X7366000Y-3215000D01*
X7326000Y-3175000D02*
X7406000Y-3175000D01*
X7366000Y-3635000D02*
X7366000Y-3715000D01*
X7326000Y-3675000D02*
X7406000Y-3675000D01*
X7366000Y-9453500D02*
X7366000Y-9533500D01*
X7326000Y-9493500D02*
X7406000Y-9493500D01*
X7366000Y-10977500D02*
X7366000Y-11057500D01*
X7326000Y-11017500D02*
X7406000Y-11017500D01*
X7477000Y-4024000D02*
X7477000Y-4104000D01*
X7437000Y-4064000D02*
X7517000Y-4064000D01*
X7477000Y-4278000D02*
X7477000Y-4358000D01*
X7437000Y-4318000D02*
X7517000Y-4318000D01*
X7477000Y-4532000D02*
X7477000Y-4612000D01*
X7437000Y-4572000D02*
X7517000Y-4572000D01*
X7477000Y-4786000D02*
X7477000Y-4866000D01*
X7437000Y-4826000D02*
X7517000Y-4826000D01*
X7477000Y-5040000D02*
X7477000Y-5120000D01*
X7437000Y-5080000D02*
X7517000Y-5080000D01*
X7477000Y-5294000D02*
X7477000Y-5374000D01*
X7437000Y-5334000D02*
X7517000Y-5334000D01*
X7477000Y-5548000D02*
X7477000Y-5628000D01*
X7437000Y-5588000D02*
X7517000Y-5588000D01*
X7477000Y-5802000D02*
X7477000Y-5882000D01*
X7437000Y-5842000D02*
X7517000Y-5842000D01*
X7477000Y-6056000D02*
X7477000Y-6136000D01*
X7437000Y-6096000D02*
X7517000Y-6096000D01*
X7477000Y-6310000D02*
X7477000Y-6390000D01*
X7437000Y-6350000D02*
X7517000Y-6350000D01*
X7477000Y-6564000D02*
X7477000Y-6644000D01*
X7437000Y-6604000D02*
X7517000Y-6604000D01*
X7477000Y-6818000D02*
X7477000Y-6898000D01*
X7437000Y-6858000D02*
X7517000Y-6858000D01*
X7477000Y-7072000D02*
X7477000Y-7152000D01*
X7437000Y-7112000D02*
X7517000Y-7112000D01*
X7477000Y-7326000D02*
X7477000Y-7406000D01*
X7437000Y-7366000D02*
X7517000Y-7366000D01*
X7493000Y-7961000D02*
X7493000Y-8041000D01*
X7453000Y-8001000D02*
X7533000Y-8001000D01*
X7493000Y-8723000D02*
X7493000Y-8803000D01*
X7453000Y-8763000D02*
X7533000Y-8763000D01*
X7620000Y-9453500D02*
X7620000Y-9533500D01*
X7580000Y-9493500D02*
X7660000Y-9493500D01*
X7620000Y-10977500D02*
X7620000Y-11057500D01*
X7580000Y-11017500D02*
X7660000Y-11017500D01*
X7747000Y-7961000D02*
X7747000Y-8041000D01*
X7707000Y-8001000D02*
X7787000Y-8001000D01*
X7747000Y-8723000D02*
X7747000Y-8803000D01*
X7707000Y-8763000D02*
X7787000Y-8763000D01*
X7874000Y-9453500D02*
X7874000Y-9533500D01*
X7834000Y-9493500D02*
X7914000Y-9493500D01*
X7874000Y-10977500D02*
X7874000Y-11057500D01*
X7834000Y-11017500D02*
X7914000Y-11017500D01*
X8001000Y-7961000D02*
X8001000Y-8041000D01*
X7961000Y-8001000D02*
X8041000Y-8001000D01*
X8001000Y-8723000D02*
X8001000Y-8803000D01*
X7961000Y-8763000D02*
X8041000Y-8763000D01*
X8009000Y-11390000D02*
X8009000Y-11470000D01*
X7969000Y-11430000D02*
X8049000Y-11430000D01*
X8128000Y-9453500D02*
X8128000Y-9533500D01*
X8088000Y-9493500D02*
X8168000Y-9493500D01*
X8128000Y-10977500D02*
X8128000Y-11057500D01*
X8088000Y-11017500D02*
X8168000Y-11017500D01*
X8255000Y-7961000D02*
X8255000Y-8041000D01*
X8215000Y-8001000D02*
X8295000Y-8001000D01*
X8255000Y-8723000D02*
X8255000Y-8803000D01*
X8215000Y-8763000D02*
X8295000Y-8763000D01*
X8382000Y-9453500D02*
X8382000Y-9533500D01*
X8342000Y-9493500D02*
X8422000Y-9493500D01*
X8382000Y-10977500D02*
X8382000Y-11057500D01*
X8342000Y-11017500D02*
X8422000Y-11017500D01*
X8390000Y-3579500D02*
X8390000Y-3659500D01*
X8350000Y-3619500D02*
X8430000Y-3619500D01*
X8509000Y-7961000D02*
X8509000Y-8041000D01*
X8469000Y-8001000D02*
X8549000Y-8001000D01*
X8509000Y-8723000D02*
X8509000Y-8803000D01*
X8469000Y-8763000D02*
X8549000Y-8763000D01*
X8509000Y-11390000D02*
X8509000Y-11470000D01*
X8469000Y-11430000D02*
X8549000Y-11430000D01*
X8636000Y-9453500D02*
X8636000Y-9533500D01*
X8596000Y-9493500D02*
X8676000Y-9493500D01*
X8636000Y-10977500D02*
X8636000Y-11057500D01*
X8596000Y-11017500D02*
X8676000Y-11017500D01*
X8763000Y-7961000D02*
X8763000Y-8041000D01*
X8723000Y-8001000D02*
X8803000Y-8001000D01*
X8763000Y-8723000D02*
X8763000Y-8803000D01*
X8723000Y-8763000D02*
X8803000Y-8763000D01*
X8890000Y-3579500D02*
X8890000Y-3659500D01*
X8850000Y-3619500D02*
X8930000Y-3619500D01*
X9001000Y-4024000D02*
X9001000Y-4104000D01*
X8961000Y-4064000D02*
X9041000Y-4064000D01*
X9001000Y-4278000D02*
X9001000Y-4358000D01*
X8961000Y-4318000D02*
X9041000Y-4318000D01*
X9001000Y-4532000D02*
X9001000Y-4612000D01*
X8961000Y-4572000D02*
X9041000Y-4572000D01*
X9001000Y-4786000D02*
X9001000Y-4866000D01*
X8961000Y-4826000D02*
X9041000Y-4826000D01*
X9001000Y-5040000D02*
X9001000Y-5120000D01*
X8961000Y-5080000D02*
X9041000Y-5080000D01*
X9001000Y-5294000D02*
X9001000Y-5374000D01*
X8961000Y-5334000D02*
X9041000Y-5334000D01*
X9001000Y-5548000D02*
X9001000Y-5628000D01*
X8961000Y-5588000D02*
X9041000Y-5588000D01*
X9001000Y-5802000D02*
X9001000Y-5882000D01*
X8961000Y-5842000D02*
X9041000Y-5842000D01*
X9001000Y-6056000D02*
X9001000Y-6136000D01*
X8961000Y-6096000D02*
X9041000Y-6096000D01*
X9001000Y-6310000D02*
X9001000Y-6390000D01*
X8961000Y-6350000D02*
X9041000Y-6350000D01*
X9001000Y-6564000D02*
X9001000Y-6644000D01*
X8961000Y-6604000D02*
X9041000Y-6604000D01*
X9001000Y-6818000D02*
X9001000Y-6898000D01*
X8961000Y-6858000D02*
X9041000Y-6858000D01*
X9001000Y-7072000D02*
X9001000Y-7152000D01*
X8961000Y-7112000D02*
X9041000Y-7112000D01*
X9001000Y-7326000D02*
X9001000Y-7406000D01*
X8961000Y-7366000D02*
X9041000Y-7366000D01*
X9017000Y-7961000D02*
X9017000Y-8041000D01*
X8977000Y-8001000D02*
X9057000Y-8001000D01*
X9017000Y-8723000D02*
X9017000Y-8803000D01*
X8977000Y-8763000D02*
X9057000Y-8763000D01*
X9144000Y-9453500D02*
X9144000Y-9533500D01*
X9104000Y-9493500D02*
X9184000Y-9493500D01*
X9144000Y-10977500D02*
X9144000Y-11057500D01*
X9104000Y-11017500D02*
X9184000Y-11017500D01*
X9207500Y-3579500D02*
X9207500Y-3659500D01*
X9167500Y-3619500D02*
X9247500Y-3619500D01*
X9398000Y-9453500D02*
X9398000Y-9533500D01*
X9358000Y-9493500D02*
X9438000Y-9493500D01*
X9398000Y-10977500D02*
X9398000Y-11057500D01*
X9358000Y-11017500D02*
X9438000Y-11017500D01*
X9525000Y-8096000D02*
X9525000Y-8176000D01*
X9485000Y-8136000D02*
X9565000Y-8136000D01*
X9525000Y-8596000D02*
X9525000Y-8676000D01*
X9485000Y-8636000D02*
X9565000Y-8636000D01*
X9652000Y-4024000D02*
X9652000Y-4104000D01*
X9612000Y-4064000D02*
X9692000Y-4064000D01*
X9652000Y-4278000D02*
X9652000Y-4358000D01*
X9612000Y-4318000D02*
X9692000Y-4318000D01*
X9652000Y-4532000D02*
X9652000Y-4612000D01*
X9612000Y-4572000D02*
X9692000Y-4572000D01*
X9652000Y-4786000D02*
X9652000Y-4866000D01*
X9612000Y-4826000D02*
X9692000Y-4826000D01*
X9652000Y-5040000D02*
X9652000Y-5120000D01*
X9612000Y-5080000D02*
X9692000Y-5080000D01*
X9652000Y-5294000D02*
X9652000Y-5374000D01*
X9612000Y-5334000D02*
X9692000Y-5334000D01*
X9652000Y-5548000D02*
X9652000Y-5628000D01*
X9612000Y-5588000D02*
X9692000Y-5588000D01*
X9652000Y-5802000D02*
X9652000Y-5882000D01*
X9612000Y-5842000D02*
X9692000Y-5842000D01*
X9652000Y-6056000D02*
X9652000Y-6136000D01*
X9612000Y-6096000D02*
X9692000Y-6096000D01*
X9652000Y-6310000D02*
X9652000Y-6390000D01*
X9612000Y-6350000D02*
X9692000Y-6350000D01*
X9652000Y-6564000D02*
X9652000Y-6644000D01*
X9612000Y-6604000D02*
X9692000Y-6604000D01*
X9652000Y-6818000D02*
X9652000Y-6898000D01*
X9612000Y-6858000D02*
X9692000Y-6858000D01*
X9652000Y-7072000D02*
X9652000Y-7152000D01*
X9612000Y-7112000D02*
X9692000Y-7112000D01*
X9652000Y-7326000D02*
X9652000Y-7406000D01*
X9612000Y-7366000D02*
X9692000Y-7366000D01*
X9652000Y-9453500D02*
X9652000Y-9533500D01*
X9612000Y-9493500D02*
X9692000Y-9493500D01*
X9652000Y-10977500D02*
X9652000Y-11057500D01*
X9612000Y-11017500D02*
X9692000Y-11017500D01*
X9707500Y-3579500D02*
X9707500Y-3659500D01*
X9667500Y-3619500D02*
X9747500Y-3619500D01*
X9906000Y-7961000D02*
X9906000Y-8041000D01*
X9866000Y-8001000D02*
X9946000Y-8001000D01*
X9906000Y-8723000D02*
X9906000Y-8803000D01*
X9866000Y-8763000D02*
X9946000Y-8763000D01*
X9906000Y-9453500D02*
X9906000Y-9533500D01*
X9866000Y-9493500D02*
X9946000Y-9493500D01*
X9906000Y-10977500D02*
X9906000Y-11057500D01*
X9866000Y-11017500D02*
X9946000Y-11017500D01*
X10033000Y-3579500D02*
X10033000Y-3659500D01*
X9993000Y-3619500D02*
X10073000Y-3619500D01*
X10160000Y-7961000D02*
X10160000Y-8041000D01*
X10120000Y-8001000D02*
X10200000Y-8001000D01*
X10160000Y-8723000D02*
X10160000Y-8803000D01*
X10120000Y-8763000D02*
X10200000Y-8763000D01*
X10160000Y-9453500D02*
X10160000Y-9533500D01*
X10120000Y-9493500D02*
X10200000Y-9493500D01*
X10160000Y-10977500D02*
X10160000Y-11057500D01*
X10120000Y-11017500D02*
X10200000Y-11017500D01*
X10414000Y-7961000D02*
X10414000Y-8041000D01*
X10374000Y-8001000D02*
X10454000Y-8001000D01*
X10414000Y-8723000D02*
X10414000Y-8803000D01*
X10374000Y-8763000D02*
X10454000Y-8763000D01*
X10414000Y-9453500D02*
X10414000Y-9533500D01*
X10374000Y-9493500D02*
X10454000Y-9493500D01*
X10414000Y-10977500D02*
X10414000Y-11057500D01*
X10374000Y-11017500D02*
X10454000Y-11017500D01*
X10668000Y-7961000D02*
X10668000Y-8041000D01*
X10628000Y-8001000D02*
X10708000Y-8001000D01*
X10668000Y-8723000D02*
X10668000Y-8803000D01*
X10628000Y-8763000D02*
X10708000Y-8763000D01*
X10668000Y-9453500D02*
X10668000Y-9533500D01*
X10628000Y-9493500D02*
X10708000Y-9493500D01*
X10668000Y-10977500D02*
X10668000Y-11057500D01*
X10628000Y-11017500D02*
X10708000Y-11017500D01*
X10922000Y-7961000D02*
X10922000Y-8041000D01*
X10882000Y-8001000D02*
X10962000Y-8001000D01*
X10922000Y-8723000D02*
X10922000Y-8803000D01*
X10882000Y-8763000D02*
X10962000Y-8763000D01*
X10922000Y-9453500D02*
X10922000Y-9533500D01*
X10882000Y-9493500D02*
X10962000Y-9493500D01*
X10922000Y-10977500D02*
X10922000Y-11057500D01*
X10882000Y-11017500D02*
X10962000Y-11017500D01*
X11049000Y-3579500D02*
X11049000Y-3659500D01*
X11009000Y-3619500D02*
X11089000Y-3619500D01*
X11176000Y-4024000D02*
X11176000Y-4104000D01*
X11136000Y-4064000D02*
X11216000Y-4064000D01*
X11176000Y-4278000D02*
X11176000Y-4358000D01*
X11136000Y-4318000D02*
X11216000Y-4318000D01*
X11176000Y-4532000D02*
X11176000Y-4612000D01*
X11136000Y-4572000D02*
X11216000Y-4572000D01*
X11176000Y-4786000D02*
X11176000Y-4866000D01*
X11136000Y-4826000D02*
X11216000Y-4826000D01*
X11176000Y-5040000D02*
X11176000Y-5120000D01*
X11136000Y-5080000D02*
X11216000Y-5080000D01*
X11176000Y-5294000D02*
X11176000Y-5374000D01*
X11136000Y-5334000D02*
X11216000Y-5334000D01*
X11176000Y-5548000D02*
X11176000Y-5628000D01*
X11136000Y-5588000D02*
X11216000Y-5588000D01*
X11176000Y-5802000D02*
X11176000Y-5882000D01*
X11136000Y-5842000D02*
X11216000Y-5842000D01*
X11176000Y-6056000D02*
X11176000Y-6136000D01*
X11136000Y-6096000D02*
X11216000Y-6096000D01*
X11176000Y-6310000D02*
X11176000Y-6390000D01*
X11136000Y-6350000D02*
X11216000Y-6350000D01*
X11176000Y-6564000D02*
X11176000Y-6644000D01*
X11136000Y-6604000D02*
X11216000Y-6604000D01*
X11176000Y-6818000D02*
X11176000Y-6898000D01*
X11136000Y-6858000D02*
X11216000Y-6858000D01*
X11176000Y-7072000D02*
X11176000Y-7152000D01*
X11136000Y-7112000D02*
X11216000Y-7112000D01*
X11176000Y-7326000D02*
X11176000Y-7406000D01*
X11136000Y-7366000D02*
X11216000Y-7366000D01*
X11176000Y-7961000D02*
X11176000Y-8041000D01*
X11136000Y-8001000D02*
X11216000Y-8001000D01*
X11176000Y-8723000D02*
X11176000Y-8803000D01*
X11136000Y-8763000D02*
X11216000Y-8763000D01*
X11176000Y-9453500D02*
X11176000Y-9533500D01*
X11136000Y-9493500D02*
X11216000Y-9493500D01*
X11176000Y-10977500D02*
X11176000Y-11057500D01*
X11136000Y-11017500D02*
X11216000Y-11017500D01*
X11430000Y-3135000D02*
X11430000Y-3215000D01*
X11390000Y-3175000D02*
X11470000Y-3175000D01*
X11430000Y-3635000D02*
X11430000Y-3715000D01*
X11390000Y-3675000D02*
X11470000Y-3675000D01*
X11430000Y-7961000D02*
X11430000Y-8041000D01*
X11390000Y-8001000D02*
X11470000Y-8001000D01*
X11430000Y-8723000D02*
X11430000Y-8803000D01*
X11390000Y-8763000D02*
X11470000Y-8763000D01*
X11430000Y-9453500D02*
X11430000Y-9533500D01*
X11390000Y-9493500D02*
X11470000Y-9493500D01*
X11430000Y-10977500D02*
X11430000Y-11057500D01*
X11390000Y-11017500D02*
X11470000Y-11017500D01*
X11684000Y-4286000D02*
X11684000Y-4366000D01*
X11644000Y-4326000D02*
X11724000Y-4326000D01*
X11684000Y-4786000D02*
X11684000Y-4866000D01*
X11644000Y-4826000D02*
X11724000Y-4826000D01*
X11684000Y-5175000D02*
X11684000Y-5255000D01*
X11644000Y-5215000D02*
X11724000Y-5215000D01*
X11684000Y-5675000D02*
X11684000Y-5755000D01*
X11644000Y-5715000D02*
X11724000Y-5715000D01*
X11684000Y-6064000D02*
X11684000Y-6144000D01*
X11644000Y-6104000D02*
X11724000Y-6104000D01*
X11684000Y-6564000D02*
X11684000Y-6644000D01*
X11644000Y-6604000D02*
X11724000Y-6604000D01*
X11684000Y-6945000D02*
X11684000Y-7025000D01*
X11644000Y-6985000D02*
X11724000Y-6985000D01*
X11684000Y-7445000D02*
X11684000Y-7525000D01*
X11644000Y-7485000D02*
X11724000Y-7485000D01*
X11684000Y-7961000D02*
X11684000Y-8041000D01*
X11644000Y-8001000D02*
X11724000Y-8001000D01*
X11684000Y-8723000D02*
X11684000Y-8803000D01*
X11644000Y-8763000D02*
X11724000Y-8763000D01*
X11684000Y-9453500D02*
X11684000Y-9533500D01*
X11644000Y-9493500D02*
X11724000Y-9493500D01*
X11684000Y-10977500D02*
X11684000Y-11057500D01*
X11644000Y-11017500D02*
X11724000Y-11017500D01*
X11938000Y-9453500D02*
X11938000Y-9533500D01*
X11898000Y-9493500D02*
X11978000Y-9493500D01*
X11938000Y-10977500D02*
X11938000Y-11057500D01*
X11898000Y-11017500D02*
X11978000Y-11017500D01*
X12065000Y-2899000D02*
X12065000Y-2979000D01*
X12025000Y-2939000D02*
X12105000Y-2939000D01*
X12065000Y-3389000D02*
X12065000Y-3469000D01*
X12025000Y-3429000D02*
X12105000Y-3429000D01*
X12065000Y-4151000D02*
X12065000Y-4231000D01*
X12025000Y-4191000D02*
X12105000Y-4191000D01*
X12065000Y-4913000D02*
X12065000Y-4993000D01*
X12025000Y-4953000D02*
X12105000Y-4953000D01*
X12065000Y-5421000D02*
X12065000Y-5501000D01*
X12025000Y-5461000D02*
X12105000Y-5461000D01*
X12065000Y-6183000D02*
X12065000Y-6263000D01*
X12025000Y-6223000D02*
X12105000Y-6223000D01*
X12065000Y-6691000D02*
X12065000Y-6771000D01*
X12025000Y-6731000D02*
X12105000Y-6731000D01*
X12065000Y-7453000D02*
X12065000Y-7533000D01*
X12025000Y-7493000D02*
X12105000Y-7493000D01*
X12192000Y-8096000D02*
X12192000Y-8176000D01*
X12152000Y-8136000D02*
X12232000Y-8136000D01*
X12192000Y-8596000D02*
X12192000Y-8676000D01*
X12152000Y-8636000D02*
X12232000Y-8636000D01*
X12192000Y-9453500D02*
X12192000Y-9533500D01*
X12152000Y-9493500D02*
X12232000Y-9493500D01*
X12192000Y-10977500D02*
X12192000Y-11057500D01*
X12152000Y-11017500D02*
X12232000Y-11017500D01*
X12319000Y-4151000D02*
X12319000Y-4231000D01*
X12279000Y-4191000D02*
X12359000Y-4191000D01*
X12319000Y-4913000D02*
X12319000Y-4993000D01*
X12279000Y-4953000D02*
X12359000Y-4953000D01*
X12319000Y-5421000D02*
X12319000Y-5501000D01*
X12279000Y-5461000D02*
X12359000Y-5461000D01*
X12319000Y-6183000D02*
X12319000Y-6263000D01*
X12279000Y-6223000D02*
X12359000Y-6223000D01*
X12319000Y-6691000D02*
X12319000Y-6771000D01*
X12279000Y-6731000D02*
X12359000Y-6731000D01*
X12319000Y-7453000D02*
X12319000Y-7533000D01*
X12279000Y-7493000D02*
X12359000Y-7493000D01*
X12446000Y-9453500D02*
X12446000Y-9533500D01*
X12406000Y-9493500D02*
X12486000Y-9493500D01*
X12446000Y-10977500D02*
X12446000Y-11057500D01*
X12406000Y-11017500D02*
X12486000Y-11017500D01*
X12446000Y-11517000D02*
X12446000Y-11597000D01*
X12406000Y-11557000D02*
X12486000Y-11557000D01*
X12573000Y-4151000D02*
X12573000Y-4231000D01*
X12533000Y-4191000D02*
X12613000Y-4191000D01*
X12573000Y-4913000D02*
X12573000Y-4993000D01*
X12533000Y-4953000D02*
X12613000Y-4953000D01*
X12573000Y-5421000D02*
X12573000Y-5501000D01*
X12533000Y-5461000D02*
X12613000Y-5461000D01*
X12573000Y-6183000D02*
X12573000Y-6263000D01*
X12533000Y-6223000D02*
X12613000Y-6223000D01*
X12573000Y-6691000D02*
X12573000Y-6771000D01*
X12533000Y-6731000D02*
X12613000Y-6731000D01*
X12573000Y-7453000D02*
X12573000Y-7533000D01*
X12533000Y-7493000D02*
X12613000Y-7493000D01*
X12573000Y-7961000D02*
X12573000Y-8041000D01*
X12533000Y-8001000D02*
X12613000Y-8001000D01*
X12573000Y-8723000D02*
X12573000Y-8803000D01*
X12533000Y-8763000D02*
X12613000Y-8763000D01*
X12700000Y-2627000D02*
X12700000Y-2707000D01*
X12660000Y-2667000D02*
X12740000Y-2667000D01*
X12700000Y-3643000D02*
X12700000Y-3723000D01*
X12660000Y-3683000D02*
X12740000Y-3683000D01*
X12700000Y-9453500D02*
X12700000Y-9533500D01*
X12660000Y-9493500D02*
X12740000Y-9493500D01*
X12700000Y-10977500D02*
X12700000Y-11057500D01*
X12660000Y-11017500D02*
X12740000Y-11017500D01*
X12827000Y-4151000D02*
X12827000Y-4231000D01*
X12787000Y-4191000D02*
X12867000Y-4191000D01*
X12827000Y-4913000D02*
X12827000Y-4993000D01*
X12787000Y-4953000D02*
X12867000Y-4953000D01*
X12827000Y-5421000D02*
X12827000Y-5501000D01*
X12787000Y-5461000D02*
X12867000Y-5461000D01*
X12827000Y-6183000D02*
X12827000Y-6263000D01*
X12787000Y-6223000D02*
X12867000Y-6223000D01*
X12827000Y-6691000D02*
X12827000Y-6771000D01*
X12787000Y-6731000D02*
X12867000Y-6731000D01*
X12827000Y-7453000D02*
X12827000Y-7533000D01*
X12787000Y-7493000D02*
X12867000Y-7493000D01*
X12827000Y-7961000D02*
X12827000Y-8041000D01*
X12787000Y-8001000D02*
X12867000Y-8001000D01*
X12827000Y-8723000D02*
X12827000Y-8803000D01*
X12787000Y-8763000D02*
X12867000Y-8763000D01*
X12954000Y-9453500D02*
X12954000Y-9533500D01*
X12914000Y-9493500D02*
X12994000Y-9493500D01*
X12954000Y-10977500D02*
X12954000Y-11057500D01*
X12914000Y-11017500D02*
X12994000Y-11017500D01*
X13081000Y-4151000D02*
X13081000Y-4231000D01*
X13041000Y-4191000D02*
X13121000Y-4191000D01*
X13081000Y-4913000D02*
X13081000Y-4993000D01*
X13041000Y-4953000D02*
X13121000Y-4953000D01*
X13081000Y-5421000D02*
X13081000Y-5501000D01*
X13041000Y-5461000D02*
X13121000Y-5461000D01*
X13081000Y-6183000D02*
X13081000Y-6263000D01*
X13041000Y-6223000D02*
X13121000Y-6223000D01*
X13081000Y-6691000D02*
X13081000Y-6771000D01*
X13041000Y-6731000D02*
X13121000Y-6731000D01*
X13081000Y-7453000D02*
X13081000Y-7533000D01*
X13041000Y-7493000D02*
X13121000Y-7493000D01*
X13081000Y-7961000D02*
X13081000Y-8041000D01*
X13041000Y-8001000D02*
X13121000Y-8001000D01*
X13081000Y-8723000D02*
X13081000Y-8803000D01*
X13041000Y-8763000D02*
X13121000Y-8763000D01*
X13208000Y-9453500D02*
X13208000Y-9533500D01*
X13168000Y-9493500D02*
X13248000Y-9493500D01*
X13208000Y-10977500D02*
X13208000Y-11057500D01*
X13168000Y-11017500D02*
X13248000Y-11017500D01*
X13335000Y-3262000D02*
X13335000Y-3342000D01*
X13295000Y-3302000D02*
X13375000Y-3302000D01*
X13335000Y-3762000D02*
X13335000Y-3842000D01*
X13295000Y-3802000D02*
X13375000Y-3802000D01*
X13335000Y-4151000D02*
X13335000Y-4231000D01*
X13295000Y-4191000D02*
X13375000Y-4191000D01*
X13335000Y-4913000D02*
X13335000Y-4993000D01*
X13295000Y-4953000D02*
X13375000Y-4953000D01*
X13335000Y-5421000D02*
X13335000Y-5501000D01*
X13295000Y-5461000D02*
X13375000Y-5461000D01*
X13335000Y-6183000D02*
X13335000Y-6263000D01*
X13295000Y-6223000D02*
X13375000Y-6223000D01*
X13335000Y-6691000D02*
X13335000Y-6771000D01*
X13295000Y-6731000D02*
X13375000Y-6731000D01*
X13335000Y-7453000D02*
X13335000Y-7533000D01*
X13295000Y-7493000D02*
X13375000Y-7493000D01*
X13335000Y-7961000D02*
X13335000Y-8041000D01*
X13295000Y-8001000D02*
X13375000Y-8001000D01*
X13335000Y-8723000D02*
X13335000Y-8803000D01*
X13295000Y-8763000D02*
X13375000Y-8763000D01*
X13462000Y-9453500D02*
X13462000Y-9533500D01*
X13422000Y-9493500D02*
X13502000Y-9493500D01*
X13462000Y-10977500D02*
X13462000Y-11057500D01*
X13422000Y-11017500D02*
X13502000Y-11017500D01*
X13462000Y-11517000D02*
X13462000Y-11597000D01*
X13422000Y-11557000D02*
X13502000Y-11557000D01*
X13589000Y-4151000D02*
X13589000Y-4231000D01*
X13549000Y-4191000D02*
X13629000Y-4191000D01*
X13589000Y-4913000D02*
X13589000Y-4993000D01*
X13549000Y-4953000D02*
X13629000Y-4953000D01*
X13589000Y-5421000D02*
X13589000Y-5501000D01*
X13549000Y-5461000D02*
X13629000Y-5461000D01*
X13589000Y-6183000D02*
X13589000Y-6263000D01*
X13549000Y-6223000D02*
X13629000Y-6223000D01*
X13589000Y-6691000D02*
X13589000Y-6771000D01*
X13549000Y-6731000D02*
X13629000Y-6731000D01*
X13589000Y-7453000D02*
X13589000Y-7533000D01*
X13549000Y-7493000D02*
X13629000Y-7493000D01*
X13589000Y-7961000D02*
X13589000Y-8041000D01*
X13549000Y-8001000D02*
X13629000Y-8001000D01*
X13589000Y-8723000D02*
X13589000Y-8803000D01*
X13549000Y-8763000D02*
X13629000Y-8763000D01*
X13716000Y-9453500D02*
X13716000Y-9533500D01*
X13676000Y-9493500D02*
X13756000Y-9493500D01*
X13716000Y-10977500D02*
X13716000Y-11057500D01*
X13676000Y-11017500D02*
X13756000Y-11017500D01*
X13843000Y-3262000D02*
X13843000Y-3342000D01*
X13803000Y-3302000D02*
X13883000Y-3302000D01*
X13843000Y-3762000D02*
X13843000Y-3842000D01*
X13803000Y-3802000D02*
X13883000Y-3802000D01*
X13843000Y-7961000D02*
X13843000Y-8041000D01*
X13803000Y-8001000D02*
X13883000Y-8001000D01*
X13843000Y-8723000D02*
X13843000Y-8803000D01*
X13803000Y-8763000D02*
X13883000Y-8763000D01*
X13970000Y-9453500D02*
X13970000Y-9533500D01*
X13930000Y-9493500D02*
X14010000Y-9493500D01*
X13970000Y-10977500D02*
X13970000Y-11057500D01*
X13930000Y-11017500D02*
X14010000Y-11017500D01*
X13970000Y-11517000D02*
X13970000Y-11597000D01*
X13930000Y-11557000D02*
X14010000Y-11557000D01*
X14097000Y-7961000D02*
X14097000Y-8041000D01*
X14057000Y-8001000D02*
X14137000Y-8001000D01*
X14097000Y-8723000D02*
X14097000Y-8803000D01*
X14057000Y-8763000D02*
X14137000Y-8763000D01*
X14224000Y-5929000D02*
X14224000Y-6009000D01*
X14184000Y-5969000D02*
X14264000Y-5969000D01*
X14224000Y-6310000D02*
X14224000Y-6390000D01*
X14184000Y-6350000D02*
X14264000Y-6350000D01*
X14351000Y-9620000D02*
X14351000Y-9700000D01*
X14311000Y-9660000D02*
X14391000Y-9660000D01*
X14351000Y-10120000D02*
X14351000Y-10200000D01*
X14311000Y-10160000D02*
X14391000Y-10160000D01*
X14478000Y-2373000D02*
X14478000Y-2453000D01*
X14438000Y-2413000D02*
X14518000Y-2413000D01*
X14478000Y-3389000D02*
X14478000Y-3469000D01*
X14438000Y-3429000D02*
X14518000Y-3429000D01*
X14478000Y-3697000D02*
X14478000Y-3777000D01*
X14438000Y-3737000D02*
X14518000Y-3737000D01*
X14478000Y-3897000D02*
X14478000Y-3977000D01*
X14438000Y-3937000D02*
X14518000Y-3937000D01*
X14605000Y-7453000D02*
X14605000Y-7533000D01*
X14565000Y-7493000D02*
X14645000Y-7493000D01*
X14605000Y-7653000D02*
X14605000Y-7733000D01*
X14565000Y-7693000D02*
X14645000Y-7693000D01*
X14859000Y-2373000D02*
X14859000Y-2453000D01*
X14819000Y-2413000D02*
X14899000Y-2413000D01*
X14859000Y-3389000D02*
X14859000Y-3469000D01*
X14819000Y-3429000D02*
X14899000Y-3429000D01*
X14859000Y-6745000D02*
X14859000Y-6825000D01*
X14819000Y-6785000D02*
X14899000Y-6785000D01*
X14859000Y-6945000D02*
X14859000Y-7025000D01*
X14819000Y-6985000D02*
X14899000Y-6985000D01*
X14909800Y-8189600D02*
X14909800Y-8269600D01*
X14869800Y-8229600D02*
X14949800Y-8229600D01*
X14909800Y-8443600D02*
X14909800Y-8523600D01*
X14869800Y-8483600D02*
X14949800Y-8483600D01*
X14909800Y-8697600D02*
X14909800Y-8777600D01*
X14869800Y-8737600D02*
X14949800Y-8737600D01*
X14909800Y-8951600D02*
X14909800Y-9031600D01*
X14869800Y-8991600D02*
X14949800Y-8991600D01*
X14909800Y-9205600D02*
X14909800Y-9285600D01*
X14869800Y-9245600D02*
X14949800Y-9245600D01*
X14909800Y-9459600D02*
X14909800Y-9539600D01*
X14869800Y-9499600D02*
X14949800Y-9499600D01*
X14909800Y-9713600D02*
X14909800Y-9793600D01*
X14869800Y-9753600D02*
X14949800Y-9753600D01*
X14909800Y-9967600D02*
X14909800Y-10047600D01*
X14869800Y-10007600D02*
X14949800Y-10007600D01*
X14986000Y-11517000D02*
X14986000Y-11597000D01*
X14946000Y-11557000D02*
X15026000Y-11557000D01*
X15240000Y-3697000D02*
X15240000Y-3777000D01*
X15200000Y-3737000D02*
X15280000Y-3737000D01*
X15240000Y-3897000D02*
X15240000Y-3977000D01*
X15200000Y-3937000D02*
X15280000Y-3937000D01*
X15240000Y-4794000D02*
X15240000Y-4874000D01*
X15200000Y-4834000D02*
X15280000Y-4834000D01*
X15240000Y-5294000D02*
X15240000Y-5374000D01*
X15200000Y-5334000D02*
X15280000Y-5334000D01*
X15240000Y-5929000D02*
X15240000Y-6009000D01*
X15200000Y-5969000D02*
X15280000Y-5969000D01*
X15240000Y-6310000D02*
X15240000Y-6390000D01*
X15200000Y-6350000D02*
X15280000Y-6350000D01*
X15367000Y-2500000D02*
X15367000Y-2580000D01*
X15327000Y-2540000D02*
X15407000Y-2540000D01*
X15367000Y-3262000D02*
X15367000Y-3342000D01*
X15327000Y-3302000D02*
X15407000Y-3302000D01*
X15494000Y-7453000D02*
X15494000Y-7533000D01*
X15454000Y-7493000D02*
X15534000Y-7493000D01*
X15494000Y-7653000D02*
X15494000Y-7733000D01*
X15454000Y-7693000D02*
X15534000Y-7693000D01*
X15621000Y-2500000D02*
X15621000Y-2580000D01*
X15581000Y-2540000D02*
X15661000Y-2540000D01*
X15621000Y-3262000D02*
X15621000Y-3342000D01*
X15581000Y-3302000D02*
X15661000Y-3302000D01*
X15671800Y-8189600D02*
X15671800Y-8269600D01*
X15631800Y-8229600D02*
X15711800Y-8229600D01*
X15671800Y-8443600D02*
X15671800Y-8523600D01*
X15631800Y-8483600D02*
X15711800Y-8483600D01*
X15671800Y-8697600D02*
X15671800Y-8777600D01*
X15631800Y-8737600D02*
X15711800Y-8737600D01*
X15671800Y-8951600D02*
X15671800Y-9031600D01*
X15631800Y-8991600D02*
X15711800Y-8991600D01*
X15671800Y-9205600D02*
X15671800Y-9285600D01*
X15631800Y-9245600D02*
X15711800Y-9245600D01*
X15671800Y-9459600D02*
X15671800Y-9539600D01*
X15631800Y-9499600D02*
X15711800Y-9499600D01*
X15671800Y-9713600D02*
X15671800Y-9793600D01*
X15631800Y-9753600D02*
X15711800Y-9753600D01*
X15671800Y-9967600D02*
X15671800Y-10047600D01*
X15631800Y-10007600D02*
X15711800Y-10007600D01*
X15748000Y-5919500D02*
X15748000Y-5999500D01*
X15708000Y-5959500D02*
X15788000Y-5959500D01*
X15748000Y-6119500D02*
X15748000Y-6199500D01*
X15708000Y-6159500D02*
X15788000Y-6159500D01*
X15748000Y-6745000D02*
X15748000Y-6825000D01*
X15708000Y-6785000D02*
X15788000Y-6785000D01*
X15748000Y-6945000D02*
X15748000Y-7025000D01*
X15708000Y-6985000D02*
X15788000Y-6985000D01*
X15875000Y-2500000D02*
X15875000Y-2580000D01*
X15835000Y-2540000D02*
X15915000Y-2540000D01*
X15875000Y-3262000D02*
X15875000Y-3342000D01*
X15835000Y-3302000D02*
X15915000Y-3302000D01*
X16002000Y-3651000D02*
X16002000Y-3731000D01*
X15962000Y-3691000D02*
X16042000Y-3691000D01*
X16002000Y-4151000D02*
X16002000Y-4231000D01*
X15962000Y-4191000D02*
X16042000Y-4191000D01*
X16129000Y-2500000D02*
X16129000Y-2580000D01*
X16089000Y-2540000D02*
X16169000Y-2540000D01*
X16129000Y-3262000D02*
X16129000Y-3342000D01*
X16089000Y-3302000D02*
X16169000Y-3302000D01*
X15779820Y-11334820D02*
X15779820Y-11271180D01*
X15716180Y-11271180D01*
X15716180Y-11334820D01*
X15779820Y-11334820D01*
X15779820Y-11588820D02*
X15779820Y-11525180D01*
X15716180Y-11525180D01*
X15716180Y-11588820D01*
X15779820Y-11588820D01*
X16668820Y-11334820D02*
X16668820Y-11271180D01*
X16605180Y-11271180D01*
X16605180Y-11334820D01*
X16668820Y-11334820D01*
X16668820Y-11588820D02*
X16668820Y-11525180D01*
X16605180Y-11525180D01*
X16605180Y-11588820D01*
X16668820Y-11588820D01*
X16795820Y-2571820D02*
X16795820Y-2508180D01*
X16732180Y-2508180D01*
X16732180Y-2571820D01*
X16795820Y-2571820D01*
X16795820Y-2825820D02*
X16795820Y-2762180D01*
X16732180Y-2762180D01*
X16732180Y-2825820D01*
X16795820Y-2825820D01*
X16383000Y-6397500D02*
X16430500Y-6350000D01*
X16383000Y-6302500D01*
X16335500Y-6350000D01*
X16383000Y-6397500D01*
X16383000Y-6647500D02*
X16430500Y-6600000D01*
X16383000Y-6552500D01*
X16335500Y-6600000D01*
X16383000Y-6647500D01*
X16583000Y-6397500D02*
X16630500Y-6350000D01*
X16583000Y-6302500D01*
X16535500Y-6350000D01*
X16583000Y-6397500D01*
X16583000Y-6647500D02*
X16630500Y-6600000D01*
X16583000Y-6552500D01*
X16535500Y-6600000D01*
X16583000Y-6647500D01*
X3760000Y-11380000D02*
X3860000Y-11480000D01*
X3860000Y-11380000D02*
X3760000Y-11480000D01*
X3860000Y-11430000D02*
G75*
G03*
X3860000Y-11430000I-50000J0D01*
G01*
X3760000Y-11634000D02*
X3860000Y-11734000D01*
X3860000Y-11634000D02*
X3760000Y-11734000D01*
X3860000Y-11684000D02*
G75*
G03*
X3860000Y-11684000I-50000J0D01*
G01*
X4014000Y-11380000D02*
X4114000Y-11480000D01*
X4114000Y-11380000D02*
X4014000Y-11480000D01*
X4114000Y-11430000D02*
G75*
G03*
X4114000Y-11430000I-50000J0D01*
G01*
X4014000Y-11634000D02*
X4114000Y-11734000D01*
X4114000Y-11634000D02*
X4014000Y-11734000D01*
X4114000Y-11684000D02*
G75*
G03*
X4114000Y-11684000I-50000J0D01*
G01*
X4268000Y-11380000D02*
X4368000Y-11480000D01*
X4368000Y-11380000D02*
X4268000Y-11480000D01*
X4368000Y-11430000D02*
G75*
G03*
X4368000Y-11430000I-50000J0D01*
G01*
X4268000Y-11634000D02*
X4368000Y-11734000D01*
X4368000Y-11634000D02*
X4268000Y-11734000D01*
X4368000Y-11684000D02*
G75*
G03*
X4368000Y-11684000I-50000J0D01*
G01*
X4522000Y-11380000D02*
X4622000Y-11480000D01*
X4622000Y-11380000D02*
X4522000Y-11480000D01*
X4622000Y-11430000D02*
G75*
G03*
X4622000Y-11430000I-50000J0D01*
G01*
X4522000Y-11634000D02*
X4622000Y-11734000D01*
X4622000Y-11634000D02*
X4522000Y-11734000D01*
X4622000Y-11684000D02*
G75*
G03*
X4622000Y-11684000I-50000J0D01*
G01*
X4776000Y-11380000D02*
X4876000Y-11480000D01*
X4876000Y-11380000D02*
X4776000Y-11480000D01*
X4876000Y-11430000D02*
G75*
G03*
X4876000Y-11430000I-50000J0D01*
G01*
X4776000Y-11634000D02*
X4876000Y-11734000D01*
X4876000Y-11634000D02*
X4776000Y-11734000D01*
X4876000Y-11684000D02*
G75*
G03*
X4876000Y-11684000I-50000J0D01*
G01*
X5030000Y-4395000D02*
X5130000Y-4495000D01*
X5130000Y-4395000D02*
X5030000Y-4495000D01*
X5130000Y-4445000D02*
G75*
G03*
X5130000Y-4445000I-50000J0D01*
G01*
X5030000Y-4649000D02*
X5130000Y-4749000D01*
X5130000Y-4649000D02*
X5030000Y-4749000D01*
X5130000Y-4699000D02*
G75*
G03*
X5130000Y-4699000I-50000J0D01*
G01*
X5030000Y-4903000D02*
X5130000Y-5003000D01*
X5130000Y-4903000D02*
X5030000Y-5003000D01*
X5130000Y-4953000D02*
G75*
G03*
X5130000Y-4953000I-50000J0D01*
G01*
X5030000Y-5157000D02*
X5130000Y-5257000D01*
X5130000Y-5157000D02*
X5030000Y-5257000D01*
X5130000Y-5207000D02*
G75*
G03*
X5130000Y-5207000I-50000J0D01*
G01*
X5030000Y-5411000D02*
X5130000Y-5511000D01*
X5130000Y-5411000D02*
X5030000Y-5511000D01*
X5130000Y-5461000D02*
G75*
G03*
X5130000Y-5461000I-50000J0D01*
G01*
X5030000Y-5665000D02*
X5130000Y-5765000D01*
X5130000Y-5665000D02*
X5030000Y-5765000D01*
X5130000Y-5715000D02*
G75*
G03*
X5130000Y-5715000I-50000J0D01*
G01*
X5030000Y-5919000D02*
X5130000Y-6019000D01*
X5130000Y-5919000D02*
X5030000Y-6019000D01*
X5130000Y-5969000D02*
G75*
G03*
X5130000Y-5969000I-50000J0D01*
G01*
X5030000Y-6173000D02*
X5130000Y-6273000D01*
X5130000Y-6173000D02*
X5030000Y-6273000D01*
X5130000Y-6223000D02*
G75*
G03*
X5130000Y-6223000I-50000J0D01*
G01*
X5030000Y-6427000D02*
X5130000Y-6527000D01*
X5130000Y-6427000D02*
X5030000Y-6527000D01*
X5130000Y-6477000D02*
G75*
G03*
X5130000Y-6477000I-50000J0D01*
G01*
X5030000Y-6681000D02*
X5130000Y-6781000D01*
X5130000Y-6681000D02*
X5030000Y-6781000D01*
X5130000Y-6731000D02*
G75*
G03*
X5130000Y-6731000I-50000J0D01*
G01*
X5030000Y-6935000D02*
X5130000Y-7035000D01*
X5130000Y-6935000D02*
X5030000Y-7035000D01*
X5130000Y-6985000D02*
G75*
G03*
X5130000Y-6985000I-50000J0D01*
G01*
X5030000Y-7189000D02*
X5130000Y-7289000D01*
X5130000Y-7189000D02*
X5030000Y-7289000D01*
X5130000Y-7239000D02*
G75*
G03*
X5130000Y-7239000I-50000J0D01*
G01*
X5030000Y-7443000D02*
X5130000Y-7543000D01*
X5130000Y-7443000D02*
X5030000Y-7543000D01*
X5130000Y-7493000D02*
G75*
G03*
X5130000Y-7493000I-50000J0D01*
G01*
X5030000Y-7697000D02*
X5130000Y-7797000D01*
X5130000Y-7697000D02*
X5030000Y-7797000D01*
X5130000Y-7747000D02*
G75*
G03*
X5130000Y-7747000I-50000J0D01*
G01*
X5030000Y-11380000D02*
X5130000Y-11480000D01*
X5130000Y-11380000D02*
X5030000Y-11480000D01*
X5130000Y-11430000D02*
G75*
G03*
X5130000Y-11430000I-50000J0D01*
G01*
X5030000Y-11634000D02*
X5130000Y-11734000D01*
X5130000Y-11634000D02*
X5030000Y-11734000D01*
X5130000Y-11684000D02*
G75*
G03*
X5130000Y-11684000I-50000J0D01*
G01*
X5284000Y-11380000D02*
X5384000Y-11480000D01*
X5384000Y-11380000D02*
X5284000Y-11480000D01*
X5384000Y-11430000D02*
G75*
G03*
X5384000Y-11430000I-50000J0D01*
G01*
X5284000Y-11634000D02*
X5384000Y-11734000D01*
X5384000Y-11634000D02*
X5284000Y-11734000D01*
X5384000Y-11684000D02*
G75*
G03*
X5384000Y-11684000I-50000J0D01*
G01*
X5538000Y-11380000D02*
X5638000Y-11480000D01*
X5638000Y-11380000D02*
X5538000Y-11480000D01*
X5638000Y-11430000D02*
G75*
G03*
X5638000Y-11430000I-50000J0D01*
G01*
X5538000Y-11634000D02*
X5638000Y-11734000D01*
X5638000Y-11634000D02*
X5538000Y-11734000D01*
X5638000Y-11684000D02*
G75*
G03*
X5638000Y-11684000I-50000J0D01*
G01*
X5792000Y-11380000D02*
X5892000Y-11480000D01*
X5892000Y-11380000D02*
X5792000Y-11480000D01*
X5892000Y-11430000D02*
G75*
G03*
X5892000Y-11430000I-50000J0D01*
G01*
X5792000Y-11634000D02*
X5892000Y-11734000D01*
X5892000Y-11634000D02*
X5792000Y-11734000D01*
X5892000Y-11684000D02*
G75*
G03*
X5892000Y-11684000I-50000J0D01*
G01*
X6046000Y-11380000D02*
X6146000Y-11480000D01*
X6146000Y-11380000D02*
X6046000Y-11480000D01*
X6146000Y-11430000D02*
G75*
G03*
X6146000Y-11430000I-50000J0D01*
G01*
X6046000Y-11634000D02*
X6146000Y-11734000D01*
X6146000Y-11634000D02*
X6046000Y-11734000D01*
X6146000Y-11684000D02*
G75*
G03*
X6146000Y-11684000I-50000J0D01*
G01*
X6300000Y-11380000D02*
X6400000Y-11480000D01*
X6400000Y-11380000D02*
X6300000Y-11480000D01*
X6400000Y-11430000D02*
G75*
G03*
X6400000Y-11430000I-50000J0D01*
G01*
X6300000Y-11634000D02*
X6400000Y-11734000D01*
X6400000Y-11634000D02*
X6300000Y-11734000D01*
X6400000Y-11684000D02*
G75*
G03*
X6400000Y-11684000I-50000J0D01*
G01*
X6554000Y-4395000D02*
X6654000Y-4495000D01*
X6654000Y-4395000D02*
X6554000Y-4495000D01*
X6654000Y-4445000D02*
G75*
G03*
X6654000Y-4445000I-50000J0D01*
G01*
X6554000Y-4649000D02*
X6654000Y-4749000D01*
X6654000Y-4649000D02*
X6554000Y-4749000D01*
X6654000Y-4699000D02*
G75*
G03*
X6654000Y-4699000I-50000J0D01*
G01*
X6554000Y-4903000D02*
X6654000Y-5003000D01*
X6654000Y-4903000D02*
X6554000Y-5003000D01*
X6654000Y-4953000D02*
G75*
G03*
X6654000Y-4953000I-50000J0D01*
G01*
X6554000Y-5157000D02*
X6654000Y-5257000D01*
X6654000Y-5157000D02*
X6554000Y-5257000D01*
X6654000Y-5207000D02*
G75*
G03*
X6654000Y-5207000I-50000J0D01*
G01*
X6554000Y-5411000D02*
X6654000Y-5511000D01*
X6654000Y-5411000D02*
X6554000Y-5511000D01*
X6654000Y-5461000D02*
G75*
G03*
X6654000Y-5461000I-50000J0D01*
G01*
X6554000Y-5665000D02*
X6654000Y-5765000D01*
X6654000Y-5665000D02*
X6554000Y-5765000D01*
X6654000Y-5715000D02*
G75*
G03*
X6654000Y-5715000I-50000J0D01*
G01*
X6554000Y-5919000D02*
X6654000Y-6019000D01*
X6654000Y-5919000D02*
X6554000Y-6019000D01*
X6654000Y-5969000D02*
G75*
G03*
X6654000Y-5969000I-50000J0D01*
G01*
X6554000Y-6173000D02*
X6654000Y-6273000D01*
X6654000Y-6173000D02*
X6554000Y-6273000D01*
X6654000Y-6223000D02*
G75*
G03*
X6654000Y-6223000I-50000J0D01*
G01*
X6554000Y-6427000D02*
X6654000Y-6527000D01*
X6654000Y-6427000D02*
X6554000Y-6527000D01*
X6654000Y-6477000D02*
G75*
G03*
X6654000Y-6477000I-50000J0D01*
G01*
X6554000Y-6681000D02*
X6654000Y-6781000D01*
X6654000Y-6681000D02*
X6554000Y-6781000D01*
X6654000Y-6731000D02*
G75*
G03*
X6654000Y-6731000I-50000J0D01*
G01*
X6554000Y-6935000D02*
X6654000Y-7035000D01*
X6654000Y-6935000D02*
X6554000Y-7035000D01*
X6654000Y-6985000D02*
G75*
G03*
X6654000Y-6985000I-50000J0D01*
G01*
X6554000Y-7189000D02*
X6654000Y-7289000D01*
X6654000Y-7189000D02*
X6554000Y-7289000D01*
X6654000Y-7239000D02*
G75*
G03*
X6654000Y-7239000I-50000J0D01*
G01*
X6554000Y-7443000D02*
X6654000Y-7543000D01*
X6654000Y-7443000D02*
X6554000Y-7543000D01*
X6654000Y-7493000D02*
G75*
G03*
X6654000Y-7493000I-50000J0D01*
G01*
X6554000Y-7697000D02*
X6654000Y-7797000D01*
X6654000Y-7697000D02*
X6554000Y-7797000D01*
X6654000Y-7747000D02*
G75*
G03*
X6654000Y-7747000I-50000J0D01*
G01*
X6554000Y-11380000D02*
X6654000Y-11480000D01*
X6654000Y-11380000D02*
X6554000Y-11480000D01*
X6654000Y-11430000D02*
G75*
G03*
X6654000Y-11430000I-50000J0D01*
G01*
X6554000Y-11634000D02*
X6654000Y-11734000D01*
X6654000Y-11634000D02*
X6554000Y-11734000D01*
X6654000Y-11684000D02*
G75*
G03*
X6654000Y-11684000I-50000J0D01*
G01*
X7443000Y-2363000D02*
X7543000Y-2463000D01*
X7543000Y-2363000D02*
X7443000Y-2463000D01*
X7543000Y-2413000D02*
G75*
G03*
X7543000Y-2413000I-50000J0D01*
G01*
X7443000Y-2617000D02*
X7543000Y-2717000D01*
X7543000Y-2617000D02*
X7443000Y-2717000D01*
X7543000Y-2667000D02*
G75*
G03*
X7543000Y-2667000I-50000J0D01*
G01*
X7697000Y-2363000D02*
X7797000Y-2463000D01*
X7797000Y-2363000D02*
X7697000Y-2463000D01*
X7797000Y-2413000D02*
G75*
G03*
X7797000Y-2413000I-50000J0D01*
G01*
X7697000Y-2617000D02*
X7797000Y-2717000D01*
X7797000Y-2617000D02*
X7697000Y-2717000D01*
X7797000Y-2667000D02*
G75*
G03*
X7797000Y-2667000I-50000J0D01*
G01*
X7951000Y-2363000D02*
X8051000Y-2463000D01*
X8051000Y-2363000D02*
X7951000Y-2463000D01*
X8051000Y-2413000D02*
G75*
G03*
X8051000Y-2413000I-50000J0D01*
G01*
X7951000Y-2617000D02*
X8051000Y-2717000D01*
X8051000Y-2617000D02*
X7951000Y-2717000D01*
X8051000Y-2667000D02*
G75*
G03*
X8051000Y-2667000I-50000J0D01*
G01*
X8205000Y-2363000D02*
X8305000Y-2463000D01*
X8305000Y-2363000D02*
X8205000Y-2463000D01*
X8305000Y-2413000D02*
G75*
G03*
X8305000Y-2413000I-50000J0D01*
G01*
X8205000Y-2617000D02*
X8305000Y-2717000D01*
X8305000Y-2617000D02*
X8205000Y-2717000D01*
X8305000Y-2667000D02*
G75*
G03*
X8305000Y-2667000I-50000J0D01*
G01*
X8459000Y-2363000D02*
X8559000Y-2463000D01*
X8559000Y-2363000D02*
X8459000Y-2463000D01*
X8559000Y-2413000D02*
G75*
G03*
X8559000Y-2413000I-50000J0D01*
G01*
X8459000Y-2617000D02*
X8559000Y-2717000D01*
X8559000Y-2617000D02*
X8459000Y-2717000D01*
X8559000Y-2667000D02*
G75*
G03*
X8559000Y-2667000I-50000J0D01*
G01*
X8713000Y-2363000D02*
X8813000Y-2463000D01*
X8813000Y-2363000D02*
X8713000Y-2463000D01*
X8813000Y-2413000D02*
G75*
G03*
X8813000Y-2413000I-50000J0D01*
G01*
X8713000Y-2617000D02*
X8813000Y-2717000D01*
X8813000Y-2617000D02*
X8713000Y-2717000D01*
X8813000Y-2667000D02*
G75*
G03*
X8813000Y-2667000I-50000J0D01*
G01*
X8967000Y-2363000D02*
X9067000Y-2463000D01*
X9067000Y-2363000D02*
X8967000Y-2463000D01*
X9067000Y-2413000D02*
G75*
G03*
X9067000Y-2413000I-50000J0D01*
G01*
X8967000Y-2617000D02*
X9067000Y-2717000D01*
X9067000Y-2617000D02*
X8967000Y-2717000D01*
X9067000Y-2667000D02*
G75*
G03*
X9067000Y-2667000I-50000J0D01*
G01*
X9094000Y-11380000D02*
X9194000Y-11480000D01*
X9194000Y-11380000D02*
X9094000Y-11480000D01*
X9194000Y-11430000D02*
G75*
G03*
X9194000Y-11430000I-50000J0D01*
G01*
X9094000Y-11634000D02*
X9194000Y-11734000D01*
X9194000Y-11634000D02*
X9094000Y-11734000D01*
X9194000Y-11684000D02*
G75*
G03*
X9194000Y-11684000I-50000J0D01*
G01*
X9221000Y-2363000D02*
X9321000Y-2463000D01*
X9321000Y-2363000D02*
X9221000Y-2463000D01*
X9321000Y-2413000D02*
G75*
G03*
X9321000Y-2413000I-50000J0D01*
G01*
X9221000Y-2617000D02*
X9321000Y-2717000D01*
X9321000Y-2617000D02*
X9221000Y-2717000D01*
X9321000Y-2667000D02*
G75*
G03*
X9321000Y-2667000I-50000J0D01*
G01*
X9348000Y-11380000D02*
X9448000Y-11480000D01*
X9448000Y-11380000D02*
X9348000Y-11480000D01*
X9448000Y-11430000D02*
G75*
G03*
X9448000Y-11430000I-50000J0D01*
G01*
X9348000Y-11634000D02*
X9448000Y-11734000D01*
X9448000Y-11634000D02*
X9348000Y-11734000D01*
X9448000Y-11684000D02*
G75*
G03*
X9448000Y-11684000I-50000J0D01*
G01*
X9475000Y-2363000D02*
X9575000Y-2463000D01*
X9575000Y-2363000D02*
X9475000Y-2463000D01*
X9575000Y-2413000D02*
G75*
G03*
X9575000Y-2413000I-50000J0D01*
G01*
X9475000Y-2617000D02*
X9575000Y-2717000D01*
X9575000Y-2617000D02*
X9475000Y-2717000D01*
X9575000Y-2667000D02*
G75*
G03*
X9575000Y-2667000I-50000J0D01*
G01*
X9602000Y-11380000D02*
X9702000Y-11480000D01*
X9702000Y-11380000D02*
X9602000Y-11480000D01*
X9702000Y-11430000D02*
G75*
G03*
X9702000Y-11430000I-50000J0D01*
G01*
X9602000Y-11634000D02*
X9702000Y-11734000D01*
X9702000Y-11634000D02*
X9602000Y-11734000D01*
X9702000Y-11684000D02*
G75*
G03*
X9702000Y-11684000I-50000J0D01*
G01*
X9729000Y-2363000D02*
X9829000Y-2463000D01*
X9829000Y-2363000D02*
X9729000Y-2463000D01*
X9829000Y-2413000D02*
G75*
G03*
X9829000Y-2413000I-50000J0D01*
G01*
X9729000Y-2617000D02*
X9829000Y-2717000D01*
X9829000Y-2617000D02*
X9729000Y-2717000D01*
X9829000Y-2667000D02*
G75*
G03*
X9829000Y-2667000I-50000J0D01*
G01*
X9856000Y-11380000D02*
X9956000Y-11480000D01*
X9956000Y-11380000D02*
X9856000Y-11480000D01*
X9956000Y-11430000D02*
G75*
G03*
X9956000Y-11430000I-50000J0D01*
G01*
X9856000Y-11634000D02*
X9956000Y-11734000D01*
X9956000Y-11634000D02*
X9856000Y-11734000D01*
X9956000Y-11684000D02*
G75*
G03*
X9956000Y-11684000I-50000J0D01*
G01*
X9983000Y-2363000D02*
X10083000Y-2463000D01*
X10083000Y-2363000D02*
X9983000Y-2463000D01*
X10083000Y-2413000D02*
G75*
G03*
X10083000Y-2413000I-50000J0D01*
G01*
X9983000Y-2617000D02*
X10083000Y-2717000D01*
X10083000Y-2617000D02*
X9983000Y-2717000D01*
X10083000Y-2667000D02*
G75*
G03*
X10083000Y-2667000I-50000J0D01*
G01*
X10110000Y-11380000D02*
X10210000Y-11480000D01*
X10210000Y-11380000D02*
X10110000Y-11480000D01*
X10210000Y-11430000D02*
G75*
G03*
X10210000Y-11430000I-50000J0D01*
G01*
X10110000Y-11634000D02*
X10210000Y-11734000D01*
X10210000Y-11634000D02*
X10110000Y-11734000D01*
X10210000Y-11684000D02*
G75*
G03*
X10210000Y-11684000I-50000J0D01*
G01*
X10237000Y-2363000D02*
X10337000Y-2463000D01*
X10337000Y-2363000D02*
X10237000Y-2463000D01*
X10337000Y-2413000D02*
G75*
G03*
X10337000Y-2413000I-50000J0D01*
G01*
X10237000Y-2617000D02*
X10337000Y-2717000D01*
X10337000Y-2617000D02*
X10237000Y-2717000D01*
X10337000Y-2667000D02*
G75*
G03*
X10337000Y-2667000I-50000J0D01*
G01*
X10364000Y-11380000D02*
X10464000Y-11480000D01*
X10464000Y-11380000D02*
X10364000Y-11480000D01*
X10464000Y-11430000D02*
G75*
G03*
X10464000Y-11430000I-50000J0D01*
G01*
X10364000Y-11634000D02*
X10464000Y-11734000D01*
X10464000Y-11634000D02*
X10364000Y-11734000D01*
X10464000Y-11684000D02*
G75*
G03*
X10464000Y-11684000I-50000J0D01*
G01*
X10491000Y-2363000D02*
X10591000Y-2463000D01*
X10591000Y-2363000D02*
X10491000Y-2463000D01*
X10591000Y-2413000D02*
G75*
G03*
X10591000Y-2413000I-50000J0D01*
G01*
X10491000Y-2617000D02*
X10591000Y-2717000D01*
X10591000Y-2617000D02*
X10491000Y-2717000D01*
X10591000Y-2667000D02*
G75*
G03*
X10591000Y-2667000I-50000J0D01*
G01*
X10618000Y-11380000D02*
X10718000Y-11480000D01*
X10718000Y-11380000D02*
X10618000Y-11480000D01*
X10718000Y-11430000D02*
G75*
G03*
X10718000Y-11430000I-50000J0D01*
G01*
X10618000Y-11634000D02*
X10718000Y-11734000D01*
X10718000Y-11634000D02*
X10618000Y-11734000D01*
X10718000Y-11684000D02*
G75*
G03*
X10718000Y-11684000I-50000J0D01*
G01*
X10745000Y-2363000D02*
X10845000Y-2463000D01*
X10845000Y-2363000D02*
X10745000Y-2463000D01*
X10845000Y-2413000D02*
G75*
G03*
X10845000Y-2413000I-50000J0D01*
G01*
X10745000Y-2617000D02*
X10845000Y-2717000D01*
X10845000Y-2617000D02*
X10745000Y-2717000D01*
X10845000Y-2667000D02*
G75*
G03*
X10845000Y-2667000I-50000J0D01*
G01*
X10872000Y-11380000D02*
X10972000Y-11480000D01*
X10972000Y-11380000D02*
X10872000Y-11480000D01*
X10972000Y-11430000D02*
G75*
G03*
X10972000Y-11430000I-50000J0D01*
G01*
X10872000Y-11634000D02*
X10972000Y-11734000D01*
X10972000Y-11634000D02*
X10872000Y-11734000D01*
X10972000Y-11684000D02*
G75*
G03*
X10972000Y-11684000I-50000J0D01*
G01*
X10999000Y-2363000D02*
X11099000Y-2463000D01*
X11099000Y-2363000D02*
X10999000Y-2463000D01*
X11099000Y-2413000D02*
G75*
G03*
X11099000Y-2413000I-50000J0D01*
G01*
X10999000Y-2617000D02*
X11099000Y-2717000D01*
X11099000Y-2617000D02*
X10999000Y-2717000D01*
X11099000Y-2667000D02*
G75*
G03*
X11099000Y-2667000I-50000J0D01*
G01*
X11126000Y-11380000D02*
X11226000Y-11480000D01*
X11226000Y-11380000D02*
X11126000Y-11480000D01*
X11226000Y-11430000D02*
G75*
G03*
X11226000Y-11430000I-50000J0D01*
G01*
X11126000Y-11634000D02*
X11226000Y-11734000D01*
X11226000Y-11634000D02*
X11126000Y-11734000D01*
X11226000Y-11684000D02*
G75*
G03*
X11226000Y-11684000I-50000J0D01*
G01*
X11253000Y-2363000D02*
X11353000Y-2463000D01*
X11353000Y-2363000D02*
X11253000Y-2463000D01*
X11353000Y-2413000D02*
G75*
G03*
X11353000Y-2413000I-50000J0D01*
G01*
X11253000Y-2617000D02*
X11353000Y-2717000D01*
X11353000Y-2617000D02*
X11253000Y-2717000D01*
X11353000Y-2667000D02*
G75*
G03*
X11353000Y-2667000I-50000J0D01*
G01*
X11380000Y-11380000D02*
X11480000Y-11480000D01*
X11480000Y-11380000D02*
X11380000Y-11480000D01*
X11480000Y-11430000D02*
G75*
G03*
X11480000Y-11430000I-50000J0D01*
G01*
X11380000Y-11634000D02*
X11480000Y-11734000D01*
X11480000Y-11634000D02*
X11380000Y-11734000D01*
X11480000Y-11684000D02*
G75*
G03*
X11480000Y-11684000I-50000J0D01*
G01*
X11634000Y-11380000D02*
X11734000Y-11480000D01*
X11734000Y-11380000D02*
X11634000Y-11480000D01*
X11734000Y-11430000D02*
G75*
G03*
X11734000Y-11430000I-50000J0D01*
G01*
X11634000Y-11634000D02*
X11734000Y-11734000D01*
X11734000Y-11634000D02*
X11634000Y-11734000D01*
X11734000Y-11684000D02*
G75*
G03*
X11734000Y-11684000I-50000J0D01*
G01*
X11888000Y-11380000D02*
X11988000Y-11480000D01*
X11988000Y-11380000D02*
X11888000Y-11480000D01*
X11988000Y-11430000D02*
G75*
G03*
X11988000Y-11430000I-50000J0D01*
G01*
X11888000Y-11634000D02*
X11988000Y-11734000D01*
X11988000Y-11634000D02*
X11888000Y-11734000D01*
X11988000Y-11684000D02*
G75*
G03*
X11988000Y-11684000I-50000J0D01*
G01*
X14174000Y-4979200D02*
X14274000Y-5079200D01*
X14274000Y-4979200D02*
X14174000Y-5079200D01*
X14274000Y-5029200D02*
G75*
G03*
X14274000Y-5029200I-50000J0D01*
G01*
X14174000Y-5233200D02*
X14274000Y-5333200D01*
X14274000Y-5233200D02*
X14174000Y-5333200D01*
X14274000Y-5283200D02*
G75*
G03*
X14274000Y-5283200I-50000J0D01*
G01*
X14174000Y-5487200D02*
X14274000Y-5587200D01*
X14274000Y-5487200D02*
X14174000Y-5587200D01*
X14274000Y-5537200D02*
G75*
G03*
X14274000Y-5537200I-50000J0D01*
G01*
X14555000Y-10618000D02*
X14655000Y-10718000D01*
X14655000Y-10618000D02*
X14555000Y-10718000D01*
X14655000Y-10668000D02*
G75*
G03*
X14655000Y-10668000I-50000J0D01*
G01*
X14809000Y-10618000D02*
X14909000Y-10718000D01*
X14909000Y-10618000D02*
X14809000Y-10718000D01*
X14909000Y-10668000D02*
G75*
G03*
X14909000Y-10668000I-50000J0D01*
G01*
X15063000Y-10618000D02*
X15163000Y-10718000D01*
X15163000Y-10618000D02*
X15063000Y-10718000D01*
X15163000Y-10668000D02*
G75*
G03*
X15163000Y-10668000I-50000J0D01*
G01*
X15698000Y-10618000D02*
X15798000Y-10718000D01*
X15798000Y-10618000D02*
X15698000Y-10718000D01*
X15798000Y-10668000D02*
G75*
G03*
X15798000Y-10668000I-50000J0D01*
G01*
X15952000Y-10618000D02*
X16052000Y-10718000D01*
X16052000Y-10618000D02*
X15952000Y-10718000D01*
X16052000Y-10668000D02*
G75*
G03*
X16052000Y-10668000I-50000J0D01*
G01*
X16206000Y-9094000D02*
X16306000Y-9194000D01*
X16306000Y-9094000D02*
X16206000Y-9194000D01*
X16306000Y-9144000D02*
G75*
G03*
X16306000Y-9144000I-50000J0D01*
G01*
X16206000Y-9348000D02*
X16306000Y-9448000D01*
X16306000Y-9348000D02*
X16206000Y-9448000D01*
X16306000Y-9398000D02*
G75*
G03*
X16306000Y-9398000I-50000J0D01*
G01*
X16206000Y-9602000D02*
X16306000Y-9702000D01*
X16306000Y-9602000D02*
X16206000Y-9702000D01*
X16306000Y-9652000D02*
G75*
G03*
X16306000Y-9652000I-50000J0D01*
G01*
X16206000Y-9856000D02*
X16306000Y-9956000D01*
X16306000Y-9856000D02*
X16206000Y-9956000D01*
X16306000Y-9906000D02*
G75*
G03*
X16306000Y-9906000I-50000J0D01*
G01*
X16206000Y-10618000D02*
X16306000Y-10718000D01*
X16306000Y-10618000D02*
X16206000Y-10718000D01*
X16306000Y-10668000D02*
G75*
G03*
X16306000Y-10668000I-50000J0D01*
G01*
X16523500Y-3760000D02*
X16623500Y-3860000D01*
X16623500Y-3760000D02*
X16523500Y-3860000D01*
X16623500Y-3810000D02*
G75*
G03*
X16623500Y-3810000I-50000J0D01*
G01*
X16613500Y-3910000D02*
X16613500Y-3710000D01*
X16533500Y-3910000D02*
X16533500Y-3710000D01*
X16613500Y-3710000D02*
G75*
G03*
X16533500Y-3710000I-40000J0D01*
G01*
X16533500Y-3910000D02*
G75*
G03*
X16613500Y-3910000I40000J0D01*
G01*
X16823500Y-3290000D02*
X16923500Y-3390000D01*
X16923500Y-3290000D02*
X16823500Y-3390000D01*
X16923500Y-3340000D02*
G75*
G03*
X16923500Y-3340000I-50000J0D01*
G01*
X16973500Y-3300000D02*
X16773500Y-3300000D01*
X16973500Y-3380000D02*
X16773500Y-3380000D01*
X16773500Y-3300000D02*
G75*
G03*
X16773500Y-3380000I0J-40000D01*
G01*
X16973500Y-3380000D02*
G75*
G03*
X16973500Y-3300000I0J40000D01*
G01*
X16841000Y-8459000D02*
X16941000Y-8559000D01*
X16941000Y-8459000D02*
X16841000Y-8559000D01*
X16941000Y-8509000D02*
G75*
G03*
X16941000Y-8509000I-50000J0D01*
G01*
X16841000Y-8736000D02*
X16941000Y-8836000D01*
X16941000Y-8736000D02*
X16841000Y-8836000D01*
X16941000Y-8786000D02*
G75*
G03*
X16941000Y-8786000I-50000J0D01*
G01*
X16841000Y-9013000D02*
X16941000Y-9113000D01*
X16941000Y-9013000D02*
X16841000Y-9113000D01*
X16941000Y-9063000D02*
G75*
G03*
X16941000Y-9063000I-50000J0D01*
G01*
X16841000Y-9290000D02*
X16941000Y-9390000D01*
X16941000Y-9290000D02*
X16841000Y-9390000D01*
X16941000Y-9340000D02*
G75*
G03*
X16941000Y-9340000I-50000J0D01*
G01*
X16841000Y-9567000D02*
X16941000Y-9667000D01*
X16941000Y-9567000D02*
X16841000Y-9667000D01*
X16941000Y-9617000D02*
G75*
G03*
X16941000Y-9617000I-50000J0D01*
G01*
X17123500Y-3760000D02*
X17223500Y-3860000D01*
X17223500Y-3760000D02*
X17123500Y-3860000D01*
X17223500Y-3810000D02*
G75*
G03*
X17223500Y-3810000I-50000J0D01*
G01*
X17213500Y-3910000D02*
X17213500Y-3710000D01*
X17133500Y-3910000D02*
X17133500Y-3710000D01*
X17213500Y-3710000D02*
G75*
G03*
X17133500Y-3710000I-40000J0D01*
G01*
X17133500Y-3910000D02*
G75*
G03*
X17213500Y-3910000I40000J0D01*
G01*
X17125000Y-8597500D02*
X17225000Y-8697500D01*
X17225000Y-8597500D02*
X17125000Y-8697500D01*
X17225000Y-8647500D02*
G75*
G03*
X17225000Y-8647500I-50000J0D01*
G01*
X17125000Y-8874500D02*
X17225000Y-8974500D01*
X17225000Y-8874500D02*
X17125000Y-8974500D01*
X17225000Y-8924500D02*
G75*
G03*
X17225000Y-8924500I-50000J0D01*
G01*
X17125000Y-9151500D02*
X17225000Y-9251500D01*
X17225000Y-9151500D02*
X17125000Y-9251500D01*
X17225000Y-9201500D02*
G75*
G03*
X17225000Y-9201500I-50000J0D01*
G01*
X17125000Y-9428500D02*
X17225000Y-9528500D01*
X17225000Y-9428500D02*
X17125000Y-9528500D01*
X17225000Y-9478500D02*
G75*
G03*
X17225000Y-9478500I-50000J0D01*
G01*
X13265000Y-2416000D02*
X13375000Y-2526000D01*
X13375000Y-2416000D02*
X13265000Y-2526000D01*
X13320000Y-2416000D02*
X13320000Y-2526000D01*
X13265000Y-2471000D02*
X13375000Y-2471000D01*
X13265000Y-2866000D02*
X13375000Y-2976000D01*
X13375000Y-2866000D02*
X13265000Y-2976000D01*
X13320000Y-2866000D02*
X13320000Y-2976000D01*
X13265000Y-2921000D02*
X13375000Y-2921000D01*
X13915000Y-2416000D02*
X14025000Y-2526000D01*
X14025000Y-2416000D02*
X13915000Y-2526000D01*
X13970000Y-2416000D02*
X13970000Y-2526000D01*
X13915000Y-2471000D02*
X14025000Y-2471000D01*
X13915000Y-2866000D02*
X14025000Y-2976000D01*
X14025000Y-2866000D02*
X13915000Y-2976000D01*
X13970000Y-2866000D02*
X13970000Y-2976000D01*
X13915000Y-2921000D02*
X14025000Y-2921000D01*
X15820000Y-4644000D02*
X15930000Y-4754000D01*
X15930000Y-4644000D02*
X15820000Y-4754000D01*
X15875000Y-4644000D02*
X15875000Y-4754000D01*
X15820000Y-4699000D02*
X15930000Y-4699000D01*
X15820000Y-4898000D02*
X15930000Y-5008000D01*
X15930000Y-4898000D02*
X15820000Y-5008000D01*
X15875000Y-4898000D02*
X15875000Y-5008000D01*
X15820000Y-4953000D02*
X15930000Y-4953000D01*
X15820000Y-5152000D02*
X15930000Y-5262000D01*
X15930000Y-5152000D02*
X15820000Y-5262000D01*
X15875000Y-5152000D02*
X15875000Y-5262000D01*
X15820000Y-5207000D02*
X15930000Y-5207000D01*
X14291000Y-4385000D02*
X14411000Y-4505000D01*
X14411000Y-4385000D02*
X14291000Y-4505000D01*
X14393427Y-4487427D02*
X14393427Y-4402573D01*
X14308573Y-4402573D01*
X14308573Y-4487427D01*
X14393427Y-4487427D01*
X15307000Y-4385000D02*
X15427000Y-4505000D01*
X15427000Y-4385000D02*
X15307000Y-4505000D01*
X15409427Y-4487427D02*
X15409427Y-4402573D01*
X15324573Y-4402573D01*
X15324573Y-4487427D01*
X15409427Y-4487427D01*
X16754000Y-5760000D02*
X16984000Y-5990000D01*
X16984000Y-5760000D02*
X16754000Y-5990000D01*
X16869000Y-5990000D02*
X16984000Y-5875000D01*
X16869000Y-5760000D01*
X16754000Y-5875000D01*
X16869000Y-5990000D01*
X16754000Y-6960000D02*
X16984000Y-7190000D01*
X16984000Y-6960000D02*
X16754000Y-7190000D01*
X16869000Y-7190000D02*
X16984000Y-7075000D01*
X16869000Y-6960000D01*
X16754000Y-7075000D01*
X16869000Y-7190000D01*
X2357000Y-2197000D02*
X2357000Y-2517000D01*
X2197000Y-2357000D02*
X2517000Y-2357000D01*
X2517000Y-2357000D02*
G75*
G03*
X2517000Y-2357000I-160000J0D01*
G01*
X2357000Y-11483000D02*
X2357000Y-11803000D01*
X2197000Y-11643000D02*
X2517000Y-11643000D01*
X2517000Y-11643000D02*
G75*
G03*
X2517000Y-11643000I-160000J0D01*
G01*
X17033000Y-7653000D02*
X17033000Y-7973000D01*
X16873000Y-7813000D02*
X17193000Y-7813000D01*
X17193000Y-7813000D02*
G75*
G03*
X17193000Y-7813000I-160000J0D01*
G01*
X17033000Y-10153000D02*
X17033000Y-10473000D01*
X16873000Y-10313000D02*
X17193000Y-10313000D01*
X17193000Y-10313000D02*
G75*
G03*
X17193000Y-10313000I-160000J0D01*
G01*
X17643000Y-2197000D02*
X17643000Y-2517000D01*
X17483000Y-2357000D02*
X17803000Y-2357000D01*
X17803000Y-2357000D02*
G75*
G03*
X17803000Y-2357000I-160000J0D01*
G01*
X17643000Y-11483000D02*
X17643000Y-11803000D01*
X17483000Y-11643000D02*
X17803000Y-11643000D01*
X17803000Y-11643000D02*
G75*
G03*
X17803000Y-11643000I-160000J0D01*
G01*
D12*
X2285378Y-12465764D02*
X2285378Y-12165764D01*
X2356807Y-12165764D01*
X2399664Y-12180050D01*
X2428236Y-12208621D01*
X2442521Y-12237193D01*
X2456807Y-12294336D01*
X2456807Y-12337193D01*
X2442521Y-12394336D01*
X2428236Y-12422907D01*
X2399664Y-12451479D01*
X2356807Y-12465764D01*
X2285378Y-12465764D01*
X2585378Y-12465764D02*
X2585378Y-12265764D01*
X2585378Y-12322907D02*
X2599664Y-12294336D01*
X2613950Y-12280050D01*
X2642521Y-12265764D01*
X2671093Y-12265764D01*
X2771093Y-12465764D02*
X2771093Y-12265764D01*
X2771093Y-12165764D02*
X2756807Y-12180050D01*
X2771093Y-12194336D01*
X2785378Y-12180050D01*
X2771093Y-12165764D01*
X2771093Y-12194336D01*
X2956807Y-12465764D02*
X2928236Y-12451479D01*
X2913950Y-12422907D01*
X2913950Y-12165764D01*
X3113950Y-12465764D02*
X3085378Y-12451479D01*
X3071093Y-12422907D01*
X3071093Y-12165764D01*
X3456807Y-12465764D02*
X3456807Y-12165764D01*
X3556807Y-12380050D01*
X3656807Y-12165764D01*
X3656807Y-12465764D01*
X3928236Y-12465764D02*
X3928236Y-12308621D01*
X3913950Y-12280050D01*
X3885378Y-12265764D01*
X3828236Y-12265764D01*
X3799664Y-12280050D01*
X3928236Y-12451479D02*
X3899664Y-12465764D01*
X3828236Y-12465764D01*
X3799664Y-12451479D01*
X3785378Y-12422907D01*
X3785378Y-12394336D01*
X3799664Y-12365764D01*
X3828236Y-12351479D01*
X3899664Y-12351479D01*
X3928236Y-12337193D01*
X4071093Y-12265764D02*
X4071093Y-12565764D01*
X4071093Y-12280050D02*
X4099664Y-12265764D01*
X4156807Y-12265764D01*
X4185378Y-12280050D01*
X4199664Y-12294336D01*
X4213950Y-12322907D01*
X4213950Y-12408621D01*
X4199664Y-12437193D01*
X4185378Y-12451479D01*
X4156807Y-12465764D01*
X4099664Y-12465764D01*
X4071093Y-12451479D01*
X4342521Y-12437193D02*
X4356807Y-12451479D01*
X4342521Y-12465764D01*
X4328236Y-12451479D01*
X4342521Y-12437193D01*
X4342521Y-12465764D01*
X4342521Y-12280050D02*
X4356807Y-12294336D01*
X4342521Y-12308621D01*
X4328236Y-12294336D01*
X4342521Y-12280050D01*
X4342521Y-12308621D01*
X1958950Y-12940050D02*
X1998950Y-12980050D01*
X1998950Y-12940050D02*
X1958950Y-12980050D01*
X2342521Y-12795764D02*
X2371093Y-12795764D01*
X2399664Y-12810050D01*
X2413950Y-12824336D01*
X2428236Y-12852907D01*
X2442521Y-12910050D01*
X2442521Y-12981479D01*
X2428236Y-13038621D01*
X2413950Y-13067193D01*
X2399664Y-13081479D01*
X2371093Y-13095764D01*
X2342521Y-13095764D01*
X2313950Y-13081479D01*
X2299664Y-13067193D01*
X2285378Y-13038621D01*
X2271093Y-12981479D01*
X2271093Y-12910050D01*
X2285378Y-12852907D01*
X2299664Y-12824336D01*
X2313950Y-12810050D01*
X2342521Y-12795764D01*
X2571093Y-13067193D02*
X2585378Y-13081479D01*
X2571093Y-13095764D01*
X2556807Y-13081479D01*
X2571093Y-13067193D01*
X2571093Y-13095764D01*
X2842521Y-12895764D02*
X2842521Y-13095764D01*
X2771093Y-12781479D02*
X2699664Y-12995764D01*
X2885378Y-12995764D01*
X3056807Y-12795764D02*
X3085378Y-12795764D01*
X3113950Y-12810050D01*
X3128236Y-12824336D01*
X3142521Y-12852907D01*
X3156807Y-12910050D01*
X3156807Y-12981479D01*
X3142521Y-13038621D01*
X3128236Y-13067193D01*
X3113950Y-13081479D01*
X3085378Y-13095764D01*
X3056807Y-13095764D01*
X3028236Y-13081479D01*
X3013950Y-13067193D01*
X2999664Y-13038621D01*
X2985378Y-12981479D01*
X2985378Y-12910050D01*
X2999664Y-12852907D01*
X3013950Y-12824336D01*
X3028236Y-12810050D01*
X3056807Y-12795764D01*
X3342521Y-12795764D02*
X3371093Y-12795764D01*
X3399664Y-12810050D01*
X3413950Y-12824336D01*
X3428236Y-12852907D01*
X3442521Y-12910050D01*
X3442521Y-12981479D01*
X3428236Y-13038621D01*
X3413950Y-13067193D01*
X3399664Y-13081479D01*
X3371093Y-13095764D01*
X3342521Y-13095764D01*
X3313950Y-13081479D01*
X3299664Y-13067193D01*
X3285378Y-13038621D01*
X3271093Y-12981479D01*
X3271093Y-12910050D01*
X3285378Y-12852907D01*
X3299664Y-12824336D01*
X3313950Y-12810050D01*
X3342521Y-12795764D01*
X3571093Y-13095764D02*
X3571093Y-12895764D01*
X3571093Y-12924336D02*
X3585378Y-12910050D01*
X3613950Y-12895764D01*
X3656807Y-12895764D01*
X3685378Y-12910050D01*
X3699664Y-12938621D01*
X3699664Y-13095764D01*
X3699664Y-12938621D02*
X3713950Y-12910050D01*
X3742521Y-12895764D01*
X3785378Y-12895764D01*
X3813950Y-12910050D01*
X3828236Y-12938621D01*
X3828236Y-13095764D01*
X3971093Y-13095764D02*
X3971093Y-12895764D01*
X3971093Y-12924336D02*
X3985378Y-12910050D01*
X4013950Y-12895764D01*
X4056807Y-12895764D01*
X4085378Y-12910050D01*
X4099664Y-12938621D01*
X4099664Y-13095764D01*
X4099664Y-12938621D02*
X4113950Y-12910050D01*
X4142521Y-12895764D01*
X4185378Y-12895764D01*
X4213950Y-12910050D01*
X4228236Y-12938621D01*
X4228236Y-13095764D01*
X4813950Y-12781479D02*
X4556807Y-13167193D01*
X5199664Y-12795764D02*
X5228236Y-12795764D01*
X5256807Y-12810050D01*
X5271093Y-12824336D01*
X5285378Y-12852907D01*
X5299664Y-12910050D01*
X5299664Y-12981479D01*
X5285378Y-13038621D01*
X5271093Y-13067193D01*
X5256807Y-13081479D01*
X5228236Y-13095764D01*
X5199664Y-13095764D01*
X5171093Y-13081479D01*
X5156807Y-13067193D01*
X5142521Y-13038621D01*
X5128236Y-12981479D01*
X5128236Y-12910050D01*
X5142521Y-12852907D01*
X5156807Y-12824336D01*
X5171093Y-12810050D01*
X5199664Y-12795764D01*
X5428236Y-13067193D02*
X5442521Y-13081479D01*
X5428236Y-13095764D01*
X5413950Y-13081479D01*
X5428236Y-13067193D01*
X5428236Y-13095764D01*
X5628236Y-12795764D02*
X5656807Y-12795764D01*
X5685378Y-12810050D01*
X5699664Y-12824336D01*
X5713950Y-12852907D01*
X5728236Y-12910050D01*
X5728236Y-12981479D01*
X5713950Y-13038621D01*
X5699664Y-13067193D01*
X5685378Y-13081479D01*
X5656807Y-13095764D01*
X5628236Y-13095764D01*
X5599664Y-13081479D01*
X5585378Y-13067193D01*
X5571093Y-13038621D01*
X5556807Y-12981479D01*
X5556807Y-12910050D01*
X5571093Y-12852907D01*
X5585378Y-12824336D01*
X5599664Y-12810050D01*
X5628236Y-12795764D01*
X6013950Y-13095764D02*
X5842521Y-13095764D01*
X5928236Y-13095764D02*
X5928236Y-12795764D01*
X5899664Y-12838621D01*
X5871093Y-12867193D01*
X5842521Y-12881479D01*
X6285378Y-12795764D02*
X6142521Y-12795764D01*
X6128236Y-12938621D01*
X6142521Y-12924336D01*
X6171093Y-12910050D01*
X6242521Y-12910050D01*
X6271093Y-12924336D01*
X6285378Y-12938621D01*
X6299664Y-12967193D01*
X6299664Y-13038621D01*
X6285378Y-13067193D01*
X6271093Y-13081479D01*
X6242521Y-13095764D01*
X6171093Y-13095764D01*
X6142521Y-13081479D01*
X6128236Y-13067193D01*
X6399664Y-12795764D02*
X6599664Y-12795764D01*
X6471093Y-13095764D01*
X6699664Y-12795764D02*
X6699664Y-12852907D01*
X6813950Y-12795764D02*
X6813950Y-12852907D01*
X7256807Y-13210050D02*
X7242521Y-13195764D01*
X7213950Y-13152907D01*
X7199664Y-13124336D01*
X7185378Y-13081479D01*
X7171093Y-13010050D01*
X7171093Y-12952907D01*
X7185378Y-12881479D01*
X7199664Y-12838621D01*
X7213950Y-12810050D01*
X7242521Y-12767193D01*
X7256807Y-12752907D01*
X7356807Y-12824336D02*
X7371093Y-12810050D01*
X7399664Y-12795764D01*
X7471093Y-12795764D01*
X7499664Y-12810050D01*
X7513950Y-12824336D01*
X7528236Y-12852907D01*
X7528236Y-12881479D01*
X7513950Y-12924336D01*
X7342521Y-13095764D01*
X7528236Y-13095764D01*
X7785378Y-12795764D02*
X7728236Y-12795764D01*
X7699664Y-12810050D01*
X7685378Y-12824336D01*
X7656807Y-12867193D01*
X7642521Y-12924336D01*
X7642521Y-13038621D01*
X7656807Y-13067193D01*
X7671093Y-13081479D01*
X7699664Y-13095764D01*
X7756807Y-13095764D01*
X7785378Y-13081479D01*
X7799664Y-13067193D01*
X7813950Y-13038621D01*
X7813950Y-12967193D01*
X7799664Y-12938621D01*
X7785378Y-12924336D01*
X7756807Y-12910050D01*
X7699664Y-12910050D01*
X7671093Y-12924336D01*
X7656807Y-12938621D01*
X7642521Y-12967193D01*
X8171093Y-13095764D02*
X8171093Y-12795764D01*
X8299664Y-13095764D02*
X8299664Y-12938621D01*
X8285378Y-12910050D01*
X8256807Y-12895764D01*
X8213950Y-12895764D01*
X8185378Y-12910050D01*
X8171093Y-12924336D01*
X8485378Y-13095764D02*
X8456807Y-13081479D01*
X8442521Y-13067193D01*
X8428236Y-13038621D01*
X8428236Y-12952907D01*
X8442521Y-12924336D01*
X8456807Y-12910050D01*
X8485378Y-12895764D01*
X8528236Y-12895764D01*
X8556807Y-12910050D01*
X8571093Y-12924336D01*
X8585378Y-12952907D01*
X8585378Y-13038621D01*
X8571093Y-13067193D01*
X8556807Y-13081479D01*
X8528236Y-13095764D01*
X8485378Y-13095764D01*
X8756807Y-13095764D02*
X8728236Y-13081479D01*
X8713950Y-13052907D01*
X8713950Y-12795764D01*
X8985378Y-13081479D02*
X8956807Y-13095764D01*
X8899664Y-13095764D01*
X8871093Y-13081479D01*
X8856807Y-13052907D01*
X8856807Y-12938621D01*
X8871093Y-12910050D01*
X8899664Y-12895764D01*
X8956807Y-12895764D01*
X8985378Y-12910050D01*
X8999664Y-12938621D01*
X8999664Y-12967193D01*
X8856807Y-12995764D01*
X9113950Y-13081479D02*
X9142521Y-13095764D01*
X9199664Y-13095764D01*
X9228236Y-13081479D01*
X9242521Y-13052907D01*
X9242521Y-13038621D01*
X9228236Y-13010050D01*
X9199664Y-12995764D01*
X9156807Y-12995764D01*
X9128236Y-12981479D01*
X9113950Y-12952907D01*
X9113950Y-12938621D01*
X9128236Y-12910050D01*
X9156807Y-12895764D01*
X9199664Y-12895764D01*
X9228236Y-12910050D01*
X9342521Y-13210050D02*
X9356807Y-13195764D01*
X9385378Y-13152907D01*
X9399664Y-13124336D01*
X9413950Y-13081479D01*
X9428236Y-13010050D01*
X9428236Y-12952907D01*
X9413950Y-12881479D01*
X9399664Y-12838621D01*
X9385378Y-12810050D01*
X9356807Y-12767193D01*
X9342521Y-12752907D01*
X1998950Y-13356050D02*
G75*
G03*
X1998950Y-13356050I-25000J0D01*
G01*
X2342521Y-13191764D02*
X2371093Y-13191764D01*
X2399664Y-13206050D01*
X2413950Y-13220336D01*
X2428236Y-13248907D01*
X2442521Y-13306050D01*
X2442521Y-13377479D01*
X2428236Y-13434621D01*
X2413950Y-13463193D01*
X2399664Y-13477479D01*
X2371093Y-13491764D01*
X2342521Y-13491764D01*
X2313950Y-13477479D01*
X2299664Y-13463193D01*
X2285378Y-13434621D01*
X2271093Y-13377479D01*
X2271093Y-13306050D01*
X2285378Y-13248907D01*
X2299664Y-13220336D01*
X2313950Y-13206050D01*
X2342521Y-13191764D01*
X2571093Y-13463193D02*
X2585378Y-13477479D01*
X2571093Y-13491764D01*
X2556807Y-13477479D01*
X2571093Y-13463193D01*
X2571093Y-13491764D01*
X2856807Y-13191764D02*
X2713950Y-13191764D01*
X2699664Y-13334621D01*
X2713950Y-13320336D01*
X2742521Y-13306050D01*
X2813950Y-13306050D01*
X2842521Y-13320336D01*
X2856807Y-13334621D01*
X2871093Y-13363193D01*
X2871093Y-13434621D01*
X2856807Y-13463193D01*
X2842521Y-13477479D01*
X2813950Y-13491764D01*
X2742521Y-13491764D01*
X2713950Y-13477479D01*
X2699664Y-13463193D01*
X3056807Y-13191764D02*
X3085378Y-13191764D01*
X3113950Y-13206050D01*
X3128236Y-13220336D01*
X3142521Y-13248907D01*
X3156807Y-13306050D01*
X3156807Y-13377479D01*
X3142521Y-13434621D01*
X3128236Y-13463193D01*
X3113950Y-13477479D01*
X3085378Y-13491764D01*
X3056807Y-13491764D01*
X3028236Y-13477479D01*
X3013950Y-13463193D01*
X2999664Y-13434621D01*
X2985378Y-13377479D01*
X2985378Y-13306050D01*
X2999664Y-13248907D01*
X3013950Y-13220336D01*
X3028236Y-13206050D01*
X3056807Y-13191764D01*
X3342521Y-13191764D02*
X3371093Y-13191764D01*
X3399664Y-13206050D01*
X3413950Y-13220336D01*
X3428236Y-13248907D01*
X3442521Y-13306050D01*
X3442521Y-13377479D01*
X3428236Y-13434621D01*
X3413950Y-13463193D01*
X3399664Y-13477479D01*
X3371093Y-13491764D01*
X3342521Y-13491764D01*
X3313950Y-13477479D01*
X3299664Y-13463193D01*
X3285378Y-13434621D01*
X3271093Y-13377479D01*
X3271093Y-13306050D01*
X3285378Y-13248907D01*
X3299664Y-13220336D01*
X3313950Y-13206050D01*
X3342521Y-13191764D01*
X3571093Y-13491764D02*
X3571093Y-13291764D01*
X3571093Y-13320336D02*
X3585378Y-13306050D01*
X3613950Y-13291764D01*
X3656807Y-13291764D01*
X3685378Y-13306050D01*
X3699664Y-13334621D01*
X3699664Y-13491764D01*
X3699664Y-13334621D02*
X3713950Y-13306050D01*
X3742521Y-13291764D01*
X3785378Y-13291764D01*
X3813950Y-13306050D01*
X3828236Y-13334621D01*
X3828236Y-13491764D01*
X3971093Y-13491764D02*
X3971093Y-13291764D01*
X3971093Y-13320336D02*
X3985378Y-13306050D01*
X4013950Y-13291764D01*
X4056807Y-13291764D01*
X4085378Y-13306050D01*
X4099664Y-13334621D01*
X4099664Y-13491764D01*
X4099664Y-13334621D02*
X4113950Y-13306050D01*
X4142521Y-13291764D01*
X4185378Y-13291764D01*
X4213950Y-13306050D01*
X4228236Y-13334621D01*
X4228236Y-13491764D01*
X4813950Y-13177479D02*
X4556807Y-13563193D01*
X5199664Y-13191764D02*
X5228236Y-13191764D01*
X5256807Y-13206050D01*
X5271093Y-13220336D01*
X5285378Y-13248907D01*
X5299664Y-13306050D01*
X5299664Y-13377479D01*
X5285378Y-13434621D01*
X5271093Y-13463193D01*
X5256807Y-13477479D01*
X5228236Y-13491764D01*
X5199664Y-13491764D01*
X5171093Y-13477479D01*
X5156807Y-13463193D01*
X5142521Y-13434621D01*
X5128236Y-13377479D01*
X5128236Y-13306050D01*
X5142521Y-13248907D01*
X5156807Y-13220336D01*
X5171093Y-13206050D01*
X5199664Y-13191764D01*
X5428236Y-13463193D02*
X5442521Y-13477479D01*
X5428236Y-13491764D01*
X5413950Y-13477479D01*
X5428236Y-13463193D01*
X5428236Y-13491764D01*
X5628236Y-13191764D02*
X5656807Y-13191764D01*
X5685378Y-13206050D01*
X5699664Y-13220336D01*
X5713950Y-13248907D01*
X5728236Y-13306050D01*
X5728236Y-13377479D01*
X5713950Y-13434621D01*
X5699664Y-13463193D01*
X5685378Y-13477479D01*
X5656807Y-13491764D01*
X5628236Y-13491764D01*
X5599664Y-13477479D01*
X5585378Y-13463193D01*
X5571093Y-13434621D01*
X5556807Y-13377479D01*
X5556807Y-13306050D01*
X5571093Y-13248907D01*
X5585378Y-13220336D01*
X5599664Y-13206050D01*
X5628236Y-13191764D01*
X6013950Y-13491764D02*
X5842521Y-13491764D01*
X5928236Y-13491764D02*
X5928236Y-13191764D01*
X5899664Y-13234621D01*
X5871093Y-13263193D01*
X5842521Y-13277479D01*
X6156807Y-13491764D02*
X6213950Y-13491764D01*
X6242521Y-13477479D01*
X6256807Y-13463193D01*
X6285378Y-13420336D01*
X6299664Y-13363193D01*
X6299664Y-13248907D01*
X6285378Y-13220336D01*
X6271093Y-13206050D01*
X6242521Y-13191764D01*
X6185378Y-13191764D01*
X6156807Y-13206050D01*
X6142521Y-13220336D01*
X6128236Y-13248907D01*
X6128236Y-13320336D01*
X6142521Y-13348907D01*
X6156807Y-13363193D01*
X6185378Y-13377479D01*
X6242521Y-13377479D01*
X6271093Y-13363193D01*
X6285378Y-13348907D01*
X6299664Y-13320336D01*
X6399664Y-13191764D02*
X6599664Y-13191764D01*
X6471093Y-13491764D01*
X6699664Y-13191764D02*
X6699664Y-13248907D01*
X6813950Y-13191764D02*
X6813950Y-13248907D01*
X7256807Y-13606050D02*
X7242521Y-13591764D01*
X7213950Y-13548907D01*
X7199664Y-13520336D01*
X7185378Y-13477479D01*
X7171093Y-13406050D01*
X7171093Y-13348907D01*
X7185378Y-13277479D01*
X7199664Y-13234621D01*
X7213950Y-13206050D01*
X7242521Y-13163193D01*
X7256807Y-13148907D01*
X7342521Y-13191764D02*
X7528236Y-13191764D01*
X7428236Y-13306050D01*
X7471093Y-13306050D01*
X7499664Y-13320336D01*
X7513950Y-13334621D01*
X7528236Y-13363193D01*
X7528236Y-13434621D01*
X7513950Y-13463193D01*
X7499664Y-13477479D01*
X7471093Y-13491764D01*
X7385378Y-13491764D01*
X7356807Y-13477479D01*
X7342521Y-13463193D01*
X7642521Y-13220336D02*
X7656807Y-13206050D01*
X7685378Y-13191764D01*
X7756807Y-13191764D01*
X7785378Y-13206050D01*
X7799664Y-13220336D01*
X7813950Y-13248907D01*
X7813950Y-13277479D01*
X7799664Y-13320336D01*
X7628236Y-13491764D01*
X7813950Y-13491764D01*
X8171093Y-13491764D02*
X8171093Y-13191764D01*
X8299664Y-13491764D02*
X8299664Y-13334621D01*
X8285378Y-13306050D01*
X8256807Y-13291764D01*
X8213950Y-13291764D01*
X8185378Y-13306050D01*
X8171093Y-13320336D01*
X8485378Y-13491764D02*
X8456807Y-13477479D01*
X8442521Y-13463193D01*
X8428236Y-13434621D01*
X8428236Y-13348907D01*
X8442521Y-13320336D01*
X8456807Y-13306050D01*
X8485378Y-13291764D01*
X8528236Y-13291764D01*
X8556807Y-13306050D01*
X8571093Y-13320336D01*
X8585378Y-13348907D01*
X8585378Y-13434621D01*
X8571093Y-13463193D01*
X8556807Y-13477479D01*
X8528236Y-13491764D01*
X8485378Y-13491764D01*
X8756807Y-13491764D02*
X8728236Y-13477479D01*
X8713950Y-13448907D01*
X8713950Y-13191764D01*
X8985378Y-13477479D02*
X8956807Y-13491764D01*
X8899664Y-13491764D01*
X8871093Y-13477479D01*
X8856807Y-13448907D01*
X8856807Y-13334621D01*
X8871093Y-13306050D01*
X8899664Y-13291764D01*
X8956807Y-13291764D01*
X8985378Y-13306050D01*
X8999664Y-13334621D01*
X8999664Y-13363193D01*
X8856807Y-13391764D01*
X9113950Y-13477479D02*
X9142521Y-13491764D01*
X9199664Y-13491764D01*
X9228236Y-13477479D01*
X9242521Y-13448907D01*
X9242521Y-13434621D01*
X9228236Y-13406050D01*
X9199664Y-13391764D01*
X9156807Y-13391764D01*
X9128236Y-13377479D01*
X9113950Y-13348907D01*
X9113950Y-13334621D01*
X9128236Y-13306050D01*
X9156807Y-13291764D01*
X9199664Y-13291764D01*
X9228236Y-13306050D01*
X9342521Y-13606050D02*
X9356807Y-13591764D01*
X9385378Y-13548907D01*
X9399664Y-13520336D01*
X9413950Y-13477479D01*
X9428236Y-13406050D01*
X9428236Y-13348907D01*
X9413950Y-13277479D01*
X9399664Y-13234621D01*
X9385378Y-13206050D01*
X9356807Y-13163193D01*
X9342521Y-13148907D01*
X1958950Y-13712050D02*
X1958950Y-13792050D01*
X1918950Y-13752050D02*
X1998950Y-13752050D01*
X2342521Y-13587764D02*
X2371093Y-13587764D01*
X2399664Y-13602050D01*
X2413950Y-13616336D01*
X2428236Y-13644907D01*
X2442521Y-13702050D01*
X2442521Y-13773479D01*
X2428236Y-13830621D01*
X2413950Y-13859193D01*
X2399664Y-13873479D01*
X2371093Y-13887764D01*
X2342521Y-13887764D01*
X2313950Y-13873479D01*
X2299664Y-13859193D01*
X2285378Y-13830621D01*
X2271093Y-13773479D01*
X2271093Y-13702050D01*
X2285378Y-13644907D01*
X2299664Y-13616336D01*
X2313950Y-13602050D01*
X2342521Y-13587764D01*
X2571093Y-13859193D02*
X2585378Y-13873479D01*
X2571093Y-13887764D01*
X2556807Y-13873479D01*
X2571093Y-13859193D01*
X2571093Y-13887764D01*
X2756807Y-13716336D02*
X2728236Y-13702050D01*
X2713950Y-13687764D01*
X2699664Y-13659193D01*
X2699664Y-13644907D01*
X2713950Y-13616336D01*
X2728236Y-13602050D01*
X2756807Y-13587764D01*
X2813950Y-13587764D01*
X2842521Y-13602050D01*
X2856807Y-13616336D01*
X2871093Y-13644907D01*
X2871093Y-13659193D01*
X2856807Y-13687764D01*
X2842521Y-13702050D01*
X2813950Y-13716336D01*
X2756807Y-13716336D01*
X2728236Y-13730621D01*
X2713950Y-13744907D01*
X2699664Y-13773479D01*
X2699664Y-13830621D01*
X2713950Y-13859193D01*
X2728236Y-13873479D01*
X2756807Y-13887764D01*
X2813950Y-13887764D01*
X2842521Y-13873479D01*
X2856807Y-13859193D01*
X2871093Y-13830621D01*
X2871093Y-13773479D01*
X2856807Y-13744907D01*
X2842521Y-13730621D01*
X2813950Y-13716336D01*
X3056807Y-13587764D02*
X3085378Y-13587764D01*
X3113950Y-13602050D01*
X3128236Y-13616336D01*
X3142521Y-13644907D01*
X3156807Y-13702050D01*
X3156807Y-13773479D01*
X3142521Y-13830621D01*
X3128236Y-13859193D01*
X3113950Y-13873479D01*
X3085378Y-13887764D01*
X3056807Y-13887764D01*
X3028236Y-13873479D01*
X3013950Y-13859193D01*
X2999664Y-13830621D01*
X2985378Y-13773479D01*
X2985378Y-13702050D01*
X2999664Y-13644907D01*
X3013950Y-13616336D01*
X3028236Y-13602050D01*
X3056807Y-13587764D01*
X3342521Y-13587764D02*
X3371093Y-13587764D01*
X3399664Y-13602050D01*
X3413950Y-13616336D01*
X3428236Y-13644907D01*
X3442521Y-13702050D01*
X3442521Y-13773479D01*
X3428236Y-13830621D01*
X3413950Y-13859193D01*
X3399664Y-13873479D01*
X3371093Y-13887764D01*
X3342521Y-13887764D01*
X3313950Y-13873479D01*
X3299664Y-13859193D01*
X3285378Y-13830621D01*
X3271093Y-13773479D01*
X3271093Y-13702050D01*
X3285378Y-13644907D01*
X3299664Y-13616336D01*
X3313950Y-13602050D01*
X3342521Y-13587764D01*
X3571093Y-13887764D02*
X3571093Y-13687764D01*
X3571093Y-13716336D02*
X3585378Y-13702050D01*
X3613950Y-13687764D01*
X3656807Y-13687764D01*
X3685378Y-13702050D01*
X3699664Y-13730621D01*
X3699664Y-13887764D01*
X3699664Y-13730621D02*
X3713950Y-13702050D01*
X3742521Y-13687764D01*
X3785378Y-13687764D01*
X3813950Y-13702050D01*
X3828236Y-13730621D01*
X3828236Y-13887764D01*
X3971093Y-13887764D02*
X3971093Y-13687764D01*
X3971093Y-13716336D02*
X3985378Y-13702050D01*
X4013950Y-13687764D01*
X4056807Y-13687764D01*
X4085378Y-13702050D01*
X4099664Y-13730621D01*
X4099664Y-13887764D01*
X4099664Y-13730621D02*
X4113950Y-13702050D01*
X4142521Y-13687764D01*
X4185378Y-13687764D01*
X4213950Y-13702050D01*
X4228236Y-13730621D01*
X4228236Y-13887764D01*
X4813950Y-13573479D02*
X4556807Y-13959193D01*
X5199664Y-13587764D02*
X5228236Y-13587764D01*
X5256807Y-13602050D01*
X5271093Y-13616336D01*
X5285378Y-13644907D01*
X5299664Y-13702050D01*
X5299664Y-13773479D01*
X5285378Y-13830621D01*
X5271093Y-13859193D01*
X5256807Y-13873479D01*
X5228236Y-13887764D01*
X5199664Y-13887764D01*
X5171093Y-13873479D01*
X5156807Y-13859193D01*
X5142521Y-13830621D01*
X5128236Y-13773479D01*
X5128236Y-13702050D01*
X5142521Y-13644907D01*
X5156807Y-13616336D01*
X5171093Y-13602050D01*
X5199664Y-13587764D01*
X5428236Y-13859193D02*
X5442521Y-13873479D01*
X5428236Y-13887764D01*
X5413950Y-13873479D01*
X5428236Y-13859193D01*
X5428236Y-13887764D01*
X5628236Y-13587764D02*
X5656807Y-13587764D01*
X5685378Y-13602050D01*
X5699664Y-13616336D01*
X5713950Y-13644907D01*
X5728236Y-13702050D01*
X5728236Y-13773479D01*
X5713950Y-13830621D01*
X5699664Y-13859193D01*
X5685378Y-13873479D01*
X5656807Y-13887764D01*
X5628236Y-13887764D01*
X5599664Y-13873479D01*
X5585378Y-13859193D01*
X5571093Y-13830621D01*
X5556807Y-13773479D01*
X5556807Y-13702050D01*
X5571093Y-13644907D01*
X5585378Y-13616336D01*
X5599664Y-13602050D01*
X5628236Y-13587764D01*
X5828236Y-13587764D02*
X6013950Y-13587764D01*
X5913950Y-13702050D01*
X5956807Y-13702050D01*
X5985378Y-13716336D01*
X5999664Y-13730621D01*
X6013950Y-13759193D01*
X6013950Y-13830621D01*
X5999664Y-13859193D01*
X5985378Y-13873479D01*
X5956807Y-13887764D01*
X5871093Y-13887764D01*
X5842521Y-13873479D01*
X5828236Y-13859193D01*
X6299664Y-13887764D02*
X6128236Y-13887764D01*
X6213950Y-13887764D02*
X6213950Y-13587764D01*
X6185378Y-13630621D01*
X6156807Y-13659193D01*
X6128236Y-13673479D01*
X6571093Y-13587764D02*
X6428236Y-13587764D01*
X6413950Y-13730621D01*
X6428236Y-13716336D01*
X6456807Y-13702050D01*
X6528236Y-13702050D01*
X6556807Y-13716336D01*
X6571093Y-13730621D01*
X6585378Y-13759193D01*
X6585378Y-13830621D01*
X6571093Y-13859193D01*
X6556807Y-13873479D01*
X6528236Y-13887764D01*
X6456807Y-13887764D01*
X6428236Y-13873479D01*
X6413950Y-13859193D01*
X6699664Y-13587764D02*
X6699664Y-13644907D01*
X6813950Y-13587764D02*
X6813950Y-13644907D01*
X7256807Y-14002050D02*
X7242521Y-13987764D01*
X7213950Y-13944907D01*
X7199664Y-13916336D01*
X7185378Y-13873479D01*
X7171093Y-13802050D01*
X7171093Y-13744907D01*
X7185378Y-13673479D01*
X7199664Y-13630621D01*
X7213950Y-13602050D01*
X7242521Y-13559193D01*
X7256807Y-13544907D01*
X7342521Y-13587764D02*
X7528236Y-13587764D01*
X7428236Y-13702050D01*
X7471093Y-13702050D01*
X7499664Y-13716336D01*
X7513950Y-13730621D01*
X7528236Y-13759193D01*
X7528236Y-13830621D01*
X7513950Y-13859193D01*
X7499664Y-13873479D01*
X7471093Y-13887764D01*
X7385378Y-13887764D01*
X7356807Y-13873479D01*
X7342521Y-13859193D01*
X7628236Y-13587764D02*
X7828236Y-13587764D01*
X7699664Y-13887764D01*
X7928236Y-13616336D02*
X7942521Y-13602050D01*
X7971093Y-13587764D01*
X8042521Y-13587764D01*
X8071093Y-13602050D01*
X8085378Y-13616336D01*
X8099664Y-13644907D01*
X8099664Y-13673479D01*
X8085378Y-13716336D01*
X7913950Y-13887764D01*
X8099664Y-13887764D01*
X8456807Y-13887764D02*
X8456807Y-13587764D01*
X8585378Y-13887764D02*
X8585378Y-13730621D01*
X8571093Y-13702050D01*
X8542521Y-13687764D01*
X8499664Y-13687764D01*
X8471093Y-13702050D01*
X8456807Y-13716336D01*
X8771093Y-13887764D02*
X8742521Y-13873479D01*
X8728236Y-13859193D01*
X8713950Y-13830621D01*
X8713950Y-13744907D01*
X8728236Y-13716336D01*
X8742521Y-13702050D01*
X8771093Y-13687764D01*
X8813950Y-13687764D01*
X8842521Y-13702050D01*
X8856807Y-13716336D01*
X8871093Y-13744907D01*
X8871093Y-13830621D01*
X8856807Y-13859193D01*
X8842521Y-13873479D01*
X8813950Y-13887764D01*
X8771093Y-13887764D01*
X9042521Y-13887764D02*
X9013950Y-13873479D01*
X8999664Y-13844907D01*
X8999664Y-13587764D01*
X9271093Y-13873479D02*
X9242521Y-13887764D01*
X9185378Y-13887764D01*
X9156807Y-13873479D01*
X9142521Y-13844907D01*
X9142521Y-13730621D01*
X9156807Y-13702050D01*
X9185378Y-13687764D01*
X9242521Y-13687764D01*
X9271093Y-13702050D01*
X9285378Y-13730621D01*
X9285378Y-13759193D01*
X9142521Y-13787764D01*
X9399664Y-13873479D02*
X9428236Y-13887764D01*
X9485378Y-13887764D01*
X9513950Y-13873479D01*
X9528236Y-13844907D01*
X9528236Y-13830621D01*
X9513950Y-13802050D01*
X9485378Y-13787764D01*
X9442521Y-13787764D01*
X9413950Y-13773479D01*
X9399664Y-13744907D01*
X9399664Y-13730621D01*
X9413950Y-13702050D01*
X9442521Y-13687764D01*
X9485378Y-13687764D01*
X9513950Y-13702050D01*
X9628236Y-14002050D02*
X9642521Y-13987764D01*
X9671093Y-13944907D01*
X9685378Y-13916336D01*
X9699664Y-13873479D01*
X9713950Y-13802050D01*
X9713950Y-13744907D01*
X9699664Y-13673479D01*
X9685378Y-13630621D01*
X9671093Y-13602050D01*
X9642521Y-13559193D01*
X9628236Y-13544907D01*
X1985770Y-14179870D02*
X1985770Y-14116230D01*
X1922130Y-14116230D01*
X1922130Y-14179870D01*
X1985770Y-14179870D01*
X2342521Y-13983764D02*
X2371093Y-13983764D01*
X2399664Y-13998050D01*
X2413950Y-14012336D01*
X2428236Y-14040907D01*
X2442521Y-14098050D01*
X2442521Y-14169479D01*
X2428236Y-14226621D01*
X2413950Y-14255193D01*
X2399664Y-14269479D01*
X2371093Y-14283764D01*
X2342521Y-14283764D01*
X2313950Y-14269479D01*
X2299664Y-14255193D01*
X2285378Y-14226621D01*
X2271093Y-14169479D01*
X2271093Y-14098050D01*
X2285378Y-14040907D01*
X2299664Y-14012336D01*
X2313950Y-13998050D01*
X2342521Y-13983764D01*
X2571093Y-14255193D02*
X2585378Y-14269479D01*
X2571093Y-14283764D01*
X2556807Y-14269479D01*
X2571093Y-14255193D01*
X2571093Y-14283764D01*
X2728236Y-14283764D02*
X2785378Y-14283764D01*
X2813950Y-14269479D01*
X2828236Y-14255193D01*
X2856807Y-14212336D01*
X2871093Y-14155193D01*
X2871093Y-14040907D01*
X2856807Y-14012336D01*
X2842521Y-13998050D01*
X2813950Y-13983764D01*
X2756807Y-13983764D01*
X2728236Y-13998050D01*
X2713950Y-14012336D01*
X2699664Y-14040907D01*
X2699664Y-14112336D01*
X2713950Y-14140907D01*
X2728236Y-14155193D01*
X2756807Y-14169479D01*
X2813950Y-14169479D01*
X2842521Y-14155193D01*
X2856807Y-14140907D01*
X2871093Y-14112336D01*
X3056807Y-13983764D02*
X3085378Y-13983764D01*
X3113950Y-13998050D01*
X3128236Y-14012336D01*
X3142521Y-14040907D01*
X3156807Y-14098050D01*
X3156807Y-14169479D01*
X3142521Y-14226621D01*
X3128236Y-14255193D01*
X3113950Y-14269479D01*
X3085378Y-14283764D01*
X3056807Y-14283764D01*
X3028236Y-14269479D01*
X3013950Y-14255193D01*
X2999664Y-14226621D01*
X2985378Y-14169479D01*
X2985378Y-14098050D01*
X2999664Y-14040907D01*
X3013950Y-14012336D01*
X3028236Y-13998050D01*
X3056807Y-13983764D01*
X3342521Y-13983764D02*
X3371093Y-13983764D01*
X3399664Y-13998050D01*
X3413950Y-14012336D01*
X3428236Y-14040907D01*
X3442521Y-14098050D01*
X3442521Y-14169479D01*
X3428236Y-14226621D01*
X3413950Y-14255193D01*
X3399664Y-14269479D01*
X3371093Y-14283764D01*
X3342521Y-14283764D01*
X3313950Y-14269479D01*
X3299664Y-14255193D01*
X3285378Y-14226621D01*
X3271093Y-14169479D01*
X3271093Y-14098050D01*
X3285378Y-14040907D01*
X3299664Y-14012336D01*
X3313950Y-13998050D01*
X3342521Y-13983764D01*
X3571093Y-14283764D02*
X3571093Y-14083764D01*
X3571093Y-14112336D02*
X3585378Y-14098050D01*
X3613950Y-14083764D01*
X3656807Y-14083764D01*
X3685378Y-14098050D01*
X3699664Y-14126621D01*
X3699664Y-14283764D01*
X3699664Y-14126621D02*
X3713950Y-14098050D01*
X3742521Y-14083764D01*
X3785378Y-14083764D01*
X3813950Y-14098050D01*
X3828236Y-14126621D01*
X3828236Y-14283764D01*
X3971093Y-14283764D02*
X3971093Y-14083764D01*
X3971093Y-14112336D02*
X3985378Y-14098050D01*
X4013950Y-14083764D01*
X4056807Y-14083764D01*
X4085378Y-14098050D01*
X4099664Y-14126621D01*
X4099664Y-14283764D01*
X4099664Y-14126621D02*
X4113950Y-14098050D01*
X4142521Y-14083764D01*
X4185378Y-14083764D01*
X4213950Y-14098050D01*
X4228236Y-14126621D01*
X4228236Y-14283764D01*
X4813950Y-13969479D02*
X4556807Y-14355193D01*
X5199664Y-13983764D02*
X5228236Y-13983764D01*
X5256807Y-13998050D01*
X5271093Y-14012336D01*
X5285378Y-14040907D01*
X5299664Y-14098050D01*
X5299664Y-14169479D01*
X5285378Y-14226621D01*
X5271093Y-14255193D01*
X5256807Y-14269479D01*
X5228236Y-14283764D01*
X5199664Y-14283764D01*
X5171093Y-14269479D01*
X5156807Y-14255193D01*
X5142521Y-14226621D01*
X5128236Y-14169479D01*
X5128236Y-14098050D01*
X5142521Y-14040907D01*
X5156807Y-14012336D01*
X5171093Y-13998050D01*
X5199664Y-13983764D01*
X5428236Y-14255193D02*
X5442521Y-14269479D01*
X5428236Y-14283764D01*
X5413950Y-14269479D01*
X5428236Y-14255193D01*
X5428236Y-14283764D01*
X5628236Y-13983764D02*
X5656807Y-13983764D01*
X5685378Y-13998050D01*
X5699664Y-14012336D01*
X5713950Y-14040907D01*
X5728236Y-14098050D01*
X5728236Y-14169479D01*
X5713950Y-14226621D01*
X5699664Y-14255193D01*
X5685378Y-14269479D01*
X5656807Y-14283764D01*
X5628236Y-14283764D01*
X5599664Y-14269479D01*
X5585378Y-14255193D01*
X5571093Y-14226621D01*
X5556807Y-14169479D01*
X5556807Y-14098050D01*
X5571093Y-14040907D01*
X5585378Y-14012336D01*
X5599664Y-13998050D01*
X5628236Y-13983764D01*
X5828236Y-13983764D02*
X6013950Y-13983764D01*
X5913950Y-14098050D01*
X5956807Y-14098050D01*
X5985378Y-14112336D01*
X5999664Y-14126621D01*
X6013950Y-14155193D01*
X6013950Y-14226621D01*
X5999664Y-14255193D01*
X5985378Y-14269479D01*
X5956807Y-14283764D01*
X5871093Y-14283764D01*
X5842521Y-14269479D01*
X5828236Y-14255193D01*
X6285378Y-13983764D02*
X6142521Y-13983764D01*
X6128236Y-14126621D01*
X6142521Y-14112336D01*
X6171093Y-14098050D01*
X6242521Y-14098050D01*
X6271093Y-14112336D01*
X6285378Y-14126621D01*
X6299664Y-14155193D01*
X6299664Y-14226621D01*
X6285378Y-14255193D01*
X6271093Y-14269479D01*
X6242521Y-14283764D01*
X6171093Y-14283764D01*
X6142521Y-14269479D01*
X6128236Y-14255193D01*
X6556807Y-14083764D02*
X6556807Y-14283764D01*
X6485378Y-13969479D02*
X6413950Y-14183764D01*
X6599664Y-14183764D01*
X6699664Y-13983764D02*
X6699664Y-14040907D01*
X6813950Y-13983764D02*
X6813950Y-14040907D01*
X7256807Y-14398050D02*
X7242521Y-14383764D01*
X7213950Y-14340907D01*
X7199664Y-14312336D01*
X7185378Y-14269479D01*
X7171093Y-14198050D01*
X7171093Y-14140907D01*
X7185378Y-14069479D01*
X7199664Y-14026621D01*
X7213950Y-13998050D01*
X7242521Y-13955193D01*
X7256807Y-13940907D01*
X7499664Y-13983764D02*
X7442521Y-13983764D01*
X7413950Y-13998050D01*
X7399664Y-14012336D01*
X7371093Y-14055193D01*
X7356807Y-14112336D01*
X7356807Y-14226621D01*
X7371093Y-14255193D01*
X7385378Y-14269479D01*
X7413950Y-14283764D01*
X7471093Y-14283764D01*
X7499664Y-14269479D01*
X7513950Y-14255193D01*
X7528236Y-14226621D01*
X7528236Y-14155193D01*
X7513950Y-14126621D01*
X7499664Y-14112336D01*
X7471093Y-14098050D01*
X7413950Y-14098050D01*
X7385378Y-14112336D01*
X7371093Y-14126621D01*
X7356807Y-14155193D01*
X7885378Y-14283764D02*
X7885378Y-13983764D01*
X8013950Y-14283764D02*
X8013950Y-14126621D01*
X7999664Y-14098050D01*
X7971093Y-14083764D01*
X7928236Y-14083764D01*
X7899664Y-14098050D01*
X7885378Y-14112336D01*
X8199664Y-14283764D02*
X8171093Y-14269479D01*
X8156807Y-14255193D01*
X8142521Y-14226621D01*
X8142521Y-14140907D01*
X8156807Y-14112336D01*
X8171093Y-14098050D01*
X8199664Y-14083764D01*
X8242521Y-14083764D01*
X8271093Y-14098050D01*
X8285378Y-14112336D01*
X8299664Y-14140907D01*
X8299664Y-14226621D01*
X8285378Y-14255193D01*
X8271093Y-14269479D01*
X8242521Y-14283764D01*
X8199664Y-14283764D01*
X8471093Y-14283764D02*
X8442521Y-14269479D01*
X8428236Y-14240907D01*
X8428236Y-13983764D01*
X8699664Y-14269479D02*
X8671093Y-14283764D01*
X8613950Y-14283764D01*
X8585378Y-14269479D01*
X8571093Y-14240907D01*
X8571093Y-14126621D01*
X8585378Y-14098050D01*
X8613950Y-14083764D01*
X8671093Y-14083764D01*
X8699664Y-14098050D01*
X8713950Y-14126621D01*
X8713950Y-14155193D01*
X8571093Y-14183764D01*
X8828236Y-14269479D02*
X8856807Y-14283764D01*
X8913950Y-14283764D01*
X8942521Y-14269479D01*
X8956807Y-14240907D01*
X8956807Y-14226621D01*
X8942521Y-14198050D01*
X8913950Y-14183764D01*
X8871093Y-14183764D01*
X8842521Y-14169479D01*
X8828236Y-14140907D01*
X8828236Y-14126621D01*
X8842521Y-14098050D01*
X8871093Y-14083764D01*
X8913950Y-14083764D01*
X8942521Y-14098050D01*
X9056807Y-14398050D02*
X9071093Y-14383764D01*
X9099664Y-14340907D01*
X9113950Y-14312336D01*
X9128236Y-14269479D01*
X9142521Y-14198050D01*
X9142521Y-14140907D01*
X9128236Y-14069479D01*
X9113950Y-14026621D01*
X9099664Y-13998050D01*
X9071093Y-13955193D01*
X9056807Y-13940907D01*
X1951450Y-14591550D02*
X1998950Y-14544050D01*
X1951450Y-14496550D01*
X1903950Y-14544050D01*
X1951450Y-14591550D01*
X2342521Y-14379764D02*
X2371093Y-14379764D01*
X2399664Y-14394050D01*
X2413950Y-14408336D01*
X2428236Y-14436907D01*
X2442521Y-14494050D01*
X2442521Y-14565479D01*
X2428236Y-14622621D01*
X2413950Y-14651193D01*
X2399664Y-14665479D01*
X2371093Y-14679764D01*
X2342521Y-14679764D01*
X2313950Y-14665479D01*
X2299664Y-14651193D01*
X2285378Y-14622621D01*
X2271093Y-14565479D01*
X2271093Y-14494050D01*
X2285378Y-14436907D01*
X2299664Y-14408336D01*
X2313950Y-14394050D01*
X2342521Y-14379764D01*
X2571093Y-14651193D02*
X2585378Y-14665479D01*
X2571093Y-14679764D01*
X2556807Y-14665479D01*
X2571093Y-14651193D01*
X2571093Y-14679764D01*
X2728236Y-14679764D02*
X2785378Y-14679764D01*
X2813950Y-14665479D01*
X2828236Y-14651193D01*
X2856807Y-14608336D01*
X2871093Y-14551193D01*
X2871093Y-14436907D01*
X2856807Y-14408336D01*
X2842521Y-14394050D01*
X2813950Y-14379764D01*
X2756807Y-14379764D01*
X2728236Y-14394050D01*
X2713950Y-14408336D01*
X2699664Y-14436907D01*
X2699664Y-14508336D01*
X2713950Y-14536907D01*
X2728236Y-14551193D01*
X2756807Y-14565479D01*
X2813950Y-14565479D01*
X2842521Y-14551193D01*
X2856807Y-14536907D01*
X2871093Y-14508336D01*
X3142521Y-14379764D02*
X2999664Y-14379764D01*
X2985378Y-14522621D01*
X2999664Y-14508336D01*
X3028236Y-14494050D01*
X3099664Y-14494050D01*
X3128236Y-14508336D01*
X3142521Y-14522621D01*
X3156807Y-14551193D01*
X3156807Y-14622621D01*
X3142521Y-14651193D01*
X3128236Y-14665479D01*
X3099664Y-14679764D01*
X3028236Y-14679764D01*
X2999664Y-14665479D01*
X2985378Y-14651193D01*
X3342521Y-14379764D02*
X3371093Y-14379764D01*
X3399664Y-14394050D01*
X3413950Y-14408336D01*
X3428236Y-14436907D01*
X3442521Y-14494050D01*
X3442521Y-14565479D01*
X3428236Y-14622621D01*
X3413950Y-14651193D01*
X3399664Y-14665479D01*
X3371093Y-14679764D01*
X3342521Y-14679764D01*
X3313950Y-14665479D01*
X3299664Y-14651193D01*
X3285378Y-14622621D01*
X3271093Y-14565479D01*
X3271093Y-14494050D01*
X3285378Y-14436907D01*
X3299664Y-14408336D01*
X3313950Y-14394050D01*
X3342521Y-14379764D01*
X3571093Y-14679764D02*
X3571093Y-14479764D01*
X3571093Y-14508336D02*
X3585378Y-14494050D01*
X3613950Y-14479764D01*
X3656807Y-14479764D01*
X3685378Y-14494050D01*
X3699664Y-14522621D01*
X3699664Y-14679764D01*
X3699664Y-14522621D02*
X3713950Y-14494050D01*
X3742521Y-14479764D01*
X3785378Y-14479764D01*
X3813950Y-14494050D01*
X3828236Y-14522621D01*
X3828236Y-14679764D01*
X3971093Y-14679764D02*
X3971093Y-14479764D01*
X3971093Y-14508336D02*
X3985378Y-14494050D01*
X4013950Y-14479764D01*
X4056807Y-14479764D01*
X4085378Y-14494050D01*
X4099664Y-14522621D01*
X4099664Y-14679764D01*
X4099664Y-14522621D02*
X4113950Y-14494050D01*
X4142521Y-14479764D01*
X4185378Y-14479764D01*
X4213950Y-14494050D01*
X4228236Y-14522621D01*
X4228236Y-14679764D01*
X4813950Y-14365479D02*
X4556807Y-14751193D01*
X5199664Y-14379764D02*
X5228236Y-14379764D01*
X5256807Y-14394050D01*
X5271093Y-14408336D01*
X5285378Y-14436907D01*
X5299664Y-14494050D01*
X5299664Y-14565479D01*
X5285378Y-14622621D01*
X5271093Y-14651193D01*
X5256807Y-14665479D01*
X5228236Y-14679764D01*
X5199664Y-14679764D01*
X5171093Y-14665479D01*
X5156807Y-14651193D01*
X5142521Y-14622621D01*
X5128236Y-14565479D01*
X5128236Y-14494050D01*
X5142521Y-14436907D01*
X5156807Y-14408336D01*
X5171093Y-14394050D01*
X5199664Y-14379764D01*
X5428236Y-14651193D02*
X5442521Y-14665479D01*
X5428236Y-14679764D01*
X5413950Y-14665479D01*
X5428236Y-14651193D01*
X5428236Y-14679764D01*
X5628236Y-14379764D02*
X5656807Y-14379764D01*
X5685378Y-14394050D01*
X5699664Y-14408336D01*
X5713950Y-14436907D01*
X5728236Y-14494050D01*
X5728236Y-14565479D01*
X5713950Y-14622621D01*
X5699664Y-14651193D01*
X5685378Y-14665479D01*
X5656807Y-14679764D01*
X5628236Y-14679764D01*
X5599664Y-14665479D01*
X5585378Y-14651193D01*
X5571093Y-14622621D01*
X5556807Y-14565479D01*
X5556807Y-14494050D01*
X5571093Y-14436907D01*
X5585378Y-14408336D01*
X5599664Y-14394050D01*
X5628236Y-14379764D01*
X5828236Y-14379764D02*
X6013950Y-14379764D01*
X5913950Y-14494050D01*
X5956807Y-14494050D01*
X5985378Y-14508336D01*
X5999664Y-14522621D01*
X6013950Y-14551193D01*
X6013950Y-14622621D01*
X5999664Y-14651193D01*
X5985378Y-14665479D01*
X5956807Y-14679764D01*
X5871093Y-14679764D01*
X5842521Y-14665479D01*
X5828236Y-14651193D01*
X6113950Y-14379764D02*
X6313950Y-14379764D01*
X6185378Y-14679764D01*
X6556807Y-14479764D02*
X6556807Y-14679764D01*
X6485378Y-14365479D02*
X6413950Y-14579764D01*
X6599664Y-14579764D01*
X6699664Y-14379764D02*
X6699664Y-14436907D01*
X6813950Y-14379764D02*
X6813950Y-14436907D01*
X7256807Y-14794050D02*
X7242521Y-14779764D01*
X7213950Y-14736907D01*
X7199664Y-14708336D01*
X7185378Y-14665479D01*
X7171093Y-14594050D01*
X7171093Y-14536907D01*
X7185378Y-14465479D01*
X7199664Y-14422621D01*
X7213950Y-14394050D01*
X7242521Y-14351193D01*
X7256807Y-14336907D01*
X7499664Y-14479764D02*
X7499664Y-14679764D01*
X7428236Y-14365479D02*
X7356807Y-14579764D01*
X7542521Y-14579764D01*
X7885378Y-14679764D02*
X7885378Y-14379764D01*
X8013950Y-14679764D02*
X8013950Y-14522621D01*
X7999664Y-14494050D01*
X7971093Y-14479764D01*
X7928236Y-14479764D01*
X7899664Y-14494050D01*
X7885378Y-14508336D01*
X8199664Y-14679764D02*
X8171093Y-14665479D01*
X8156807Y-14651193D01*
X8142521Y-14622621D01*
X8142521Y-14536907D01*
X8156807Y-14508336D01*
X8171093Y-14494050D01*
X8199664Y-14479764D01*
X8242521Y-14479764D01*
X8271093Y-14494050D01*
X8285378Y-14508336D01*
X8299664Y-14536907D01*
X8299664Y-14622621D01*
X8285378Y-14651193D01*
X8271093Y-14665479D01*
X8242521Y-14679764D01*
X8199664Y-14679764D01*
X8471093Y-14679764D02*
X8442521Y-14665479D01*
X8428236Y-14636907D01*
X8428236Y-14379764D01*
X8699664Y-14665479D02*
X8671093Y-14679764D01*
X8613950Y-14679764D01*
X8585378Y-14665479D01*
X8571093Y-14636907D01*
X8571093Y-14522621D01*
X8585378Y-14494050D01*
X8613950Y-14479764D01*
X8671093Y-14479764D01*
X8699664Y-14494050D01*
X8713950Y-14522621D01*
X8713950Y-14551193D01*
X8571093Y-14579764D01*
X8828236Y-14665479D02*
X8856807Y-14679764D01*
X8913950Y-14679764D01*
X8942521Y-14665479D01*
X8956807Y-14636907D01*
X8956807Y-14622621D01*
X8942521Y-14594050D01*
X8913950Y-14579764D01*
X8871093Y-14579764D01*
X8842521Y-14565479D01*
X8828236Y-14536907D01*
X8828236Y-14522621D01*
X8842521Y-14494050D01*
X8871093Y-14479764D01*
X8913950Y-14479764D01*
X8942521Y-14494050D01*
X9056807Y-14794050D02*
X9071093Y-14779764D01*
X9099664Y-14736907D01*
X9113950Y-14708336D01*
X9128236Y-14665479D01*
X9142521Y-14594050D01*
X9142521Y-14536907D01*
X9128236Y-14465479D01*
X9113950Y-14422621D01*
X9099664Y-14394050D01*
X9071093Y-14351193D01*
X9056807Y-14336907D01*
X1898950Y-14890050D02*
X1998950Y-14990050D01*
X1998950Y-14890050D02*
X1898950Y-14990050D01*
X1998950Y-14940050D02*
G75*
G03*
X1998950Y-14940050I-50000J0D01*
G01*
X2442521Y-15075764D02*
X2271093Y-15075764D01*
X2356807Y-15075764D02*
X2356807Y-14775764D01*
X2328236Y-14818621D01*
X2299664Y-14847193D01*
X2271093Y-14861479D01*
X2571093Y-15047193D02*
X2585378Y-15061479D01*
X2571093Y-15075764D01*
X2556807Y-15061479D01*
X2571093Y-15047193D01*
X2571093Y-15075764D01*
X2771093Y-14775764D02*
X2799664Y-14775764D01*
X2828236Y-14790050D01*
X2842521Y-14804336D01*
X2856807Y-14832907D01*
X2871093Y-14890050D01*
X2871093Y-14961479D01*
X2856807Y-15018621D01*
X2842521Y-15047193D01*
X2828236Y-15061479D01*
X2799664Y-15075764D01*
X2771093Y-15075764D01*
X2742521Y-15061479D01*
X2728236Y-15047193D01*
X2713950Y-15018621D01*
X2699664Y-14961479D01*
X2699664Y-14890050D01*
X2713950Y-14832907D01*
X2728236Y-14804336D01*
X2742521Y-14790050D01*
X2771093Y-14775764D01*
X3056807Y-14775764D02*
X3085378Y-14775764D01*
X3113950Y-14790050D01*
X3128236Y-14804336D01*
X3142521Y-14832907D01*
X3156807Y-14890050D01*
X3156807Y-14961479D01*
X3142521Y-15018621D01*
X3128236Y-15047193D01*
X3113950Y-15061479D01*
X3085378Y-15075764D01*
X3056807Y-15075764D01*
X3028236Y-15061479D01*
X3013950Y-15047193D01*
X2999664Y-15018621D01*
X2985378Y-14961479D01*
X2985378Y-14890050D01*
X2999664Y-14832907D01*
X3013950Y-14804336D01*
X3028236Y-14790050D01*
X3056807Y-14775764D01*
X3342521Y-14775764D02*
X3371093Y-14775764D01*
X3399664Y-14790050D01*
X3413950Y-14804336D01*
X3428236Y-14832907D01*
X3442521Y-14890050D01*
X3442521Y-14961479D01*
X3428236Y-15018621D01*
X3413950Y-15047193D01*
X3399664Y-15061479D01*
X3371093Y-15075764D01*
X3342521Y-15075764D01*
X3313950Y-15061479D01*
X3299664Y-15047193D01*
X3285378Y-15018621D01*
X3271093Y-14961479D01*
X3271093Y-14890050D01*
X3285378Y-14832907D01*
X3299664Y-14804336D01*
X3313950Y-14790050D01*
X3342521Y-14775764D01*
X3571093Y-15075764D02*
X3571093Y-14875764D01*
X3571093Y-14904336D02*
X3585378Y-14890050D01*
X3613950Y-14875764D01*
X3656807Y-14875764D01*
X3685378Y-14890050D01*
X3699664Y-14918621D01*
X3699664Y-15075764D01*
X3699664Y-14918621D02*
X3713950Y-14890050D01*
X3742521Y-14875764D01*
X3785378Y-14875764D01*
X3813950Y-14890050D01*
X3828236Y-14918621D01*
X3828236Y-15075764D01*
X3971093Y-15075764D02*
X3971093Y-14875764D01*
X3971093Y-14904336D02*
X3985378Y-14890050D01*
X4013950Y-14875764D01*
X4056807Y-14875764D01*
X4085378Y-14890050D01*
X4099664Y-14918621D01*
X4099664Y-15075764D01*
X4099664Y-14918621D02*
X4113950Y-14890050D01*
X4142521Y-14875764D01*
X4185378Y-14875764D01*
X4213950Y-14890050D01*
X4228236Y-14918621D01*
X4228236Y-15075764D01*
X4813950Y-14761479D02*
X4556807Y-15147193D01*
X5199664Y-14775764D02*
X5228236Y-14775764D01*
X5256807Y-14790050D01*
X5271093Y-14804336D01*
X5285378Y-14832907D01*
X5299664Y-14890050D01*
X5299664Y-14961479D01*
X5285378Y-15018621D01*
X5271093Y-15047193D01*
X5256807Y-15061479D01*
X5228236Y-15075764D01*
X5199664Y-15075764D01*
X5171093Y-15061479D01*
X5156807Y-15047193D01*
X5142521Y-15018621D01*
X5128236Y-14961479D01*
X5128236Y-14890050D01*
X5142521Y-14832907D01*
X5156807Y-14804336D01*
X5171093Y-14790050D01*
X5199664Y-14775764D01*
X5428236Y-15047193D02*
X5442521Y-15061479D01*
X5428236Y-15075764D01*
X5413950Y-15061479D01*
X5428236Y-15047193D01*
X5428236Y-15075764D01*
X5628236Y-14775764D02*
X5656807Y-14775764D01*
X5685378Y-14790050D01*
X5699664Y-14804336D01*
X5713950Y-14832907D01*
X5728236Y-14890050D01*
X5728236Y-14961479D01*
X5713950Y-15018621D01*
X5699664Y-15047193D01*
X5685378Y-15061479D01*
X5656807Y-15075764D01*
X5628236Y-15075764D01*
X5599664Y-15061479D01*
X5585378Y-15047193D01*
X5571093Y-15018621D01*
X5556807Y-14961479D01*
X5556807Y-14890050D01*
X5571093Y-14832907D01*
X5585378Y-14804336D01*
X5599664Y-14790050D01*
X5628236Y-14775764D01*
X5828236Y-14775764D02*
X6013950Y-14775764D01*
X5913950Y-14890050D01*
X5956807Y-14890050D01*
X5985378Y-14904336D01*
X5999664Y-14918621D01*
X6013950Y-14947193D01*
X6013950Y-15018621D01*
X5999664Y-15047193D01*
X5985378Y-15061479D01*
X5956807Y-15075764D01*
X5871093Y-15075764D01*
X5842521Y-15061479D01*
X5828236Y-15047193D01*
X6156807Y-15075764D02*
X6213950Y-15075764D01*
X6242521Y-15061479D01*
X6256807Y-15047193D01*
X6285378Y-15004336D01*
X6299664Y-14947193D01*
X6299664Y-14832907D01*
X6285378Y-14804336D01*
X6271093Y-14790050D01*
X6242521Y-14775764D01*
X6185378Y-14775764D01*
X6156807Y-14790050D01*
X6142521Y-14804336D01*
X6128236Y-14832907D01*
X6128236Y-14904336D01*
X6142521Y-14932907D01*
X6156807Y-14947193D01*
X6185378Y-14961479D01*
X6242521Y-14961479D01*
X6271093Y-14947193D01*
X6285378Y-14932907D01*
X6299664Y-14904336D01*
X6556807Y-14875764D02*
X6556807Y-15075764D01*
X6485378Y-14761479D02*
X6413950Y-14975764D01*
X6599664Y-14975764D01*
X6699664Y-14775764D02*
X6699664Y-14832907D01*
X6813950Y-14775764D02*
X6813950Y-14832907D01*
X7256807Y-15190050D02*
X7242521Y-15175764D01*
X7213950Y-15132907D01*
X7199664Y-15104336D01*
X7185378Y-15061479D01*
X7171093Y-14990050D01*
X7171093Y-14932907D01*
X7185378Y-14861479D01*
X7199664Y-14818621D01*
X7213950Y-14790050D01*
X7242521Y-14747193D01*
X7256807Y-14732907D01*
X7528236Y-15075764D02*
X7356807Y-15075764D01*
X7442521Y-15075764D02*
X7442521Y-14775764D01*
X7413950Y-14818621D01*
X7385378Y-14847193D01*
X7356807Y-14861479D01*
X7628236Y-14775764D02*
X7813950Y-14775764D01*
X7713950Y-14890050D01*
X7756807Y-14890050D01*
X7785378Y-14904336D01*
X7799664Y-14918621D01*
X7813950Y-14947193D01*
X7813950Y-15018621D01*
X7799664Y-15047193D01*
X7785378Y-15061479D01*
X7756807Y-15075764D01*
X7671093Y-15075764D01*
X7642521Y-15061479D01*
X7628236Y-15047193D01*
X7999664Y-14775764D02*
X8028236Y-14775764D01*
X8056807Y-14790050D01*
X8071093Y-14804336D01*
X8085378Y-14832907D01*
X8099664Y-14890050D01*
X8099664Y-14961479D01*
X8085378Y-15018621D01*
X8071093Y-15047193D01*
X8056807Y-15061479D01*
X8028236Y-15075764D01*
X7999664Y-15075764D01*
X7971093Y-15061479D01*
X7956807Y-15047193D01*
X7942521Y-15018621D01*
X7928236Y-14961479D01*
X7928236Y-14890050D01*
X7942521Y-14832907D01*
X7956807Y-14804336D01*
X7971093Y-14790050D01*
X7999664Y-14775764D01*
X8456807Y-15075764D02*
X8456807Y-14775764D01*
X8585378Y-15075764D02*
X8585378Y-14918621D01*
X8571093Y-14890050D01*
X8542521Y-14875764D01*
X8499664Y-14875764D01*
X8471093Y-14890050D01*
X8456807Y-14904336D01*
X8771093Y-15075764D02*
X8742521Y-15061479D01*
X8728236Y-15047193D01*
X8713950Y-15018621D01*
X8713950Y-14932907D01*
X8728236Y-14904336D01*
X8742521Y-14890050D01*
X8771093Y-14875764D01*
X8813950Y-14875764D01*
X8842521Y-14890050D01*
X8856807Y-14904336D01*
X8871093Y-14932907D01*
X8871093Y-15018621D01*
X8856807Y-15047193D01*
X8842521Y-15061479D01*
X8813950Y-15075764D01*
X8771093Y-15075764D01*
X9042521Y-15075764D02*
X9013950Y-15061479D01*
X8999664Y-15032907D01*
X8999664Y-14775764D01*
X9271093Y-15061479D02*
X9242521Y-15075764D01*
X9185378Y-15075764D01*
X9156807Y-15061479D01*
X9142521Y-15032907D01*
X9142521Y-14918621D01*
X9156807Y-14890050D01*
X9185378Y-14875764D01*
X9242521Y-14875764D01*
X9271093Y-14890050D01*
X9285378Y-14918621D01*
X9285378Y-14947193D01*
X9142521Y-14975764D01*
X9399664Y-15061479D02*
X9428236Y-15075764D01*
X9485378Y-15075764D01*
X9513950Y-15061479D01*
X9528236Y-15032907D01*
X9528236Y-15018621D01*
X9513950Y-14990050D01*
X9485378Y-14975764D01*
X9442521Y-14975764D01*
X9413950Y-14961479D01*
X9399664Y-14932907D01*
X9399664Y-14918621D01*
X9413950Y-14890050D01*
X9442521Y-14875764D01*
X9485378Y-14875764D01*
X9513950Y-14890050D01*
X9885378Y-14961479D02*
X10113950Y-14961479D01*
X9999664Y-15075764D02*
X9999664Y-14847193D01*
X10456807Y-14775764D02*
X10642521Y-14775764D01*
X10542521Y-14890050D01*
X10585378Y-14890050D01*
X10613950Y-14904336D01*
X10628236Y-14918621D01*
X10642521Y-14947193D01*
X10642521Y-15018621D01*
X10628236Y-15047193D01*
X10613950Y-15061479D01*
X10585378Y-15075764D01*
X10499664Y-15075764D01*
X10471093Y-15061479D01*
X10456807Y-15047193D01*
X10985378Y-15061479D02*
X11013950Y-15075764D01*
X11071093Y-15075764D01*
X11099664Y-15061479D01*
X11113950Y-15032907D01*
X11113950Y-15018621D01*
X11099664Y-14990050D01*
X11071093Y-14975764D01*
X11028236Y-14975764D01*
X10999664Y-14961479D01*
X10985378Y-14932907D01*
X10985378Y-14918621D01*
X10999664Y-14890050D01*
X11028236Y-14875764D01*
X11071093Y-14875764D01*
X11099664Y-14890050D01*
X11285378Y-15075764D02*
X11256807Y-15061479D01*
X11242521Y-15032907D01*
X11242521Y-14775764D01*
X11442521Y-15075764D02*
X11413950Y-15061479D01*
X11399664Y-15047193D01*
X11385378Y-15018621D01*
X11385378Y-14932907D01*
X11399664Y-14904336D01*
X11413950Y-14890050D01*
X11442521Y-14875764D01*
X11485378Y-14875764D01*
X11513950Y-14890050D01*
X11528236Y-14904336D01*
X11542521Y-14932907D01*
X11542521Y-15018621D01*
X11528236Y-15047193D01*
X11513950Y-15061479D01*
X11485378Y-15075764D01*
X11442521Y-15075764D01*
X11628236Y-14875764D02*
X11742521Y-14875764D01*
X11671093Y-14775764D02*
X11671093Y-15032907D01*
X11685378Y-15061479D01*
X11713950Y-15075764D01*
X11742521Y-15075764D01*
X11828236Y-15061479D02*
X11856807Y-15075764D01*
X11913950Y-15075764D01*
X11942521Y-15061479D01*
X11956807Y-15032907D01*
X11956807Y-15018621D01*
X11942521Y-14990050D01*
X11913950Y-14975764D01*
X11871093Y-14975764D01*
X11842521Y-14961479D01*
X11828236Y-14932907D01*
X11828236Y-14918621D01*
X11842521Y-14890050D01*
X11871093Y-14875764D01*
X11913950Y-14875764D01*
X11942521Y-14890050D01*
X12056807Y-15190050D02*
X12071093Y-15175764D01*
X12099664Y-15132907D01*
X12113950Y-15104336D01*
X12128236Y-15061479D01*
X12142521Y-14990050D01*
X12142521Y-14932907D01*
X12128236Y-14861479D01*
X12113950Y-14818621D01*
X12099664Y-14790050D01*
X12071093Y-14747193D01*
X12056807Y-14732907D01*
X1888950Y-15281050D02*
X1998950Y-15391050D01*
X1998950Y-15281050D02*
X1888950Y-15391050D01*
X1943950Y-15281050D02*
X1943950Y-15391050D01*
X1888950Y-15336050D02*
X1998950Y-15336050D01*
X2442521Y-15471764D02*
X2271093Y-15471764D01*
X2356807Y-15471764D02*
X2356807Y-15171764D01*
X2328236Y-15214621D01*
X2299664Y-15243193D01*
X2271093Y-15257479D01*
X2571093Y-15443193D02*
X2585378Y-15457479D01*
X2571093Y-15471764D01*
X2556807Y-15457479D01*
X2571093Y-15443193D01*
X2571093Y-15471764D01*
X2871093Y-15471764D02*
X2699664Y-15471764D01*
X2785378Y-15471764D02*
X2785378Y-15171764D01*
X2756807Y-15214621D01*
X2728236Y-15243193D01*
X2699664Y-15257479D01*
X3056807Y-15171764D02*
X3085378Y-15171764D01*
X3113950Y-15186050D01*
X3128236Y-15200336D01*
X3142521Y-15228907D01*
X3156807Y-15286050D01*
X3156807Y-15357479D01*
X3142521Y-15414621D01*
X3128236Y-15443193D01*
X3113950Y-15457479D01*
X3085378Y-15471764D01*
X3056807Y-15471764D01*
X3028236Y-15457479D01*
X3013950Y-15443193D01*
X2999664Y-15414621D01*
X2985378Y-15357479D01*
X2985378Y-15286050D01*
X2999664Y-15228907D01*
X3013950Y-15200336D01*
X3028236Y-15186050D01*
X3056807Y-15171764D01*
X3342521Y-15171764D02*
X3371093Y-15171764D01*
X3399664Y-15186050D01*
X3413950Y-15200336D01*
X3428236Y-15228907D01*
X3442521Y-15286050D01*
X3442521Y-15357479D01*
X3428236Y-15414621D01*
X3413950Y-15443193D01*
X3399664Y-15457479D01*
X3371093Y-15471764D01*
X3342521Y-15471764D01*
X3313950Y-15457479D01*
X3299664Y-15443193D01*
X3285378Y-15414621D01*
X3271093Y-15357479D01*
X3271093Y-15286050D01*
X3285378Y-15228907D01*
X3299664Y-15200336D01*
X3313950Y-15186050D01*
X3342521Y-15171764D01*
X3571093Y-15471764D02*
X3571093Y-15271764D01*
X3571093Y-15300336D02*
X3585378Y-15286050D01*
X3613950Y-15271764D01*
X3656807Y-15271764D01*
X3685378Y-15286050D01*
X3699664Y-15314621D01*
X3699664Y-15471764D01*
X3699664Y-15314621D02*
X3713950Y-15286050D01*
X3742521Y-15271764D01*
X3785378Y-15271764D01*
X3813950Y-15286050D01*
X3828236Y-15314621D01*
X3828236Y-15471764D01*
X3971093Y-15471764D02*
X3971093Y-15271764D01*
X3971093Y-15300336D02*
X3985378Y-15286050D01*
X4013950Y-15271764D01*
X4056807Y-15271764D01*
X4085378Y-15286050D01*
X4099664Y-15314621D01*
X4099664Y-15471764D01*
X4099664Y-15314621D02*
X4113950Y-15286050D01*
X4142521Y-15271764D01*
X4185378Y-15271764D01*
X4213950Y-15286050D01*
X4228236Y-15314621D01*
X4228236Y-15471764D01*
X4813950Y-15157479D02*
X4556807Y-15543193D01*
X5199664Y-15171764D02*
X5228236Y-15171764D01*
X5256807Y-15186050D01*
X5271093Y-15200336D01*
X5285378Y-15228907D01*
X5299664Y-15286050D01*
X5299664Y-15357479D01*
X5285378Y-15414621D01*
X5271093Y-15443193D01*
X5256807Y-15457479D01*
X5228236Y-15471764D01*
X5199664Y-15471764D01*
X5171093Y-15457479D01*
X5156807Y-15443193D01*
X5142521Y-15414621D01*
X5128236Y-15357479D01*
X5128236Y-15286050D01*
X5142521Y-15228907D01*
X5156807Y-15200336D01*
X5171093Y-15186050D01*
X5199664Y-15171764D01*
X5428236Y-15443193D02*
X5442521Y-15457479D01*
X5428236Y-15471764D01*
X5413950Y-15457479D01*
X5428236Y-15443193D01*
X5428236Y-15471764D01*
X5628236Y-15171764D02*
X5656807Y-15171764D01*
X5685378Y-15186050D01*
X5699664Y-15200336D01*
X5713950Y-15228907D01*
X5728236Y-15286050D01*
X5728236Y-15357479D01*
X5713950Y-15414621D01*
X5699664Y-15443193D01*
X5685378Y-15457479D01*
X5656807Y-15471764D01*
X5628236Y-15471764D01*
X5599664Y-15457479D01*
X5585378Y-15443193D01*
X5571093Y-15414621D01*
X5556807Y-15357479D01*
X5556807Y-15286050D01*
X5571093Y-15228907D01*
X5585378Y-15200336D01*
X5599664Y-15186050D01*
X5628236Y-15171764D01*
X5985378Y-15271764D02*
X5985378Y-15471764D01*
X5913950Y-15157479D02*
X5842521Y-15371764D01*
X6028236Y-15371764D01*
X6113950Y-15171764D02*
X6299664Y-15171764D01*
X6199664Y-15286050D01*
X6242521Y-15286050D01*
X6271093Y-15300336D01*
X6285378Y-15314621D01*
X6299664Y-15343193D01*
X6299664Y-15414621D01*
X6285378Y-15443193D01*
X6271093Y-15457479D01*
X6242521Y-15471764D01*
X6156807Y-15471764D01*
X6128236Y-15457479D01*
X6113950Y-15443193D01*
X6399664Y-15171764D02*
X6585378Y-15171764D01*
X6485378Y-15286050D01*
X6528236Y-15286050D01*
X6556807Y-15300336D01*
X6571093Y-15314621D01*
X6585378Y-15343193D01*
X6585378Y-15414621D01*
X6571093Y-15443193D01*
X6556807Y-15457479D01*
X6528236Y-15471764D01*
X6442521Y-15471764D01*
X6413950Y-15457479D01*
X6399664Y-15443193D01*
X6699664Y-15171764D02*
X6699664Y-15228907D01*
X6813950Y-15171764D02*
X6813950Y-15228907D01*
X7256807Y-15586050D02*
X7242521Y-15571764D01*
X7213950Y-15528907D01*
X7199664Y-15500336D01*
X7185378Y-15457479D01*
X7171093Y-15386050D01*
X7171093Y-15328907D01*
X7185378Y-15257479D01*
X7199664Y-15214621D01*
X7213950Y-15186050D01*
X7242521Y-15143193D01*
X7256807Y-15128907D01*
X7342521Y-15171764D02*
X7542521Y-15171764D01*
X7413950Y-15471764D01*
X7885378Y-15471764D02*
X7885378Y-15171764D01*
X8013950Y-15471764D02*
X8013950Y-15314621D01*
X7999664Y-15286050D01*
X7971093Y-15271764D01*
X7928236Y-15271764D01*
X7899664Y-15286050D01*
X7885378Y-15300336D01*
X8199664Y-15471764D02*
X8171093Y-15457479D01*
X8156807Y-15443193D01*
X8142521Y-15414621D01*
X8142521Y-15328907D01*
X8156807Y-15300336D01*
X8171093Y-15286050D01*
X8199664Y-15271764D01*
X8242521Y-15271764D01*
X8271093Y-15286050D01*
X8285378Y-15300336D01*
X8299664Y-15328907D01*
X8299664Y-15414621D01*
X8285378Y-15443193D01*
X8271093Y-15457479D01*
X8242521Y-15471764D01*
X8199664Y-15471764D01*
X8471093Y-15471764D02*
X8442521Y-15457479D01*
X8428236Y-15428907D01*
X8428236Y-15171764D01*
X8699664Y-15457479D02*
X8671093Y-15471764D01*
X8613950Y-15471764D01*
X8585378Y-15457479D01*
X8571093Y-15428907D01*
X8571093Y-15314621D01*
X8585378Y-15286050D01*
X8613950Y-15271764D01*
X8671093Y-15271764D01*
X8699664Y-15286050D01*
X8713950Y-15314621D01*
X8713950Y-15343193D01*
X8571093Y-15371764D01*
X8828236Y-15457479D02*
X8856807Y-15471764D01*
X8913950Y-15471764D01*
X8942521Y-15457479D01*
X8956807Y-15428907D01*
X8956807Y-15414621D01*
X8942521Y-15386050D01*
X8913950Y-15371764D01*
X8871093Y-15371764D01*
X8842521Y-15357479D01*
X8828236Y-15328907D01*
X8828236Y-15314621D01*
X8842521Y-15286050D01*
X8871093Y-15271764D01*
X8913950Y-15271764D01*
X8942521Y-15286050D01*
X9056807Y-15586050D02*
X9071093Y-15571764D01*
X9099664Y-15528907D01*
X9113950Y-15500336D01*
X9128236Y-15457479D01*
X9142521Y-15386050D01*
X9142521Y-15328907D01*
X9128236Y-15257479D01*
X9113950Y-15214621D01*
X9099664Y-15186050D01*
X9071093Y-15143193D01*
X9056807Y-15128907D01*
X1878950Y-15672050D02*
X1998950Y-15792050D01*
X1998950Y-15672050D02*
X1878950Y-15792050D01*
X1981377Y-15774477D02*
X1981377Y-15689623D01*
X1896523Y-15689623D01*
X1896523Y-15774477D01*
X1981377Y-15774477D01*
X2442521Y-15867764D02*
X2271093Y-15867764D01*
X2356807Y-15867764D02*
X2356807Y-15567764D01*
X2328236Y-15610621D01*
X2299664Y-15639193D01*
X2271093Y-15653479D01*
X2571093Y-15839193D02*
X2585378Y-15853479D01*
X2571093Y-15867764D01*
X2556807Y-15853479D01*
X2571093Y-15839193D01*
X2571093Y-15867764D01*
X2699664Y-15596336D02*
X2713950Y-15582050D01*
X2742521Y-15567764D01*
X2813950Y-15567764D01*
X2842521Y-15582050D01*
X2856807Y-15596336D01*
X2871093Y-15624907D01*
X2871093Y-15653479D01*
X2856807Y-15696336D01*
X2685378Y-15867764D01*
X2871093Y-15867764D01*
X3056807Y-15567764D02*
X3085378Y-15567764D01*
X3113950Y-15582050D01*
X3128236Y-15596336D01*
X3142521Y-15624907D01*
X3156807Y-15682050D01*
X3156807Y-15753479D01*
X3142521Y-15810621D01*
X3128236Y-15839193D01*
X3113950Y-15853479D01*
X3085378Y-15867764D01*
X3056807Y-15867764D01*
X3028236Y-15853479D01*
X3013950Y-15839193D01*
X2999664Y-15810621D01*
X2985378Y-15753479D01*
X2985378Y-15682050D01*
X2999664Y-15624907D01*
X3013950Y-15596336D01*
X3028236Y-15582050D01*
X3056807Y-15567764D01*
X3342521Y-15567764D02*
X3371093Y-15567764D01*
X3399664Y-15582050D01*
X3413950Y-15596336D01*
X3428236Y-15624907D01*
X3442521Y-15682050D01*
X3442521Y-15753479D01*
X3428236Y-15810621D01*
X3413950Y-15839193D01*
X3399664Y-15853479D01*
X3371093Y-15867764D01*
X3342521Y-15867764D01*
X3313950Y-15853479D01*
X3299664Y-15839193D01*
X3285378Y-15810621D01*
X3271093Y-15753479D01*
X3271093Y-15682050D01*
X3285378Y-15624907D01*
X3299664Y-15596336D01*
X3313950Y-15582050D01*
X3342521Y-15567764D01*
X3571093Y-15867764D02*
X3571093Y-15667764D01*
X3571093Y-15696336D02*
X3585378Y-15682050D01*
X3613950Y-15667764D01*
X3656807Y-15667764D01*
X3685378Y-15682050D01*
X3699664Y-15710621D01*
X3699664Y-15867764D01*
X3699664Y-15710621D02*
X3713950Y-15682050D01*
X3742521Y-15667764D01*
X3785378Y-15667764D01*
X3813950Y-15682050D01*
X3828236Y-15710621D01*
X3828236Y-15867764D01*
X3971093Y-15867764D02*
X3971093Y-15667764D01*
X3971093Y-15696336D02*
X3985378Y-15682050D01*
X4013950Y-15667764D01*
X4056807Y-15667764D01*
X4085378Y-15682050D01*
X4099664Y-15710621D01*
X4099664Y-15867764D01*
X4099664Y-15710621D02*
X4113950Y-15682050D01*
X4142521Y-15667764D01*
X4185378Y-15667764D01*
X4213950Y-15682050D01*
X4228236Y-15710621D01*
X4228236Y-15867764D01*
X4813950Y-15553479D02*
X4556807Y-15939193D01*
X5199664Y-15567764D02*
X5228236Y-15567764D01*
X5256807Y-15582050D01*
X5271093Y-15596336D01*
X5285378Y-15624907D01*
X5299664Y-15682050D01*
X5299664Y-15753479D01*
X5285378Y-15810621D01*
X5271093Y-15839193D01*
X5256807Y-15853479D01*
X5228236Y-15867764D01*
X5199664Y-15867764D01*
X5171093Y-15853479D01*
X5156807Y-15839193D01*
X5142521Y-15810621D01*
X5128236Y-15753479D01*
X5128236Y-15682050D01*
X5142521Y-15624907D01*
X5156807Y-15596336D01*
X5171093Y-15582050D01*
X5199664Y-15567764D01*
X5428236Y-15839193D02*
X5442521Y-15853479D01*
X5428236Y-15867764D01*
X5413950Y-15853479D01*
X5428236Y-15839193D01*
X5428236Y-15867764D01*
X5628236Y-15567764D02*
X5656807Y-15567764D01*
X5685378Y-15582050D01*
X5699664Y-15596336D01*
X5713950Y-15624907D01*
X5728236Y-15682050D01*
X5728236Y-15753479D01*
X5713950Y-15810621D01*
X5699664Y-15839193D01*
X5685378Y-15853479D01*
X5656807Y-15867764D01*
X5628236Y-15867764D01*
X5599664Y-15853479D01*
X5585378Y-15839193D01*
X5571093Y-15810621D01*
X5556807Y-15753479D01*
X5556807Y-15682050D01*
X5571093Y-15624907D01*
X5585378Y-15596336D01*
X5599664Y-15582050D01*
X5628236Y-15567764D01*
X5985378Y-15667764D02*
X5985378Y-15867764D01*
X5913950Y-15553479D02*
X5842521Y-15767764D01*
X6028236Y-15767764D01*
X6113950Y-15567764D02*
X6313950Y-15567764D01*
X6185378Y-15867764D01*
X6413950Y-15596336D02*
X6428236Y-15582050D01*
X6456807Y-15567764D01*
X6528236Y-15567764D01*
X6556807Y-15582050D01*
X6571093Y-15596336D01*
X6585378Y-15624907D01*
X6585378Y-15653479D01*
X6571093Y-15696336D01*
X6399664Y-15867764D01*
X6585378Y-15867764D01*
X6699664Y-15567764D02*
X6699664Y-15624907D01*
X6813950Y-15567764D02*
X6813950Y-15624907D01*
X7256807Y-15982050D02*
X7242521Y-15967764D01*
X7213950Y-15924907D01*
X7199664Y-15896336D01*
X7185378Y-15853479D01*
X7171093Y-15782050D01*
X7171093Y-15724907D01*
X7185378Y-15653479D01*
X7199664Y-15610621D01*
X7213950Y-15582050D01*
X7242521Y-15539193D01*
X7256807Y-15524907D01*
X7356807Y-15596336D02*
X7371093Y-15582050D01*
X7399664Y-15567764D01*
X7471093Y-15567764D01*
X7499664Y-15582050D01*
X7513950Y-15596336D01*
X7528236Y-15624907D01*
X7528236Y-15653479D01*
X7513950Y-15696336D01*
X7342521Y-15867764D01*
X7528236Y-15867764D01*
X7885378Y-15867764D02*
X7885378Y-15567764D01*
X8013950Y-15867764D02*
X8013950Y-15710621D01*
X7999664Y-15682050D01*
X7971093Y-15667764D01*
X7928236Y-15667764D01*
X7899664Y-15682050D01*
X7885378Y-15696336D01*
X8199664Y-15867764D02*
X8171093Y-15853479D01*
X8156807Y-15839193D01*
X8142521Y-15810621D01*
X8142521Y-15724907D01*
X8156807Y-15696336D01*
X8171093Y-15682050D01*
X8199664Y-15667764D01*
X8242521Y-15667764D01*
X8271093Y-15682050D01*
X8285378Y-15696336D01*
X8299664Y-15724907D01*
X8299664Y-15810621D01*
X8285378Y-15839193D01*
X8271093Y-15853479D01*
X8242521Y-15867764D01*
X8199664Y-15867764D01*
X8471093Y-15867764D02*
X8442521Y-15853479D01*
X8428236Y-15824907D01*
X8428236Y-15567764D01*
X8699664Y-15853479D02*
X8671093Y-15867764D01*
X8613950Y-15867764D01*
X8585378Y-15853479D01*
X8571093Y-15824907D01*
X8571093Y-15710621D01*
X8585378Y-15682050D01*
X8613950Y-15667764D01*
X8671093Y-15667764D01*
X8699664Y-15682050D01*
X8713950Y-15710621D01*
X8713950Y-15739193D01*
X8571093Y-15767764D01*
X8828236Y-15853479D02*
X8856807Y-15867764D01*
X8913950Y-15867764D01*
X8942521Y-15853479D01*
X8956807Y-15824907D01*
X8956807Y-15810621D01*
X8942521Y-15782050D01*
X8913950Y-15767764D01*
X8871093Y-15767764D01*
X8842521Y-15753479D01*
X8828236Y-15724907D01*
X8828236Y-15710621D01*
X8842521Y-15682050D01*
X8871093Y-15667764D01*
X8913950Y-15667764D01*
X8942521Y-15682050D01*
X9056807Y-15982050D02*
X9071093Y-15967764D01*
X9099664Y-15924907D01*
X9113950Y-15896336D01*
X9128236Y-15853479D01*
X9142521Y-15782050D01*
X9142521Y-15724907D01*
X9128236Y-15653479D01*
X9113950Y-15610621D01*
X9099664Y-15582050D01*
X9071093Y-15539193D01*
X9056807Y-15524907D01*
X1768950Y-16013050D02*
X1998950Y-16243050D01*
X1998950Y-16013050D02*
X1768950Y-16243050D01*
X1883950Y-16243050D02*
X1998950Y-16128050D01*
X1883950Y-16013050D01*
X1768950Y-16128050D01*
X1883950Y-16243050D01*
X2271093Y-15992336D02*
X2285378Y-15978050D01*
X2313950Y-15963764D01*
X2385378Y-15963764D01*
X2413950Y-15978050D01*
X2428236Y-15992336D01*
X2442521Y-16020907D01*
X2442521Y-16049479D01*
X2428236Y-16092336D01*
X2256807Y-16263764D01*
X2442521Y-16263764D01*
X2571093Y-16235193D02*
X2585378Y-16249479D01*
X2571093Y-16263764D01*
X2556807Y-16249479D01*
X2571093Y-16235193D01*
X2571093Y-16263764D01*
X2685378Y-15963764D02*
X2871093Y-15963764D01*
X2771093Y-16078050D01*
X2813950Y-16078050D01*
X2842521Y-16092336D01*
X2856807Y-16106621D01*
X2871093Y-16135193D01*
X2871093Y-16206621D01*
X2856807Y-16235193D01*
X2842521Y-16249479D01*
X2813950Y-16263764D01*
X2728236Y-16263764D01*
X2699664Y-16249479D01*
X2685378Y-16235193D01*
X3056807Y-15963764D02*
X3085378Y-15963764D01*
X3113950Y-15978050D01*
X3128236Y-15992336D01*
X3142521Y-16020907D01*
X3156807Y-16078050D01*
X3156807Y-16149479D01*
X3142521Y-16206621D01*
X3128236Y-16235193D01*
X3113950Y-16249479D01*
X3085378Y-16263764D01*
X3056807Y-16263764D01*
X3028236Y-16249479D01*
X3013950Y-16235193D01*
X2999664Y-16206621D01*
X2985378Y-16149479D01*
X2985378Y-16078050D01*
X2999664Y-16020907D01*
X3013950Y-15992336D01*
X3028236Y-15978050D01*
X3056807Y-15963764D01*
X3342521Y-15963764D02*
X3371093Y-15963764D01*
X3399664Y-15978050D01*
X3413950Y-15992336D01*
X3428236Y-16020907D01*
X3442521Y-16078050D01*
X3442521Y-16149479D01*
X3428236Y-16206621D01*
X3413950Y-16235193D01*
X3399664Y-16249479D01*
X3371093Y-16263764D01*
X3342521Y-16263764D01*
X3313950Y-16249479D01*
X3299664Y-16235193D01*
X3285378Y-16206621D01*
X3271093Y-16149479D01*
X3271093Y-16078050D01*
X3285378Y-16020907D01*
X3299664Y-15992336D01*
X3313950Y-15978050D01*
X3342521Y-15963764D01*
X3571093Y-16263764D02*
X3571093Y-16063764D01*
X3571093Y-16092336D02*
X3585378Y-16078050D01*
X3613950Y-16063764D01*
X3656807Y-16063764D01*
X3685378Y-16078050D01*
X3699664Y-16106621D01*
X3699664Y-16263764D01*
X3699664Y-16106621D02*
X3713950Y-16078050D01*
X3742521Y-16063764D01*
X3785378Y-16063764D01*
X3813950Y-16078050D01*
X3828236Y-16106621D01*
X3828236Y-16263764D01*
X3971093Y-16263764D02*
X3971093Y-16063764D01*
X3971093Y-16092336D02*
X3985378Y-16078050D01*
X4013950Y-16063764D01*
X4056807Y-16063764D01*
X4085378Y-16078050D01*
X4099664Y-16106621D01*
X4099664Y-16263764D01*
X4099664Y-16106621D02*
X4113950Y-16078050D01*
X4142521Y-16063764D01*
X4185378Y-16063764D01*
X4213950Y-16078050D01*
X4228236Y-16106621D01*
X4228236Y-16263764D01*
X4813950Y-15949479D02*
X4556807Y-16335193D01*
X5199664Y-15963764D02*
X5228236Y-15963764D01*
X5256807Y-15978050D01*
X5271093Y-15992336D01*
X5285378Y-16020907D01*
X5299664Y-16078050D01*
X5299664Y-16149479D01*
X5285378Y-16206621D01*
X5271093Y-16235193D01*
X5256807Y-16249479D01*
X5228236Y-16263764D01*
X5199664Y-16263764D01*
X5171093Y-16249479D01*
X5156807Y-16235193D01*
X5142521Y-16206621D01*
X5128236Y-16149479D01*
X5128236Y-16078050D01*
X5142521Y-16020907D01*
X5156807Y-15992336D01*
X5171093Y-15978050D01*
X5199664Y-15963764D01*
X5428236Y-16235193D02*
X5442521Y-16249479D01*
X5428236Y-16263764D01*
X5413950Y-16249479D01*
X5428236Y-16235193D01*
X5428236Y-16263764D01*
X5628236Y-15963764D02*
X5656807Y-15963764D01*
X5685378Y-15978050D01*
X5699664Y-15992336D01*
X5713950Y-16020907D01*
X5728236Y-16078050D01*
X5728236Y-16149479D01*
X5713950Y-16206621D01*
X5699664Y-16235193D01*
X5685378Y-16249479D01*
X5656807Y-16263764D01*
X5628236Y-16263764D01*
X5599664Y-16249479D01*
X5585378Y-16235193D01*
X5571093Y-16206621D01*
X5556807Y-16149479D01*
X5556807Y-16078050D01*
X5571093Y-16020907D01*
X5585378Y-15992336D01*
X5599664Y-15978050D01*
X5628236Y-15963764D01*
X5871093Y-16263764D02*
X5928236Y-16263764D01*
X5956807Y-16249479D01*
X5971093Y-16235193D01*
X5999664Y-16192336D01*
X6013950Y-16135193D01*
X6013950Y-16020907D01*
X5999664Y-15992336D01*
X5985378Y-15978050D01*
X5956807Y-15963764D01*
X5899664Y-15963764D01*
X5871093Y-15978050D01*
X5856807Y-15992336D01*
X5842521Y-16020907D01*
X5842521Y-16092336D01*
X5856807Y-16120907D01*
X5871093Y-16135193D01*
X5899664Y-16149479D01*
X5956807Y-16149479D01*
X5985378Y-16135193D01*
X5999664Y-16120907D01*
X6013950Y-16092336D01*
X6199664Y-15963764D02*
X6228236Y-15963764D01*
X6256807Y-15978050D01*
X6271093Y-15992336D01*
X6285378Y-16020907D01*
X6299664Y-16078050D01*
X6299664Y-16149479D01*
X6285378Y-16206621D01*
X6271093Y-16235193D01*
X6256807Y-16249479D01*
X6228236Y-16263764D01*
X6199664Y-16263764D01*
X6171093Y-16249479D01*
X6156807Y-16235193D01*
X6142521Y-16206621D01*
X6128236Y-16149479D01*
X6128236Y-16078050D01*
X6142521Y-16020907D01*
X6156807Y-15992336D01*
X6171093Y-15978050D01*
X6199664Y-15963764D01*
X6556807Y-15963764D02*
X6499664Y-15963764D01*
X6471093Y-15978050D01*
X6456807Y-15992336D01*
X6428236Y-16035193D01*
X6413950Y-16092336D01*
X6413950Y-16206621D01*
X6428236Y-16235193D01*
X6442521Y-16249479D01*
X6471093Y-16263764D01*
X6528236Y-16263764D01*
X6556807Y-16249479D01*
X6571093Y-16235193D01*
X6585378Y-16206621D01*
X6585378Y-16135193D01*
X6571093Y-16106621D01*
X6556807Y-16092336D01*
X6528236Y-16078050D01*
X6471093Y-16078050D01*
X6442521Y-16092336D01*
X6428236Y-16106621D01*
X6413950Y-16135193D01*
X6699664Y-15963764D02*
X6699664Y-16020907D01*
X6813950Y-15963764D02*
X6813950Y-16020907D01*
X7256807Y-16378050D02*
X7242521Y-16363764D01*
X7213950Y-16320907D01*
X7199664Y-16292336D01*
X7185378Y-16249479D01*
X7171093Y-16178050D01*
X7171093Y-16120907D01*
X7185378Y-16049479D01*
X7199664Y-16006621D01*
X7213950Y-15978050D01*
X7242521Y-15935193D01*
X7256807Y-15920907D01*
X7356807Y-15992336D02*
X7371093Y-15978050D01*
X7399664Y-15963764D01*
X7471093Y-15963764D01*
X7499664Y-15978050D01*
X7513950Y-15992336D01*
X7528236Y-16020907D01*
X7528236Y-16049479D01*
X7513950Y-16092336D01*
X7342521Y-16263764D01*
X7528236Y-16263764D01*
X7885378Y-16263764D02*
X7885378Y-15963764D01*
X8013950Y-16263764D02*
X8013950Y-16106621D01*
X7999664Y-16078050D01*
X7971093Y-16063764D01*
X7928236Y-16063764D01*
X7899664Y-16078050D01*
X7885378Y-16092336D01*
X8199664Y-16263764D02*
X8171093Y-16249479D01*
X8156807Y-16235193D01*
X8142521Y-16206621D01*
X8142521Y-16120907D01*
X8156807Y-16092336D01*
X8171093Y-16078050D01*
X8199664Y-16063764D01*
X8242521Y-16063764D01*
X8271093Y-16078050D01*
X8285378Y-16092336D01*
X8299664Y-16120907D01*
X8299664Y-16206621D01*
X8285378Y-16235193D01*
X8271093Y-16249479D01*
X8242521Y-16263764D01*
X8199664Y-16263764D01*
X8471093Y-16263764D02*
X8442521Y-16249479D01*
X8428236Y-16220907D01*
X8428236Y-15963764D01*
X8699664Y-16249479D02*
X8671093Y-16263764D01*
X8613950Y-16263764D01*
X8585378Y-16249479D01*
X8571093Y-16220907D01*
X8571093Y-16106621D01*
X8585378Y-16078050D01*
X8613950Y-16063764D01*
X8671093Y-16063764D01*
X8699664Y-16078050D01*
X8713950Y-16106621D01*
X8713950Y-16135193D01*
X8571093Y-16163764D01*
X8828236Y-16249479D02*
X8856807Y-16263764D01*
X8913950Y-16263764D01*
X8942521Y-16249479D01*
X8956807Y-16220907D01*
X8956807Y-16206621D01*
X8942521Y-16178050D01*
X8913950Y-16163764D01*
X8871093Y-16163764D01*
X8842521Y-16149479D01*
X8828236Y-16120907D01*
X8828236Y-16106621D01*
X8842521Y-16078050D01*
X8871093Y-16063764D01*
X8913950Y-16063764D01*
X8942521Y-16078050D01*
X9056807Y-16378050D02*
X9071093Y-16363764D01*
X9099664Y-16320907D01*
X9113950Y-16292336D01*
X9128236Y-16249479D01*
X9142521Y-16178050D01*
X9142521Y-16120907D01*
X9128236Y-16049479D01*
X9113950Y-16006621D01*
X9099664Y-15978050D01*
X9071093Y-15935193D01*
X9056807Y-15920907D01*
X1838950Y-16364050D02*
X1838950Y-16684050D01*
X1678950Y-16524050D02*
X1998950Y-16524050D01*
X1998950Y-16524050D02*
G75*
G03*
X1998950Y-16524050I-160000J0D01*
G01*
X2256807Y-16359764D02*
X2442521Y-16359764D01*
X2342521Y-16474050D01*
X2385378Y-16474050D01*
X2413950Y-16488336D01*
X2428236Y-16502621D01*
X2442521Y-16531193D01*
X2442521Y-16602621D01*
X2428236Y-16631193D01*
X2413950Y-16645479D01*
X2385378Y-16659764D01*
X2299664Y-16659764D01*
X2271093Y-16645479D01*
X2256807Y-16631193D01*
X2571093Y-16631193D02*
X2585378Y-16645479D01*
X2571093Y-16659764D01*
X2556807Y-16645479D01*
X2571093Y-16631193D01*
X2571093Y-16659764D01*
X2699664Y-16388336D02*
X2713950Y-16374050D01*
X2742521Y-16359764D01*
X2813950Y-16359764D01*
X2842521Y-16374050D01*
X2856807Y-16388336D01*
X2871093Y-16416907D01*
X2871093Y-16445479D01*
X2856807Y-16488336D01*
X2685378Y-16659764D01*
X2871093Y-16659764D01*
X3056807Y-16359764D02*
X3085378Y-16359764D01*
X3113950Y-16374050D01*
X3128236Y-16388336D01*
X3142521Y-16416907D01*
X3156807Y-16474050D01*
X3156807Y-16545479D01*
X3142521Y-16602621D01*
X3128236Y-16631193D01*
X3113950Y-16645479D01*
X3085378Y-16659764D01*
X3056807Y-16659764D01*
X3028236Y-16645479D01*
X3013950Y-16631193D01*
X2999664Y-16602621D01*
X2985378Y-16545479D01*
X2985378Y-16474050D01*
X2999664Y-16416907D01*
X3013950Y-16388336D01*
X3028236Y-16374050D01*
X3056807Y-16359764D01*
X3342521Y-16359764D02*
X3371093Y-16359764D01*
X3399664Y-16374050D01*
X3413950Y-16388336D01*
X3428236Y-16416907D01*
X3442521Y-16474050D01*
X3442521Y-16545479D01*
X3428236Y-16602621D01*
X3413950Y-16631193D01*
X3399664Y-16645479D01*
X3371093Y-16659764D01*
X3342521Y-16659764D01*
X3313950Y-16645479D01*
X3299664Y-16631193D01*
X3285378Y-16602621D01*
X3271093Y-16545479D01*
X3271093Y-16474050D01*
X3285378Y-16416907D01*
X3299664Y-16388336D01*
X3313950Y-16374050D01*
X3342521Y-16359764D01*
X3571093Y-16659764D02*
X3571093Y-16459764D01*
X3571093Y-16488336D02*
X3585378Y-16474050D01*
X3613950Y-16459764D01*
X3656807Y-16459764D01*
X3685378Y-16474050D01*
X3699664Y-16502621D01*
X3699664Y-16659764D01*
X3699664Y-16502621D02*
X3713950Y-16474050D01*
X3742521Y-16459764D01*
X3785378Y-16459764D01*
X3813950Y-16474050D01*
X3828236Y-16502621D01*
X3828236Y-16659764D01*
X3971093Y-16659764D02*
X3971093Y-16459764D01*
X3971093Y-16488336D02*
X3985378Y-16474050D01*
X4013950Y-16459764D01*
X4056807Y-16459764D01*
X4085378Y-16474050D01*
X4099664Y-16502621D01*
X4099664Y-16659764D01*
X4099664Y-16502621D02*
X4113950Y-16474050D01*
X4142521Y-16459764D01*
X4185378Y-16459764D01*
X4213950Y-16474050D01*
X4228236Y-16502621D01*
X4228236Y-16659764D01*
X4813950Y-16345479D02*
X4556807Y-16731193D01*
X5199664Y-16359764D02*
X5228236Y-16359764D01*
X5256807Y-16374050D01*
X5271093Y-16388336D01*
X5285378Y-16416907D01*
X5299664Y-16474050D01*
X5299664Y-16545479D01*
X5285378Y-16602621D01*
X5271093Y-16631193D01*
X5256807Y-16645479D01*
X5228236Y-16659764D01*
X5199664Y-16659764D01*
X5171093Y-16645479D01*
X5156807Y-16631193D01*
X5142521Y-16602621D01*
X5128236Y-16545479D01*
X5128236Y-16474050D01*
X5142521Y-16416907D01*
X5156807Y-16388336D01*
X5171093Y-16374050D01*
X5199664Y-16359764D01*
X5428236Y-16631193D02*
X5442521Y-16645479D01*
X5428236Y-16659764D01*
X5413950Y-16645479D01*
X5428236Y-16631193D01*
X5428236Y-16659764D01*
X5728236Y-16659764D02*
X5556807Y-16659764D01*
X5642521Y-16659764D02*
X5642521Y-16359764D01*
X5613950Y-16402621D01*
X5585378Y-16431193D01*
X5556807Y-16445479D01*
X5842521Y-16388336D02*
X5856807Y-16374050D01*
X5885378Y-16359764D01*
X5956807Y-16359764D01*
X5985378Y-16374050D01*
X5999664Y-16388336D01*
X6013950Y-16416907D01*
X6013950Y-16445479D01*
X5999664Y-16488336D01*
X5828236Y-16659764D01*
X6013950Y-16659764D01*
X6271093Y-16359764D02*
X6213950Y-16359764D01*
X6185378Y-16374050D01*
X6171093Y-16388336D01*
X6142521Y-16431193D01*
X6128236Y-16488336D01*
X6128236Y-16602621D01*
X6142521Y-16631193D01*
X6156807Y-16645479D01*
X6185378Y-16659764D01*
X6242521Y-16659764D01*
X6271093Y-16645479D01*
X6285378Y-16631193D01*
X6299664Y-16602621D01*
X6299664Y-16531193D01*
X6285378Y-16502621D01*
X6271093Y-16488336D01*
X6242521Y-16474050D01*
X6185378Y-16474050D01*
X6156807Y-16488336D01*
X6142521Y-16502621D01*
X6128236Y-16531193D01*
X6485378Y-16359764D02*
X6513950Y-16359764D01*
X6542521Y-16374050D01*
X6556807Y-16388336D01*
X6571093Y-16416907D01*
X6585378Y-16474050D01*
X6585378Y-16545479D01*
X6571093Y-16602621D01*
X6556807Y-16631193D01*
X6542521Y-16645479D01*
X6513950Y-16659764D01*
X6485378Y-16659764D01*
X6456807Y-16645479D01*
X6442521Y-16631193D01*
X6428236Y-16602621D01*
X6413950Y-16545479D01*
X6413950Y-16474050D01*
X6428236Y-16416907D01*
X6442521Y-16388336D01*
X6456807Y-16374050D01*
X6485378Y-16359764D01*
X6699664Y-16359764D02*
X6699664Y-16416907D01*
X6813950Y-16359764D02*
X6813950Y-16416907D01*
X7256807Y-16774050D02*
X7242521Y-16759764D01*
X7213950Y-16716907D01*
X7199664Y-16688336D01*
X7185378Y-16645479D01*
X7171093Y-16574050D01*
X7171093Y-16516907D01*
X7185378Y-16445479D01*
X7199664Y-16402621D01*
X7213950Y-16374050D01*
X7242521Y-16331193D01*
X7256807Y-16316907D01*
X7499664Y-16359764D02*
X7442521Y-16359764D01*
X7413950Y-16374050D01*
X7399664Y-16388336D01*
X7371093Y-16431193D01*
X7356807Y-16488336D01*
X7356807Y-16602621D01*
X7371093Y-16631193D01*
X7385378Y-16645479D01*
X7413950Y-16659764D01*
X7471093Y-16659764D01*
X7499664Y-16645479D01*
X7513950Y-16631193D01*
X7528236Y-16602621D01*
X7528236Y-16531193D01*
X7513950Y-16502621D01*
X7499664Y-16488336D01*
X7471093Y-16474050D01*
X7413950Y-16474050D01*
X7385378Y-16488336D01*
X7371093Y-16502621D01*
X7356807Y-16531193D01*
X7885378Y-16659764D02*
X7885378Y-16359764D01*
X8013950Y-16659764D02*
X8013950Y-16502621D01*
X7999664Y-16474050D01*
X7971093Y-16459764D01*
X7928236Y-16459764D01*
X7899664Y-16474050D01*
X7885378Y-16488336D01*
X8199664Y-16659764D02*
X8171093Y-16645479D01*
X8156807Y-16631193D01*
X8142521Y-16602621D01*
X8142521Y-16516907D01*
X8156807Y-16488336D01*
X8171093Y-16474050D01*
X8199664Y-16459764D01*
X8242521Y-16459764D01*
X8271093Y-16474050D01*
X8285378Y-16488336D01*
X8299664Y-16516907D01*
X8299664Y-16602621D01*
X8285378Y-16631193D01*
X8271093Y-16645479D01*
X8242521Y-16659764D01*
X8199664Y-16659764D01*
X8471093Y-16659764D02*
X8442521Y-16645479D01*
X8428236Y-16616907D01*
X8428236Y-16359764D01*
X8699664Y-16645479D02*
X8671093Y-16659764D01*
X8613950Y-16659764D01*
X8585378Y-16645479D01*
X8571093Y-16616907D01*
X8571093Y-16502621D01*
X8585378Y-16474050D01*
X8613950Y-16459764D01*
X8671093Y-16459764D01*
X8699664Y-16474050D01*
X8713950Y-16502621D01*
X8713950Y-16531193D01*
X8571093Y-16559764D01*
X8828236Y-16645479D02*
X8856807Y-16659764D01*
X8913950Y-16659764D01*
X8942521Y-16645479D01*
X8956807Y-16616907D01*
X8956807Y-16602621D01*
X8942521Y-16574050D01*
X8913950Y-16559764D01*
X8871093Y-16559764D01*
X8842521Y-16545479D01*
X8828236Y-16516907D01*
X8828236Y-16502621D01*
X8842521Y-16474050D01*
X8871093Y-16459764D01*
X8913950Y-16459764D01*
X8942521Y-16474050D01*
X9056807Y-16774050D02*
X9071093Y-16759764D01*
X9099664Y-16716907D01*
X9113950Y-16688336D01*
X9128236Y-16645479D01*
X9142521Y-16574050D01*
X9142521Y-16516907D01*
X9128236Y-16445479D01*
X9113950Y-16402621D01*
X9099664Y-16374050D01*
X9071093Y-16331193D01*
X9056807Y-16316907D01*
M02*
