%FSLAX45Y45*%
G04 Gerber Fmt 4.5, Leading zero omitted, Abs format (unit mm)*
G04 Created by KiCad (PCBNEW (5.1.10)-1) date 2021-10-19 19:54:51*
%MOMM*%
%LPD*%
G01*
G04 APERTURE LIST*
%TA.AperFunction,Profile*%
%ADD10C,0.001000*%
%TD*%
%ADD11C,0.200000*%
%ADD12C,0.300000*%
G04 APERTURE END LIST*
D10*
X2356000Y-1999000D02*
X17642000Y-1999000D01*
X2000000Y-11643000D02*
X1999000Y-2356000D01*
X17643000Y-11999000D02*
X2357000Y-12000000D01*
X17999000Y-2356000D02*
X18000000Y-11642000D01*
X18000000Y-11642000D02*
G75*
G02*
X17643000Y-11999000I-357000J0D01*
G01*
X2357000Y-12000000D02*
G75*
G02*
X2000000Y-11643000I0J357000D01*
G01*
X1999000Y-2356000D02*
G75*
G02*
X2356000Y-1999000I357000J0D01*
G01*
X17642000Y-1999000D02*
G75*
G02*
X17999000Y-2356000I0J-357000D01*
G01*
D11*
X17366000Y-4778000D02*
X17716000Y-5128000D01*
X17716000Y-4778000D02*
X17366000Y-5128000D01*
D12*
X2285378Y-12465764D02*
X2285378Y-12165764D01*
X2356807Y-12165764D01*
X2399664Y-12180050D01*
X2428236Y-12208621D01*
X2442521Y-12237193D01*
X2456807Y-12294336D01*
X2456807Y-12337193D01*
X2442521Y-12394336D01*
X2428236Y-12422907D01*
X2399664Y-12451479D01*
X2356807Y-12465764D01*
X2285378Y-12465764D01*
X2585378Y-12465764D02*
X2585378Y-12265764D01*
X2585378Y-12322907D02*
X2599664Y-12294336D01*
X2613950Y-12280050D01*
X2642521Y-12265764D01*
X2671093Y-12265764D01*
X2771093Y-12465764D02*
X2771093Y-12265764D01*
X2771093Y-12165764D02*
X2756807Y-12180050D01*
X2771093Y-12194336D01*
X2785378Y-12180050D01*
X2771093Y-12165764D01*
X2771093Y-12194336D01*
X2956807Y-12465764D02*
X2928236Y-12451479D01*
X2913950Y-12422907D01*
X2913950Y-12165764D01*
X3113950Y-12465764D02*
X3085378Y-12451479D01*
X3071093Y-12422907D01*
X3071093Y-12165764D01*
X3456807Y-12465764D02*
X3456807Y-12165764D01*
X3556807Y-12380050D01*
X3656807Y-12165764D01*
X3656807Y-12465764D01*
X3928236Y-12465764D02*
X3928236Y-12308621D01*
X3913950Y-12280050D01*
X3885378Y-12265764D01*
X3828236Y-12265764D01*
X3799664Y-12280050D01*
X3928236Y-12451479D02*
X3899664Y-12465764D01*
X3828236Y-12465764D01*
X3799664Y-12451479D01*
X3785378Y-12422907D01*
X3785378Y-12394336D01*
X3799664Y-12365764D01*
X3828236Y-12351479D01*
X3899664Y-12351479D01*
X3928236Y-12337193D01*
X4071093Y-12265764D02*
X4071093Y-12565764D01*
X4071093Y-12280050D02*
X4099664Y-12265764D01*
X4156807Y-12265764D01*
X4185378Y-12280050D01*
X4199664Y-12294336D01*
X4213950Y-12322907D01*
X4213950Y-12408621D01*
X4199664Y-12437193D01*
X4185378Y-12451479D01*
X4156807Y-12465764D01*
X4099664Y-12465764D01*
X4071093Y-12451479D01*
X4342521Y-12437193D02*
X4356807Y-12451479D01*
X4342521Y-12465764D01*
X4328236Y-12451479D01*
X4342521Y-12437193D01*
X4342521Y-12465764D01*
X4342521Y-12280050D02*
X4356807Y-12294336D01*
X4342521Y-12308621D01*
X4328236Y-12294336D01*
X4342521Y-12280050D01*
X4342521Y-12308621D01*
X1648950Y-12785050D02*
X1998950Y-13135050D01*
X1998950Y-12785050D02*
X1648950Y-13135050D01*
X2256807Y-12795764D02*
X2442521Y-12795764D01*
X2342521Y-12910050D01*
X2385378Y-12910050D01*
X2413950Y-12924336D01*
X2428236Y-12938621D01*
X2442521Y-12967193D01*
X2442521Y-13038621D01*
X2428236Y-13067193D01*
X2413950Y-13081479D01*
X2385378Y-13095764D01*
X2299664Y-13095764D01*
X2271093Y-13081479D01*
X2256807Y-13067193D01*
X2571093Y-13067193D02*
X2585378Y-13081479D01*
X2571093Y-13095764D01*
X2556807Y-13081479D01*
X2571093Y-13067193D01*
X2571093Y-13095764D01*
X2856807Y-12795764D02*
X2713950Y-12795764D01*
X2699664Y-12938621D01*
X2713950Y-12924336D01*
X2742521Y-12910050D01*
X2813950Y-12910050D01*
X2842521Y-12924336D01*
X2856807Y-12938621D01*
X2871093Y-12967193D01*
X2871093Y-13038621D01*
X2856807Y-13067193D01*
X2842521Y-13081479D01*
X2813950Y-13095764D01*
X2742521Y-13095764D01*
X2713950Y-13081479D01*
X2699664Y-13067193D01*
X3056807Y-12795764D02*
X3085378Y-12795764D01*
X3113950Y-12810050D01*
X3128236Y-12824336D01*
X3142521Y-12852907D01*
X3156807Y-12910050D01*
X3156807Y-12981479D01*
X3142521Y-13038621D01*
X3128236Y-13067193D01*
X3113950Y-13081479D01*
X3085378Y-13095764D01*
X3056807Y-13095764D01*
X3028236Y-13081479D01*
X3013950Y-13067193D01*
X2999664Y-13038621D01*
X2985378Y-12981479D01*
X2985378Y-12910050D01*
X2999664Y-12852907D01*
X3013950Y-12824336D01*
X3028236Y-12810050D01*
X3056807Y-12795764D01*
X3342521Y-12795764D02*
X3371093Y-12795764D01*
X3399664Y-12810050D01*
X3413950Y-12824336D01*
X3428236Y-12852907D01*
X3442521Y-12910050D01*
X3442521Y-12981479D01*
X3428236Y-13038621D01*
X3413950Y-13067193D01*
X3399664Y-13081479D01*
X3371093Y-13095764D01*
X3342521Y-13095764D01*
X3313950Y-13081479D01*
X3299664Y-13067193D01*
X3285378Y-13038621D01*
X3271093Y-12981479D01*
X3271093Y-12910050D01*
X3285378Y-12852907D01*
X3299664Y-12824336D01*
X3313950Y-12810050D01*
X3342521Y-12795764D01*
X3571093Y-13095764D02*
X3571093Y-12895764D01*
X3571093Y-12924336D02*
X3585378Y-12910050D01*
X3613950Y-12895764D01*
X3656807Y-12895764D01*
X3685378Y-12910050D01*
X3699664Y-12938621D01*
X3699664Y-13095764D01*
X3699664Y-12938621D02*
X3713950Y-12910050D01*
X3742521Y-12895764D01*
X3785378Y-12895764D01*
X3813950Y-12910050D01*
X3828236Y-12938621D01*
X3828236Y-13095764D01*
X3971093Y-13095764D02*
X3971093Y-12895764D01*
X3971093Y-12924336D02*
X3985378Y-12910050D01*
X4013950Y-12895764D01*
X4056807Y-12895764D01*
X4085378Y-12910050D01*
X4099664Y-12938621D01*
X4099664Y-13095764D01*
X4099664Y-12938621D02*
X4113950Y-12910050D01*
X4142521Y-12895764D01*
X4185378Y-12895764D01*
X4213950Y-12910050D01*
X4228236Y-12938621D01*
X4228236Y-13095764D01*
X4813950Y-12781479D02*
X4556807Y-13167193D01*
X5199664Y-12795764D02*
X5228236Y-12795764D01*
X5256807Y-12810050D01*
X5271093Y-12824336D01*
X5285378Y-12852907D01*
X5299664Y-12910050D01*
X5299664Y-12981479D01*
X5285378Y-13038621D01*
X5271093Y-13067193D01*
X5256807Y-13081479D01*
X5228236Y-13095764D01*
X5199664Y-13095764D01*
X5171093Y-13081479D01*
X5156807Y-13067193D01*
X5142521Y-13038621D01*
X5128236Y-12981479D01*
X5128236Y-12910050D01*
X5142521Y-12852907D01*
X5156807Y-12824336D01*
X5171093Y-12810050D01*
X5199664Y-12795764D01*
X5428236Y-13067193D02*
X5442521Y-13081479D01*
X5428236Y-13095764D01*
X5413950Y-13081479D01*
X5428236Y-13067193D01*
X5428236Y-13095764D01*
X5728236Y-13095764D02*
X5556807Y-13095764D01*
X5642521Y-13095764D02*
X5642521Y-12795764D01*
X5613950Y-12838621D01*
X5585378Y-12867193D01*
X5556807Y-12881479D01*
X5828236Y-12795764D02*
X6013950Y-12795764D01*
X5913950Y-12910050D01*
X5956807Y-12910050D01*
X5985378Y-12924336D01*
X5999664Y-12938621D01*
X6013950Y-12967193D01*
X6013950Y-13038621D01*
X5999664Y-13067193D01*
X5985378Y-13081479D01*
X5956807Y-13095764D01*
X5871093Y-13095764D01*
X5842521Y-13081479D01*
X5828236Y-13067193D01*
X6113950Y-12795764D02*
X6313950Y-12795764D01*
X6185378Y-13095764D01*
X6471093Y-12924336D02*
X6442521Y-12910050D01*
X6428236Y-12895764D01*
X6413950Y-12867193D01*
X6413950Y-12852907D01*
X6428236Y-12824336D01*
X6442521Y-12810050D01*
X6471093Y-12795764D01*
X6528236Y-12795764D01*
X6556807Y-12810050D01*
X6571093Y-12824336D01*
X6585378Y-12852907D01*
X6585378Y-12867193D01*
X6571093Y-12895764D01*
X6556807Y-12910050D01*
X6528236Y-12924336D01*
X6471093Y-12924336D01*
X6442521Y-12938621D01*
X6428236Y-12952907D01*
X6413950Y-12981479D01*
X6413950Y-13038621D01*
X6428236Y-13067193D01*
X6442521Y-13081479D01*
X6471093Y-13095764D01*
X6528236Y-13095764D01*
X6556807Y-13081479D01*
X6571093Y-13067193D01*
X6585378Y-13038621D01*
X6585378Y-12981479D01*
X6571093Y-12952907D01*
X6556807Y-12938621D01*
X6528236Y-12924336D01*
X6699664Y-12795764D02*
X6699664Y-12852907D01*
X6813950Y-12795764D02*
X6813950Y-12852907D01*
X7256807Y-13210050D02*
X7242521Y-13195764D01*
X7213950Y-13152907D01*
X7199664Y-13124336D01*
X7185378Y-13081479D01*
X7171093Y-13010050D01*
X7171093Y-12952907D01*
X7185378Y-12881479D01*
X7199664Y-12838621D01*
X7213950Y-12810050D01*
X7242521Y-12767193D01*
X7256807Y-12752907D01*
X7528236Y-13095764D02*
X7356807Y-13095764D01*
X7442521Y-13095764D02*
X7442521Y-12795764D01*
X7413950Y-12838621D01*
X7385378Y-12867193D01*
X7356807Y-12881479D01*
X7885378Y-13095764D02*
X7885378Y-12795764D01*
X8013950Y-13095764D02*
X8013950Y-12938621D01*
X7999664Y-12910050D01*
X7971093Y-12895764D01*
X7928236Y-12895764D01*
X7899664Y-12910050D01*
X7885378Y-12924336D01*
X8199664Y-13095764D02*
X8171093Y-13081479D01*
X8156807Y-13067193D01*
X8142521Y-13038621D01*
X8142521Y-12952907D01*
X8156807Y-12924336D01*
X8171093Y-12910050D01*
X8199664Y-12895764D01*
X8242521Y-12895764D01*
X8271093Y-12910050D01*
X8285378Y-12924336D01*
X8299664Y-12952907D01*
X8299664Y-13038621D01*
X8285378Y-13067193D01*
X8271093Y-13081479D01*
X8242521Y-13095764D01*
X8199664Y-13095764D01*
X8471093Y-13095764D02*
X8442521Y-13081479D01*
X8428236Y-13052907D01*
X8428236Y-12795764D01*
X8699664Y-13081479D02*
X8671093Y-13095764D01*
X8613950Y-13095764D01*
X8585378Y-13081479D01*
X8571093Y-13052907D01*
X8571093Y-12938621D01*
X8585378Y-12910050D01*
X8613950Y-12895764D01*
X8671093Y-12895764D01*
X8699664Y-12910050D01*
X8713950Y-12938621D01*
X8713950Y-12967193D01*
X8571093Y-12995764D01*
X8813950Y-13210050D02*
X8828236Y-13195764D01*
X8856807Y-13152907D01*
X8871093Y-13124336D01*
X8885378Y-13081479D01*
X8899664Y-13010050D01*
X8899664Y-12952907D01*
X8885378Y-12881479D01*
X8871093Y-12838621D01*
X8856807Y-12810050D01*
X8828236Y-12767193D01*
X8813950Y-12752907D01*
X9356807Y-13210050D02*
X9342521Y-13195764D01*
X9313950Y-13152907D01*
X9299664Y-13124336D01*
X9285378Y-13081479D01*
X9271093Y-13010050D01*
X9271093Y-12952907D01*
X9285378Y-12881479D01*
X9299664Y-12838621D01*
X9313950Y-12810050D01*
X9342521Y-12767193D01*
X9356807Y-12752907D01*
X9471093Y-12895764D02*
X9471093Y-13095764D01*
X9471093Y-12924336D02*
X9485378Y-12910050D01*
X9513950Y-12895764D01*
X9556807Y-12895764D01*
X9585378Y-12910050D01*
X9599664Y-12938621D01*
X9599664Y-13095764D01*
X9785378Y-13095764D02*
X9756807Y-13081479D01*
X9742521Y-13067193D01*
X9728236Y-13038621D01*
X9728236Y-12952907D01*
X9742521Y-12924336D01*
X9756807Y-12910050D01*
X9785378Y-12895764D01*
X9828236Y-12895764D01*
X9856807Y-12910050D01*
X9871093Y-12924336D01*
X9885378Y-12952907D01*
X9885378Y-13038621D01*
X9871093Y-13067193D01*
X9856807Y-13081479D01*
X9828236Y-13095764D01*
X9785378Y-13095764D01*
X9971093Y-12895764D02*
X10085378Y-12895764D01*
X10013950Y-12795764D02*
X10013950Y-13052907D01*
X10028236Y-13081479D01*
X10056807Y-13095764D01*
X10085378Y-13095764D01*
X10413950Y-12895764D02*
X10413950Y-13195764D01*
X10413950Y-12910050D02*
X10442521Y-12895764D01*
X10499664Y-12895764D01*
X10528236Y-12910050D01*
X10542521Y-12924336D01*
X10556807Y-12952907D01*
X10556807Y-13038621D01*
X10542521Y-13067193D01*
X10528236Y-13081479D01*
X10499664Y-13095764D01*
X10442521Y-13095764D01*
X10413950Y-13081479D01*
X10728236Y-13095764D02*
X10699664Y-13081479D01*
X10685378Y-13052907D01*
X10685378Y-12795764D01*
X10971093Y-13095764D02*
X10971093Y-12938621D01*
X10956807Y-12910050D01*
X10928236Y-12895764D01*
X10871093Y-12895764D01*
X10842521Y-12910050D01*
X10971093Y-13081479D02*
X10942521Y-13095764D01*
X10871093Y-13095764D01*
X10842521Y-13081479D01*
X10828236Y-13052907D01*
X10828236Y-13024336D01*
X10842521Y-12995764D01*
X10871093Y-12981479D01*
X10942521Y-12981479D01*
X10971093Y-12967193D01*
X11071093Y-12895764D02*
X11185378Y-12895764D01*
X11113950Y-12795764D02*
X11113950Y-13052907D01*
X11128236Y-13081479D01*
X11156807Y-13095764D01*
X11185378Y-13095764D01*
X11399664Y-13081479D02*
X11371093Y-13095764D01*
X11313950Y-13095764D01*
X11285378Y-13081479D01*
X11271093Y-13052907D01*
X11271093Y-12938621D01*
X11285378Y-12910050D01*
X11313950Y-12895764D01*
X11371093Y-12895764D01*
X11399664Y-12910050D01*
X11413950Y-12938621D01*
X11413950Y-12967193D01*
X11271093Y-12995764D01*
X11671093Y-13095764D02*
X11671093Y-12795764D01*
X11671093Y-13081479D02*
X11642521Y-13095764D01*
X11585378Y-13095764D01*
X11556807Y-13081479D01*
X11542521Y-13067193D01*
X11528236Y-13038621D01*
X11528236Y-12952907D01*
X11542521Y-12924336D01*
X11556807Y-12910050D01*
X11585378Y-12895764D01*
X11642521Y-12895764D01*
X11671093Y-12910050D01*
X11785378Y-13210050D02*
X11799664Y-13195764D01*
X11828236Y-13152907D01*
X11842521Y-13124336D01*
X11856807Y-13081479D01*
X11871093Y-13010050D01*
X11871093Y-12952907D01*
X11856807Y-12881479D01*
X11842521Y-12838621D01*
X11828236Y-12810050D01*
X11799664Y-12767193D01*
X11785378Y-12752907D01*
M02*
